<?xml version="1.0" encoding="utf-8" standalone="no"?>
<!DOCTYPE svg PUBLIC "-//W3C//DTD SVG 1.1//EN"
  "http://www.w3.org/Graphics/SVG/1.1/DTD/svg11.dtd">
<svg xmlns:xlink="http://www.w3.org/1999/xlink" width="349.711875pt" height="241.460625pt" viewBox="0 0 349.711875 241.460625" xmlns="http://www.w3.org/2000/svg" version="1.1">
 <metadata>
  <rdf:RDF xmlns:dc="http://purl.org/dc/elements/1.1/" xmlns:cc="http://creativecommons.org/ns#" xmlns:rdf="http://www.w3.org/1999/02/22-rdf-syntax-ns#">
   <cc:Work>
    <dc:type rdf:resource="http://purl.org/dc/dcmitype/StillImage"/>
    <dc:date>2026-04-17T10:58:44.189438</dc:date>
    <dc:format>image/svg+xml</dc:format>
    <dc:creator>
     <cc:Agent>
      <dc:title>Matplotlib v3.10.8, https://matplotlib.org/</dc:title>
     </cc:Agent>
    </dc:creator>
   </cc:Work>
  </rdf:RDF>
 </metadata>
 <defs>
  <style type="text/css">*{stroke-linejoin: round; stroke-linecap: butt}</style>
 </defs>
 <g id="figure_1">
  <g id="patch_1">
   <path d="M 0 241.460625 
L 349.711875 241.460625 
L 349.711875 0 
L 0 0 
z
" style="fill: #ffffff"/>
  </g>
  <g id="axes_1">
   <g id="patch_2">
    <path d="M 46.341875 201.964062 
L 342.511875 201.964062 
L 342.511875 22.482812 
L 46.341875 22.482812 
z
" style="fill: #ffffff"/>
   </g>
   <g id="matplotlib.axis_1">
    <g id="xtick_1">
     <g id="line2d_1">
      <defs>
       <path id="mf9cea0dbe1" d="M 0 0 
L 0 3.5 
" style="stroke: #000000; stroke-width: 0.8"/>
      </defs>
      <g>
       <use xlink:href="#mf9cea0dbe1" x="59.804148" y="201.964062" style="stroke: #000000; stroke-width: 0.8"/>
      </g>
     </g>
     <g id="text_1">
      <!-- 0 -->
      <g transform="translate(56.504148 216.971719) scale(0.11 -0.11)">
       <defs>
        <path id="PingFangHK-Regular-30" d="M 1920 4659 
C 1370 4659 960 4422 685 3936 
C 442 3526 320 2976 320 2285 
C 320 1594 442 1043 685 634 
C 960 154 1370 -90 1920 -90 
C 2464 -90 2874 154 3155 634 
C 3398 1043 3520 1594 3520 2285 
C 3520 2976 3398 3526 3155 3936 
C 2874 4422 2464 4659 1920 4659 
z
M 1920 4211 
C 2330 4211 2624 3994 2803 3552 
C 2931 3245 3002 2822 3002 2285 
C 3002 1754 2931 1331 2803 1018 
C 2624 582 2330 358 1920 358 
C 1510 358 1216 582 1037 1018 
C 909 1331 845 1754 845 2285 
C 845 2822 909 3245 1037 3552 
C 1216 3994 1510 4211 1920 4211 
z
" transform="scale(0.015625)"/>
       </defs>
       <use xlink:href="#PingFangHK-Regular-30"/>
      </g>
     </g>
    </g>
    <g id="xtick_2">
     <g id="line2d_2">
      <g>
       <use xlink:href="#mf9cea0dbe1" x="127.453759" y="201.964062" style="stroke: #000000; stroke-width: 0.8"/>
      </g>
     </g>
     <g id="text_2">
      <!-- 50 -->
      <g transform="translate(120.853759 216.971719) scale(0.11 -0.11)">
       <defs>
        <path id="PingFangHK-Regular-35" d="M 672 4570 
L 429 2048 
L 928 2048 
C 1018 2227 1158 2368 1338 2458 
C 1510 2554 1702 2598 1920 2598 
C 2253 2598 2515 2502 2701 2298 
C 2893 2099 2995 1818 2995 1453 
C 2995 1133 2886 870 2682 666 
C 2470 461 2208 358 1888 358 
C 1606 358 1370 429 1190 563 
C 986 717 870 941 845 1229 
L 326 1229 
C 358 813 531 480 851 237 
C 1133 19 1478 -90 1882 -90 
C 2330 -90 2714 51 3021 326 
C 3347 621 3514 998 3514 1459 
C 3514 1952 3373 2336 3104 2618 
C 2835 2893 2483 3027 2048 3027 
C 1837 3027 1645 2995 1466 2918 
C 1267 2842 1101 2726 973 2573 
L 947 2573 
L 1101 4102 
L 3328 4102 
L 3328 4570 
L 672 4570 
z
" transform="scale(0.015625)"/>
       </defs>
       <use xlink:href="#PingFangHK-Regular-35"/>
       <use xlink:href="#PingFangHK-Regular-30" transform="translate(59.999985 0)"/>
      </g>
     </g>
    </g>
    <g id="xtick_3">
     <g id="line2d_3">
      <g>
       <use xlink:href="#mf9cea0dbe1" x="195.103371" y="201.964062" style="stroke: #000000; stroke-width: 0.8"/>
      </g>
     </g>
     <g id="text_3">
      <!-- 100 -->
      <g transform="translate(186.298215 216.971719) scale(0.11 -0.11)">
       <defs>
        <path id="PingFangHK-Regular-31" d="M 1472 4570 
C 1318 4397 1139 4243 922 4102 
C 704 3974 486 3885 282 3827 
L 282 3302 
C 710 3430 1069 3635 1357 3930 
L 1357 0 
L 1882 0 
L 1882 4570 
L 1472 4570 
z
" transform="scale(0.015625)"/>
       </defs>
       <use xlink:href="#PingFangHK-Regular-31"/>
       <use xlink:href="#PingFangHK-Regular-30" transform="translate(40.099991 0)"/>
       <use xlink:href="#PingFangHK-Regular-30" transform="translate(100.099976 0)"/>
      </g>
     </g>
    </g>
    <g id="xtick_4">
     <g id="line2d_4">
      <g>
       <use xlink:href="#mf9cea0dbe1" x="262.752983" y="201.964062" style="stroke: #000000; stroke-width: 0.8"/>
      </g>
     </g>
     <g id="text_4">
      <!-- 150 -->
      <g transform="translate(253.947827 216.971719) scale(0.11 -0.11)">
       <use xlink:href="#PingFangHK-Regular-31"/>
       <use xlink:href="#PingFangHK-Regular-35" transform="translate(40.099991 0)"/>
       <use xlink:href="#PingFangHK-Regular-30" transform="translate(100.099976 0)"/>
      </g>
     </g>
    </g>
    <g id="xtick_5">
     <g id="line2d_5">
      <g>
       <use xlink:href="#mf9cea0dbe1" x="330.402595" y="201.964062" style="stroke: #000000; stroke-width: 0.8"/>
      </g>
     </g>
     <g id="text_5">
      <!-- 200 -->
      <g transform="translate(320.502595 216.971719) scale(0.11 -0.11)">
       <defs>
        <path id="PingFangHK-Regular-32" d="M 1984 4659 
C 1523 4659 1146 4506 864 4198 
C 582 3898 435 3488 435 2976 
L 960 2976 
C 966 3379 1062 3686 1242 3891 
C 1408 4109 1651 4211 1965 4211 
C 2259 4211 2496 4134 2662 3981 
C 2829 3827 2912 3616 2912 3334 
C 2912 3040 2790 2765 2560 2515 
C 2438 2387 2202 2202 1843 1946 
C 1357 1613 1030 1338 851 1133 
C 544 794 397 416 397 0 
L 3443 0 
L 3443 467 
L 1043 467 
C 1126 774 1459 1126 2042 1517 
C 2515 1837 2829 2086 2989 2253 
C 3283 2573 3437 2931 3437 3328 
C 3437 3725 3296 4051 3027 4294 
C 2752 4538 2406 4659 1984 4659 
z
" transform="scale(0.015625)"/>
       </defs>
       <use xlink:href="#PingFangHK-Regular-32"/>
       <use xlink:href="#PingFangHK-Regular-30" transform="translate(59.999985 0)"/>
       <use xlink:href="#PingFangHK-Regular-30" transform="translate(119.999969 0)"/>
      </g>
     </g>
    </g>
    <g id="text_6">
     <!-- 训练步数 -->
     <g transform="translate(170.426875 231.885) scale(0.12 -0.12)">
      <defs>
       <path id="PingFangHK-Regular-8bad" d="M 4083 4787 
L 4083 -218 
L 4525 -218 
L 4525 4787 
L 4083 4787 
z
M 5421 5101 
L 5421 -653 
L 5875 -653 
L 5875 5101 
L 5421 5101 
z
M 2810 5082 
L 2810 2266 
C 2797 1056 2541 179 2029 -371 
L 2374 -678 
C 2944 -58 3238 922 3251 2266 
L 3251 5082 
L 2810 5082 
z
M 1037 5165 
L 717 4851 
C 1178 4506 1549 4173 1818 3859 
L 2131 4179 
C 1837 4512 1472 4838 1037 5165 
z
M 288 3270 
L 288 2829 
L 1229 2829 
L 1229 339 
C 1229 230 1178 134 1088 51 
L 1267 -358 
C 1651 -77 2010 243 2349 602 
L 2227 1082 
C 2035 877 1850 691 1670 525 
L 1670 3270 
L 288 3270 
z
" transform="scale(0.015625)"/>
       <path id="PingFangHK-Regular-7ec3" d="M 2310 659 
C 1734 416 1050 218 269 77 
L 326 -384 
C 1069 -230 1734 -38 2310 205 
L 2310 659 
z
M 1344 5216 
C 1114 4461 845 3795 525 3213 
C 467 3130 403 3072 326 3034 
L 442 2611 
C 774 2669 1101 2733 1427 2797 
C 1107 2195 832 1773 608 1517 
C 550 1466 480 1421 403 1382 
L 525 954 
C 1114 1043 1722 1203 2362 1446 
L 2362 1862 
C 1933 1702 1504 1574 1075 1485 
C 1421 1939 1869 2701 2406 3770 
L 1984 3930 
C 1869 3680 1754 3443 1638 3213 
C 1382 3162 1126 3117 870 3078 
C 1178 3571 1478 4224 1786 5043 
L 1344 5216 
z
M 3085 1363 
C 2899 838 2630 326 2278 -179 
L 2675 -403 
C 2982 38 3251 570 3488 1197 
L 3085 1363 
z
M 5485 1370 
L 5075 1235 
C 5331 762 5568 218 5779 -397 
L 6170 -224 
C 5978 339 5747 870 5485 1370 
z
M 4058 -582 
C 4422 -582 4608 -410 4608 -70 
L 4608 1734 
L 5971 1734 
L 5971 2144 
L 4608 2144 
L 4608 3386 
L 3750 3386 
C 3827 3603 3904 3840 3981 4083 
L 5971 4083 
L 5971 4512 
L 4109 4512 
C 4166 4717 4224 4928 4282 5152 
L 3834 5235 
C 3770 4986 3712 4742 3648 4512 
L 2227 4512 
L 2227 4083 
L 3520 4083 
C 3443 3840 3366 3610 3290 3386 
L 2458 3386 
L 2458 2970 
L 3123 2970 
C 2989 2662 2848 2381 2707 2131 
L 2810 1734 
L 4166 1734 
L 4166 70 
C 4166 -96 4083 -179 3923 -179 
L 3309 -160 
L 3424 -582 
L 4058 -582 
z
M 3590 2970 
L 4166 2970 
L 4166 2144 
L 3219 2144 
C 3347 2400 3469 2675 3590 2970 
z
" transform="scale(0.015625)"/>
       <path id="PingFangHK-Regular-6b65" d="M 3002 5242 
L 3002 3142 
L 1805 3142 
L 1805 4742 
L 1338 4742 
L 1338 3142 
L 358 3142 
L 358 2694 
L 3040 2694 
L 3040 762 
L 3501 762 
L 3501 2694 
L 6042 2694 
L 6042 3142 
L 3469 3142 
L 3469 4026 
L 5408 4026 
L 5408 4467 
L 3469 4467 
L 3469 5242 
L 3002 5242 
z
M 5088 2227 
C 4384 595 2925 -224 710 -224 
L 877 -666 
C 3155 -659 4704 230 5510 2003 
L 5088 2227 
z
M 1894 2406 
C 1523 1843 1062 1350 518 928 
L 806 557 
C 1370 998 1837 1517 2221 2112 
L 1894 2406 
z
" transform="scale(0.015625)"/>
       <path id="PingFangHK-Regular-6570" d="M 4166 3808 
L 5190 3808 
C 5165 2906 5018 2125 4742 1466 
C 4499 1901 4307 2381 4154 2893 
L 3795 2688 
C 3974 2074 4211 1510 4512 998 
C 4218 486 3827 64 3341 -269 
L 3584 -659 
C 4058 -314 4448 102 4762 602 
C 5069 141 5440 -275 5869 -653 
L 6163 -307 
C 5715 83 5325 531 4998 1037 
C 5370 1805 5574 2726 5606 3808 
L 6074 3808 
L 6074 4250 
L 4275 4250 
C 4339 4531 4397 4838 4448 5165 
L 4006 5242 
C 3859 4102 3578 3194 3155 2528 
L 3437 2176 
C 3738 2611 3981 3155 4166 3808 
z
M 1504 2278 
C 1453 2144 1402 2003 1338 1850 
L 403 1850 
L 403 1446 
L 1152 1446 
C 1024 1203 883 947 717 678 
C 1043 550 1350 429 1638 301 
C 1261 83 800 -96 256 -237 
L 474 -621 
C 1126 -442 1664 -198 2093 96 
C 2470 -83 2803 -256 3085 -429 
L 3328 -70 
C 3040 90 2746 237 2445 378 
C 2778 685 3014 1050 3155 1472 
L 3155 1850 
L 1792 1850 
C 1843 1978 1888 2099 1933 2227 
L 1504 2278 
z
M 2022 563 
C 1779 672 1530 768 1274 858 
C 1395 1043 1510 1242 1613 1446 
L 2733 1446 
C 2579 1114 2342 819 2022 563 
z
M 941 5146 
L 570 5024 
C 723 4787 870 4518 1005 4211 
L 1338 4358 
C 1222 4640 1094 4902 941 5146 
z
M 2886 5171 
C 2765 4909 2605 4640 2413 4371 
L 2739 4205 
C 2938 4467 3104 4736 3232 5011 
L 2886 5171 
z
M 429 4000 
L 429 3597 
L 1421 3597 
C 1203 3238 819 2918 269 2637 
L 506 2259 
C 1056 2592 1446 2982 1690 3430 
L 1690 2362 
L 2112 2362 
L 2112 3142 
C 2330 2982 2592 2765 2893 2490 
L 3130 2848 
C 2790 3085 2451 3296 2112 3482 
L 2112 3597 
L 3270 3597 
L 3270 4000 
L 2112 4000 
L 2112 5222 
L 1690 5222 
L 1690 4000 
L 429 4000 
z
" transform="scale(0.015625)"/>
      </defs>
      <use xlink:href="#PingFangHK-Regular-8bad"/>
      <use xlink:href="#PingFangHK-Regular-7ec3" transform="translate(99.999985 0)"/>
      <use xlink:href="#PingFangHK-Regular-6b65" transform="translate(199.999969 0)"/>
      <use xlink:href="#PingFangHK-Regular-6570" transform="translate(299.999954 0)"/>
     </g>
    </g>
   </g>
   <g id="matplotlib.axis_2">
    <g id="ytick_1">
     <g id="line2d_6">
      <defs>
       <path id="mce01b55abe" d="M 0 0 
L -3.5 0 
" style="stroke: #000000; stroke-width: 0.8"/>
      </defs>
      <g>
       <use xlink:href="#mce01b55abe" x="46.341875" y="197.838057" style="stroke: #000000; stroke-width: 0.8"/>
      </g>
     </g>
     <g id="text_7">
      <!-- 0.0 -->
      <g transform="translate(23.237188 201.841885) scale(0.11 -0.11)">
       <defs>
        <path id="PingFangHK-Regular-2e" d="M 845 762 
C 730 762 640 723 570 646 
C 493 570 454 480 454 365 
C 454 256 493 166 570 90 
C 640 13 730 -26 845 -26 
C 947 -26 1043 13 1120 90 
C 1197 166 1235 256 1235 365 
C 1235 480 1197 570 1120 646 
C 1043 723 947 762 845 762 
z
" transform="scale(0.015625)"/>
       </defs>
       <use xlink:href="#PingFangHK-Regular-30"/>
       <use xlink:href="#PingFangHK-Regular-2e" transform="translate(59.999985 0)"/>
       <use xlink:href="#PingFangHK-Regular-30" transform="translate(86.399979 0)"/>
      </g>
     </g>
    </g>
    <g id="ytick_2">
     <g id="line2d_7">
      <g>
       <use xlink:href="#mce01b55abe" x="46.341875" y="156.577999" style="stroke: #000000; stroke-width: 0.8"/>
      </g>
     </g>
     <g id="text_8">
      <!-- 0.2 -->
      <g transform="translate(23.237188 160.581827) scale(0.11 -0.11)">
       <use xlink:href="#PingFangHK-Regular-30"/>
       <use xlink:href="#PingFangHK-Regular-2e" transform="translate(59.999985 0)"/>
       <use xlink:href="#PingFangHK-Regular-32" transform="translate(86.399979 0)"/>
      </g>
     </g>
    </g>
    <g id="ytick_3">
     <g id="line2d_8">
      <g>
       <use xlink:href="#mce01b55abe" x="46.341875" y="115.317942" style="stroke: #000000; stroke-width: 0.8"/>
      </g>
     </g>
     <g id="text_9">
      <!-- 0.4 -->
      <g transform="translate(23.237188 119.32177) scale(0.11 -0.11)">
       <defs>
        <path id="PingFangHK-Regular-34" d="M 2458 4570 
L 154 1536 
L 154 1037 
L 2451 1037 
L 2451 0 
L 2950 0 
L 2950 1037 
L 3693 1037 
L 3693 1466 
L 2950 1466 
L 2950 4570 
L 2458 4570 
z
M 2432 3885 
L 2451 3885 
L 2451 1466 
L 595 1466 
L 2432 3885 
z
" transform="scale(0.015625)"/>
       </defs>
       <use xlink:href="#PingFangHK-Regular-30"/>
       <use xlink:href="#PingFangHK-Regular-2e" transform="translate(59.999985 0)"/>
       <use xlink:href="#PingFangHK-Regular-34" transform="translate(86.399979 0)"/>
      </g>
     </g>
    </g>
    <g id="ytick_4">
     <g id="line2d_9">
      <g>
       <use xlink:href="#mce01b55abe" x="46.341875" y="74.057884" style="stroke: #000000; stroke-width: 0.8"/>
      </g>
     </g>
     <g id="text_10">
      <!-- 0.6 -->
      <g transform="translate(23.237188 78.061712) scale(0.11 -0.11)">
       <defs>
        <path id="PingFangHK-Regular-36" d="M 1984 4659 
C 1466 4659 1056 4422 755 3942 
C 467 3488 326 2893 326 2163 
C 326 1466 454 922 723 531 
C 1005 122 1421 -90 1978 -90 
C 2426 -90 2790 64 3085 358 
C 3373 653 3520 1030 3520 1478 
C 3520 1926 3386 2285 3123 2566 
C 2854 2848 2502 2989 2067 2989 
C 1798 2989 1562 2925 1357 2790 
C 1139 2662 979 2477 864 2240 
L 838 2240 
C 832 2323 832 2381 832 2406 
C 832 2925 928 3354 1133 3686 
C 1338 4045 1619 4218 1978 4218 
C 2509 4218 2822 3962 2925 3437 
L 3443 3437 
C 3315 4256 2829 4659 1984 4659 
z
M 1965 2554 
C 2278 2554 2528 2458 2720 2253 
C 2906 2061 3002 1805 3002 1478 
C 3002 1152 2906 883 2714 666 
C 2522 461 2272 352 1965 352 
C 1645 352 1395 461 1203 678 
C 1011 883 922 1146 922 1466 
C 922 1786 1018 2042 1216 2246 
C 1414 2451 1664 2554 1965 2554 
z
" transform="scale(0.015625)"/>
       </defs>
       <use xlink:href="#PingFangHK-Regular-30"/>
       <use xlink:href="#PingFangHK-Regular-2e" transform="translate(59.999985 0)"/>
       <use xlink:href="#PingFangHK-Regular-36" transform="translate(86.399979 0)"/>
      </g>
     </g>
    </g>
    <g id="ytick_5">
     <g id="line2d_10">
      <g>
       <use xlink:href="#mce01b55abe" x="46.341875" y="32.797827" style="stroke: #000000; stroke-width: 0.8"/>
      </g>
     </g>
     <g id="text_11">
      <!-- 0.8 -->
      <g transform="translate(23.237188 36.801655) scale(0.11 -0.11)">
       <defs>
        <path id="PingFangHK-Regular-38" d="M 1920 4659 
C 1440 4659 1069 4538 800 4288 
C 550 4064 429 3782 429 3450 
C 429 3206 486 3002 602 2835 
C 723 2656 902 2522 1146 2438 
L 1146 2426 
C 902 2368 704 2234 538 2029 
C 358 1811 269 1555 269 1261 
C 269 858 410 531 691 288 
C 979 38 1389 -90 1920 -90 
C 2445 -90 2854 38 3149 288 
C 3430 531 3571 858 3571 1261 
C 3571 1555 3482 1811 3302 2029 
C 3136 2234 2931 2368 2694 2426 
L 2694 2438 
C 2931 2522 3110 2656 3238 2835 
C 3354 3002 3411 3206 3411 3450 
C 3411 3782 3283 4064 3040 4288 
C 2771 4538 2394 4659 1920 4659 
z
M 1920 4230 
C 2240 4230 2496 4147 2682 3981 
C 2835 3840 2918 3654 2918 3430 
C 2918 3200 2848 3008 2707 2867 
C 2534 2701 2272 2611 1920 2611 
C 1562 2611 1299 2701 1133 2867 
C 992 3008 922 3200 922 3430 
C 922 3654 998 3840 1158 3981 
C 1338 4147 1594 4230 1920 4230 
z
M 1920 2202 
C 2285 2202 2573 2112 2778 1926 
C 2957 1760 3053 1536 3053 1261 
C 3053 992 2957 774 2778 608 
C 2573 429 2291 339 1920 339 
C 1549 339 1261 429 1069 602 
C 877 768 787 992 787 1261 
C 787 1536 877 1760 1069 1926 
C 1267 2112 1549 2202 1920 2202 
z
" transform="scale(0.015625)"/>
       </defs>
       <use xlink:href="#PingFangHK-Regular-30"/>
       <use xlink:href="#PingFangHK-Regular-2e" transform="translate(59.999985 0)"/>
       <use xlink:href="#PingFangHK-Regular-38" transform="translate(86.399979 0)"/>
      </g>
     </g>
    </g>
    <g id="text_12">
     <!-- Loss -->
     <g style="fill: #ef4444" transform="translate(16.663594 126.418828) rotate(-90) scale(0.13 -0.13)">
      <defs>
       <path id="PingFangHK-Regular-4c" d="M 461 4570 
L 461 0 
L 3622 0 
L 3622 454 
L 979 454 
L 979 4570 
L 461 4570 
z
" transform="scale(0.015625)"/>
       <path id="PingFangHK-Regular-6f" d="M 1875 3398 
C 1376 3398 986 3232 691 2886 
C 410 2560 269 2150 269 1651 
C 269 1158 410 749 691 429 
C 986 83 1376 -90 1875 -90 
C 2368 -90 2765 83 3066 429 
C 3341 749 3482 1158 3482 1651 
C 3482 2150 3341 2560 3059 2886 
C 2765 3232 2368 3398 1875 3398 
z
M 1875 2970 
C 2221 2970 2496 2835 2701 2566 
C 2874 2323 2963 2022 2963 1651 
C 2963 1293 2874 986 2701 742 
C 2496 474 2221 339 1875 339 
C 1523 339 1248 474 1056 742 
C 877 986 794 1286 794 1651 
C 794 2022 877 2323 1056 2566 
C 1248 2835 1523 2970 1875 2970 
z
" transform="scale(0.015625)"/>
       <path id="PingFangHK-Regular-73" d="M 1568 3398 
C 1197 3398 890 3315 659 3149 
C 410 2982 288 2765 288 2483 
C 288 2202 410 1990 666 1837 
C 819 1734 1094 1638 1485 1542 
C 1843 1453 2080 1382 2189 1331 
C 2394 1229 2502 1088 2502 902 
C 2502 531 2202 339 1613 339 
C 1331 339 1120 390 979 493 
C 838 608 742 794 704 1056 
L 205 1056 
C 282 294 755 -90 1626 -90 
C 2560 -90 3027 256 3027 934 
C 3027 1222 2893 1446 2630 1613 
C 2458 1722 2176 1824 1779 1920 
C 1446 2010 1216 2080 1094 2138 
C 902 2234 813 2355 813 2496 
C 813 2643 883 2758 1024 2842 
C 1152 2931 1331 2970 1562 2970 
C 1824 2970 2029 2918 2170 2816 
C 2298 2726 2381 2573 2426 2368 
L 2925 2368 
C 2835 3059 2387 3398 1568 3398 
z
" transform="scale(0.015625)"/>
      </defs>
      <use xlink:href="#PingFangHK-Regular-4c"/>
      <use xlink:href="#PingFangHK-Regular-6f" transform="translate(58.799988 0)"/>
      <use xlink:href="#PingFangHK-Regular-73" transform="translate(117.399979 0)"/>
      <use xlink:href="#PingFangHK-Regular-73" transform="translate(167.899963 0)"/>
     </g>
    </g>
   </g>
   <g id="line2d_11">
    <path d="M 59.804148 30.112124 
L 61.15714 32.684084 
L 63.863124 40.052274 
L 65.216117 42.249941 
L 66.569109 45.355939 
L 67.922101 49.690694 
L 69.275093 52.235 
L 70.628086 55.327228 
L 71.981078 59.470327 
L 73.33407 62.60198 
L 74.687062 66.232698 
L 76.040055 70.305608 
L 80.099031 78.280357 
L 81.452023 80.073726 
L 82.805016 82.236132 
L 84.158008 83.278757 
L 85.511 85.032634 
L 88.216985 89.822476 
L 89.569977 91.364379 
L 90.922969 94.230547 
L 92.275961 96.780828 
L 93.628954 98.518935 
L 94.981946 99.890104 
L 96.334938 101.568479 
L 97.68793 103.798989 
L 99.040923 103.685542 
L 101.746907 107.571651 
L 103.099899 108.501221 
L 104.452891 110.463601 
L 107.158876 115.727583 
L 108.511868 117.360069 
L 109.86486 119.17622 
L 111.217853 119.357237 
L 112.570845 120.739669 
L 113.923837 120.92407 
L 115.276829 121.581344 
L 117.982814 126.011682 
L 119.335806 127.602345 
L 120.688798 128.046413 
L 122.04179 128.788406 
L 123.394783 130.077335 
L 124.747775 130.516612 
L 126.100767 131.528416 
L 127.453759 133.634048 
L 128.806752 134.475086 
L 130.159744 133.727931 
L 131.512736 134.309968 
L 132.865728 135.525214 
L 134.218721 136.208755 
L 135.571713 137.270924 
L 136.924705 138.171926 
L 138.277697 139.89014 
L 139.63069 140.310064 
L 140.983682 141.607462 
L 142.336674 143.33702 
L 143.689666 144.202756 
L 145.042658 143.812776 
L 146.395651 144.46998 
L 147.748643 143.873759 
L 149.101635 143.601668 
L 150.454627 145.178778 
L 151.80762 146.452794 
L 153.160612 146.098388 
L 154.513604 147.367849 
L 155.866596 147.234047 
L 157.219589 149.051804 
L 158.572581 149.34775 
L 159.925573 150.812378 
L 161.278565 151.527882 
L 162.631558 152.978426 
L 163.98455 153.112841 
L 165.337542 154.270162 
L 166.690534 154.603049 
L 168.043526 153.991009 
L 169.396519 154.844202 
L 170.749511 154.578373 
L 172.102503 155.205403 
L 173.455495 155.301153 
L 174.808488 156.442739 
L 176.16148 156.869606 
L 177.514472 156.460958 
L 178.867464 156.489622 
L 180.220457 156.846094 
L 181.573449 157.86387 
L 182.926441 158.109224 
L 184.279433 159.030848 
L 185.632425 160.349066 
L 186.985418 161.108959 
L 188.33841 160.848071 
L 191.044394 161.190366 
L 192.397387 161.471531 
L 196.456363 163.67608 
L 197.809356 163.912084 
L 199.162348 163.060466 
L 200.51534 161.900413 
L 201.868332 161.8413 
L 203.221325 161.439966 
L 204.574317 161.634529 
L 205.927309 163.314303 
L 207.280301 164.734273 
L 208.633293 165.035409 
L 209.986286 163.894983 
L 211.339278 164.187092 
L 212.69227 163.026656 
L 214.045262 163.240174 
L 216.751247 165.21953 
L 218.104239 164.828489 
L 219.457231 164.714154 
L 220.810224 165.439443 
L 222.163216 164.027366 
L 223.516208 165.777247 
L 224.8692 166.050072 
L 226.222192 165.350414 
L 227.575185 165.562973 
L 228.928177 166.939974 
L 230.281169 166.165112 
L 231.634161 166.990527 
L 232.987154 169.452797 
L 234.340146 168.940581 
L 235.693138 169.387284 
L 237.04613 169.292126 
L 238.399123 169.682466 
L 239.752115 167.893132 
L 241.105107 168.54675 
L 242.458099 168.211919 
L 243.811092 168.121801 
L 245.164084 168.431844 
L 246.517076 169.364721 
L 247.870068 168.182546 
L 249.22306 169.086912 
L 250.576053 169.582259 
L 251.929045 168.763144 
L 253.282037 168.521003 
L 254.635029 170.194007 
L 257.341014 169.997297 
L 258.694006 170.065682 
L 260.046998 170.483615 
L 261.399991 169.59054 
L 262.752983 169.278923 
L 264.105975 169.540866 
L 265.458967 169.623901 
L 266.81196 170.299668 
L 268.164952 169.436038 
L 269.517944 168.796703 
L 270.870936 169.750686 
L 272.223928 169.596869 
L 273.576921 169.827373 
L 274.929913 170.562647 
L 276.282905 170.204848 
L 278.98889 169.912731 
L 280.341882 169.115261 
L 281.694874 169.153335 
L 284.400859 168.455467 
L 285.753851 169.573595 
L 287.106843 170.433623 
L 288.459835 171.500006 
L 289.812827 172.773053 
L 291.16582 172.460175 
L 292.518812 171.871338 
L 293.871804 170.85656 
L 295.224796 170.390117 
L 296.577789 169.488167 
L 297.930781 169.907345 
L 299.283773 168.438223 
L 300.636765 168.605026 
L 301.989758 169.184613 
L 303.34275 170.787015 
L 304.695742 170.363659 
L 306.048734 172.223555 
L 307.401727 172.206024 
L 308.754719 171.418864 
L 310.107711 170.836489 
L 314.166688 173.277492 
L 316.872672 172.925919 
L 318.225664 173.203233 
L 319.578657 172.188168 
L 320.931649 171.70227 
L 322.284641 172.807526 
L 323.637633 172.872401 
L 324.990626 172.092221 
L 326.343618 172.93296 
L 327.69661 173.196958 
L 329.049602 172.674833 
L 329.049602 172.674833 
" clip-path="url(#p066c09006c)" style="fill: none; stroke: #ef4444; stroke-opacity: 0.9; stroke-width: 1.8; stroke-linecap: square"/>
   </g>
   <g id="line2d_12">
    <path d="M 46.341875 55.490858 
L 342.511875 55.490858 
" clip-path="url(#p066c09006c)" style="fill: none; stroke-dasharray: 2.96,1.28; stroke-dashoffset: 0; stroke: #d1d5db; stroke-width: 0.8"/>
   </g>
   <g id="patch_3">
    <path d="M 46.341875 201.964063 
L 46.341875 22.482812 
" style="fill: none; stroke: #000000; stroke-width: 0.8; stroke-linejoin: miter; stroke-linecap: square"/>
   </g>
   <g id="patch_4">
    <path d="M 46.341875 201.964062 
L 342.511875 201.964062 
" style="fill: none; stroke: #000000; stroke-width: 0.8; stroke-linejoin: miter; stroke-linecap: square"/>
   </g>
   <g id="text_13">
    <!-- ln2 ≈ 0.69（随机水平） -->
    <g style="fill: #9ca3af" transform="translate(66.569109 49.30185) scale(0.09 -0.09)">
     <defs>
      <path id="PingFangHK-Regular-6c" d="M 499 4659 
L 499 0 
L 1005 0 
L 1005 4659 
L 499 4659 
z
" transform="scale(0.015625)"/>
      <path id="PingFangHK-Regular-6e" d="M 1946 3398 
C 1728 3398 1530 3347 1350 3245 
C 1171 3149 1024 3008 909 2822 
L 909 3309 
L 397 3309 
L 397 0 
L 909 0 
L 909 1997 
C 928 2298 1024 2534 1203 2714 
C 1370 2880 1568 2963 1798 2963 
C 2374 2963 2669 2643 2669 1997 
L 2669 0 
L 3181 0 
L 3181 2035 
C 3181 2944 2765 3398 1946 3398 
z
" transform="scale(0.015625)"/>
      <path id="PingFangHK-Regular-20" transform="scale(0.015625)"/>
      <path id="PingFangHK-Regular-2248" d="M 1600 3482 
C 1382 3482 1178 3418 986 3277 
C 845 3174 691 3008 525 2784 
L 838 2528 
C 1094 2880 1350 3053 1606 3053 
C 1798 3053 2086 2950 2458 2746 
C 2822 2554 3130 2451 3386 2451 
C 3610 2451 3814 2522 4000 2650 
C 4128 2752 4288 2925 4480 3155 
L 4166 3418 
C 3898 3059 3635 2874 3379 2874 
C 3187 2874 2906 2976 2534 3181 
C 2163 3386 1850 3482 1600 3482 
z
M 1600 2138 
C 1382 2138 1178 2067 986 1926 
C 845 1824 691 1658 525 1440 
L 838 1178 
C 1094 1536 1350 1709 1606 1709 
C 1798 1709 2086 1613 2458 1408 
C 2822 1203 3130 1101 3386 1101 
C 3610 1101 3814 1171 4000 1306 
C 4128 1408 4288 1574 4480 1811 
L 4166 2074 
C 3898 1715 3635 1530 3379 1530 
C 3187 1530 2906 1632 2534 1830 
C 2163 2035 1850 2138 1600 2138 
z
" transform="scale(0.015625)"/>
      <path id="PingFangHK-Regular-39" d="M 1869 4659 
C 1421 4659 1050 4512 762 4211 
C 467 3917 326 3546 326 3091 
C 326 2650 454 2291 717 2016 
C 986 1728 1338 1581 1779 1581 
C 2048 1581 2285 1651 2490 1779 
C 2701 1914 2867 2099 2982 2330 
L 3008 2330 
C 3008 2253 3014 2195 3014 2163 
C 3014 1651 2912 1222 2714 883 
C 2502 531 2221 352 1869 352 
C 1331 352 1018 614 922 1133 
L 403 1133 
C 525 320 1011 -90 1862 -90 
C 2374 -90 2784 154 3091 627 
C 3373 1088 3520 1677 3520 2406 
C 3520 3110 3386 3661 3117 4045 
C 2835 4454 2419 4659 1869 4659 
z
M 1882 4218 
C 2195 4218 2451 4109 2643 3891 
C 2829 3686 2925 3424 2925 3104 
C 2925 2790 2822 2528 2630 2323 
C 2426 2118 2176 2016 1882 2016 
C 1562 2016 1312 2118 1126 2317 
C 934 2509 845 2771 845 3091 
C 845 3424 934 3693 1126 3904 
C 1318 4115 1568 4218 1882 4218 
z
" transform="scale(0.015625)"/>
      <path id="PingFangHK-Regular-ff08" d="M 5440 5293 
C 5158 4883 4941 4442 4781 3974 
C 4589 3424 4499 2867 4499 2298 
C 4499 1741 4589 1184 4781 634 
C 4941 173 5158 -269 5440 -685 
L 5888 -685 
C 5632 -256 5427 186 5280 640 
C 5088 1203 4998 1760 4998 2304 
C 4998 2854 5088 3405 5280 3968 
C 5427 4429 5632 4870 5888 5293 
L 5440 5293 
z
" transform="scale(0.015625)"/>
      <path id="PingFangHK-Regular-968f" d="M 525 4986 
L 525 -582 
L 947 -582 
L 947 4570 
L 1690 4570 
C 1600 4070 1466 3507 1293 2886 
C 1574 2394 1722 1952 1722 1562 
C 1722 1414 1696 1312 1658 1248 
C 1606 1190 1536 1158 1434 1146 
C 1344 1146 1229 1152 1088 1165 
L 1222 736 
C 1581 742 1837 819 1984 973 
C 2086 1088 2138 1280 2138 1562 
C 2125 1952 1978 2413 1709 2950 
C 1869 3539 2003 4096 2112 4634 
L 2112 4986 
L 525 4986 
z
M 2682 5114 
L 2387 4832 
C 2714 4525 2976 4230 3168 3949 
L 3456 4237 
C 3245 4531 2989 4826 2682 5114 
z
M 2176 3616 
L 2176 3219 
L 2912 3219 
C 2771 2861 2592 2490 2387 2112 
L 2387 1786 
L 3104 1786 
C 3008 1344 2880 947 2720 602 
C 2464 550 2189 262 1901 -250 
L 2195 -518 
C 2470 -45 2682 186 2829 186 
C 2867 186 2912 166 2957 122 
C 3123 -83 3309 -237 3514 -339 
C 3693 -429 3949 -480 4294 -493 
C 4582 -506 4915 -512 5286 -512 
L 6061 -512 
L 6157 -77 
C 5773 -96 5466 -109 5229 -109 
L 4307 -109 
C 4019 -96 3795 -58 3642 13 
C 3482 102 3322 237 3168 416 
C 3136 448 3104 474 3078 499 
C 3251 851 3398 1306 3514 1862 
L 3514 2150 
L 2835 2150 
C 3021 2522 3187 2893 3334 3277 
L 3334 3616 
L 2176 3616 
z
M 3667 4563 
L 3667 4147 
L 4307 4147 
C 4096 3597 3795 3136 3405 2771 
L 3648 2458 
C 3763 2560 3878 2675 3994 2803 
L 3994 250 
L 4378 250 
L 4378 1363 
L 5402 1363 
L 5402 870 
C 5402 717 5344 634 5235 634 
C 5120 634 4992 646 4858 659 
L 4954 282 
L 5357 282 
C 5651 294 5798 448 5798 742 
L 5798 3533 
L 4467 3533 
C 4557 3718 4646 3923 4730 4147 
L 6061 4147 
L 6061 4563 
L 4864 4563 
C 4915 4755 4966 4954 5011 5165 
L 4582 5216 
C 4544 4992 4499 4774 4442 4563 
L 3667 4563 
z
M 4378 2253 
L 5402 2253 
L 5402 1722 
L 4378 1722 
L 4378 2253 
z
M 5402 2611 
L 4378 2611 
L 4378 3174 
L 5402 3174 
L 5402 2611 
z
" transform="scale(0.015625)"/>
      <path id="PingFangHK-Regular-673a" d="M 371 3974 
L 371 3533 
L 1306 3533 
C 1094 2733 742 2022 250 1402 
L 448 902 
C 806 1427 1101 2003 1325 2643 
L 1325 -608 
L 1786 -608 
L 1786 2765 
C 1965 2515 2176 2189 2419 1786 
L 2688 2182 
C 2381 2560 2080 2899 1786 3206 
L 1786 3533 
L 2579 3533 
L 2579 3974 
L 1786 3974 
L 1786 5222 
L 1325 5222 
L 1325 3974 
L 371 3974 
z
M 2278 -326 
L 2656 -666 
C 2957 -205 3162 269 3270 768 
C 3386 1242 3443 1830 3443 2534 
L 3443 4525 
L 4582 4525 
L 4582 70 
C 4582 -301 4787 -486 5197 -486 
L 5459 -486 
C 5664 -486 5818 -448 5920 -378 
C 6022 -288 6086 -134 6112 96 
C 6138 339 6157 685 6157 1146 
L 5734 1280 
C 5734 666 5715 301 5690 173 
C 5677 83 5645 26 5594 -13 
C 5549 -38 5491 -51 5414 -51 
L 5197 -51 
C 5094 -51 5050 6 5050 115 
L 5050 4960 
L 2982 4960 
L 2982 2534 
C 2982 1875 2938 1350 2854 960 
C 2746 506 2554 77 2278 -326 
z
" transform="scale(0.015625)"/>
      <path id="PingFangHK-Regular-6c34" d="M 435 3603 
L 435 3155 
L 2061 3155 
C 1728 1965 1126 1043 250 397 
L 544 19 
C 1530 749 2182 1824 2515 3238 
L 2515 3603 
L 435 3603 
z
M 5389 4218 
C 4966 3667 4499 3174 3981 2746 
C 3789 3104 3622 3488 3488 3898 
L 3488 5254 
L 3014 5254 
L 3014 102 
C 3014 -90 2925 -192 2758 -192 
C 2515 -192 2253 -179 1984 -160 
L 2080 -614 
L 2918 -614 
C 3296 -614 3488 -410 3488 -13 
L 3488 2899 
C 3962 1786 4762 800 5875 -58 
L 6157 358 
C 5350 896 4691 1568 4192 2381 
C 4736 2803 5261 3328 5760 3942 
L 5389 4218 
z
" transform="scale(0.015625)"/>
      <path id="PingFangHK-Regular-5e73" d="M 621 4941 
L 621 4493 
L 2938 4493 
L 2938 2074 
L 365 2074 
L 365 1632 
L 2938 1632 
L 2938 -634 
L 3411 -634 
L 3411 1632 
L 6035 1632 
L 6035 2074 
L 3411 2074 
L 3411 4493 
L 5792 4493 
L 5792 4941 
L 621 4941 
z
M 1402 4083 
L 973 3872 
C 1216 3443 1446 2957 1664 2406 
L 2093 2618 
C 1875 3149 1645 3635 1402 4083 
z
M 5030 4115 
C 4845 3629 4595 3142 4282 2643 
L 4691 2432 
C 5005 2918 5261 3411 5453 3917 
L 5030 4115 
z
" transform="scale(0.015625)"/>
      <path id="PingFangHK-Regular-ff09" d="M 512 5293 
C 768 4870 966 4429 1120 3968 
C 1306 3405 1402 2854 1402 2304 
C 1402 1760 1306 1203 1120 640 
C 966 186 768 -256 512 -685 
L 960 -685 
C 1235 -269 1453 173 1619 634 
C 1805 1184 1901 1741 1901 2298 
C 1901 2867 1805 3424 1619 3974 
C 1453 4442 1235 4883 960 5293 
L 512 5293 
z
" transform="scale(0.015625)"/>
     </defs>
     <use xlink:href="#PingFangHK-Regular-6c"/>
     <use xlink:href="#PingFangHK-Regular-6e" transform="translate(23.499985 0)"/>
     <use xlink:href="#PingFangHK-Regular-32" transform="translate(79.399979 0)"/>
     <use xlink:href="#PingFangHK-Regular-20" transform="translate(139.399963 0)"/>
     <use xlink:href="#PingFangHK-Regular-2248" transform="translate(172.699951 0)"/>
     <use xlink:href="#PingFangHK-Regular-20" transform="translate(250.899933 0)"/>
     <use xlink:href="#PingFangHK-Regular-30" transform="translate(284.199921 0)"/>
     <use xlink:href="#PingFangHK-Regular-2e" transform="translate(344.199905 0)"/>
     <use xlink:href="#PingFangHK-Regular-36" transform="translate(370.599899 0)"/>
     <use xlink:href="#PingFangHK-Regular-39" transform="translate(430.599884 0)"/>
     <use xlink:href="#PingFangHK-Regular-ff08" transform="translate(490.599869 0)"/>
     <use xlink:href="#PingFangHK-Regular-968f" transform="translate(590.599854 0)"/>
     <use xlink:href="#PingFangHK-Regular-673a" transform="translate(690.599838 0)"/>
     <use xlink:href="#PingFangHK-Regular-6c34" transform="translate(790.599823 0)"/>
     <use xlink:href="#PingFangHK-Regular-5e73" transform="translate(890.599808 0)"/>
     <use xlink:href="#PingFangHK-Regular-ff09" transform="translate(990.599792 0)"/>
    </g>
   </g>
   <g id="text_14">
    <!-- Training Loss -->
    <g transform="translate(153.600781 16.482812) scale(0.13 -0.13)">
     <defs>
      <path id="PingFangHK-Regular-54" d="M 109 4570 
L 109 4115 
L 1722 4115 
L 1722 0 
L 2240 0 
L 2240 4115 
L 3853 4115 
L 3853 4570 
L 109 4570 
z
" transform="scale(0.015625)"/>
      <path id="PingFangHK-Regular-72" d="M 1850 3398 
C 1619 3398 1421 3328 1248 3187 
C 1107 3078 992 2925 902 2733 
L 902 3309 
L 397 3309 
L 397 0 
L 902 0 
L 902 1754 
C 902 2061 986 2323 1165 2541 
C 1338 2771 1555 2880 1811 2880 
C 1971 2880 2138 2861 2304 2810 
L 2304 3322 
C 2182 3373 2029 3398 1850 3398 
z
" transform="scale(0.015625)"/>
      <path id="PingFangHK-Regular-61" d="M 1837 3398 
C 1440 3398 1126 3322 883 3168 
C 614 3002 442 2739 371 2394 
L 877 2355 
C 928 2566 1037 2726 1210 2829 
C 1363 2931 1562 2976 1805 2976 
C 2381 2976 2669 2701 2669 2144 
L 2669 1971 
L 1875 1958 
C 1376 1952 992 1856 723 1677 
C 416 1485 269 1203 269 826 
C 269 557 371 333 576 160 
C 774 -6 1037 -90 1370 -90 
C 1677 -90 1952 -19 2195 115 
C 2400 230 2573 378 2701 557 
L 2701 0 
L 3181 0 
L 3181 2125 
C 3181 2509 3078 2810 2886 3027 
C 2656 3277 2310 3398 1837 3398 
z
M 2669 1587 
L 2669 1306 
C 2669 1050 2547 819 2310 621 
C 2067 416 1792 314 1478 314 
C 1274 314 1107 365 979 461 
C 851 563 794 685 794 838 
C 794 1318 1165 1562 1907 1574 
L 2669 1587 
z
" transform="scale(0.015625)"/>
      <path id="PingFangHK-Regular-69" d="M 819 4557 
C 710 4557 621 4525 544 4448 
C 467 4384 435 4294 435 4179 
C 435 4070 467 3981 544 3904 
C 621 3834 710 3795 819 3795 
C 928 3795 1018 3834 1094 3904 
C 1171 3981 1210 4070 1210 4179 
C 1210 4294 1171 4384 1094 4448 
C 1018 4525 928 4557 819 4557 
z
M 563 3309 
L 563 0 
L 1075 0 
L 1075 3309 
L 563 3309 
z
" transform="scale(0.015625)"/>
      <path id="PingFangHK-Regular-67" d="M 1760 3398 
C 1299 3398 934 3238 666 2912 
C 397 2605 269 2214 269 1728 
C 269 1248 397 858 666 550 
C 934 237 1299 77 1760 77 
C 2259 77 2630 301 2874 742 
L 2874 160 
C 2874 -570 2541 -941 1875 -941 
C 1574 -941 1350 -883 1203 -774 
C 1056 -672 960 -506 922 -282 
L 410 -282 
C 467 -640 614 -909 851 -1088 
C 1082 -1267 1427 -1357 1875 -1357 
C 2880 -1357 3386 -826 3386 230 
L 3386 3309 
L 2874 3309 
L 2874 2739 
C 2630 3181 2259 3398 1760 3398 
z
M 1837 2976 
C 2163 2976 2419 2861 2611 2618 
C 2790 2400 2880 2099 2880 1728 
C 2880 1370 2790 1075 2611 851 
C 2419 621 2163 506 1830 506 
C 1472 506 1210 634 1030 877 
C 870 1094 794 1382 794 1728 
C 794 2099 883 2400 1062 2618 
C 1248 2861 1504 2976 1837 2976 
z
" transform="scale(0.015625)"/>
     </defs>
     <use xlink:href="#PingFangHK-Regular-54"/>
     <use xlink:href="#PingFangHK-Regular-72" transform="translate(61.899994 0)"/>
     <use xlink:href="#PingFangHK-Regular-61" transform="translate(98.399979 0)"/>
     <use xlink:href="#PingFangHK-Regular-69" transform="translate(154.299973 0)"/>
     <use xlink:href="#PingFangHK-Regular-6e" transform="translate(179.899963 0)"/>
     <use xlink:href="#PingFangHK-Regular-69" transform="translate(235.799957 0)"/>
     <use xlink:href="#PingFangHK-Regular-6e" transform="translate(261.399948 0)"/>
     <use xlink:href="#PingFangHK-Regular-67" transform="translate(317.299942 0)"/>
     <use xlink:href="#PingFangHK-Regular-20" transform="translate(376.399933 0)"/>
     <use xlink:href="#PingFangHK-Regular-4c" transform="translate(409.699921 0)"/>
     <use xlink:href="#PingFangHK-Regular-6f" transform="translate(468.499908 0)"/>
     <use xlink:href="#PingFangHK-Regular-73" transform="translate(527.099899 0)"/>
     <use xlink:href="#PingFangHK-Regular-73" transform="translate(577.599884 0)"/>
    </g>
   </g>
  </g>
 </g>
 <defs>
  <clipPath id="p066c09006c">
   <rect x="46.341875" y="22.482812" width="296.17" height="179.48125"/>
  </clipPath>
 </defs>
</svg>
