<?xml version="1.0" encoding="utf-8" standalone="no"?>
<!DOCTYPE svg PUBLIC "-//W3C//DTD SVG 1.1//EN"
  "http://www.w3.org/Graphics/SVG/1.1/DTD/svg11.dtd">
<svg xmlns:xlink="http://www.w3.org/1999/xlink" width="349.801875pt" height="241.641406pt" viewBox="0 0 349.801875 241.641406" xmlns="http://www.w3.org/2000/svg" version="1.1">
 <metadata>
  <rdf:RDF xmlns:dc="http://purl.org/dc/elements/1.1/" xmlns:cc="http://creativecommons.org/ns#" xmlns:rdf="http://www.w3.org/1999/02/22-rdf-syntax-ns#">
   <cc:Work>
    <dc:type rdf:resource="http://purl.org/dc/dcmitype/StillImage"/>
    <dc:date>2026-04-17T10:58:44.268225</dc:date>
    <dc:format>image/svg+xml</dc:format>
    <dc:creator>
     <cc:Agent>
      <dc:title>Matplotlib v3.10.8, https://matplotlib.org/</dc:title>
     </cc:Agent>
    </dc:creator>
   </cc:Work>
  </rdf:RDF>
 </metadata>
 <defs>
  <style type="text/css">*{stroke-linejoin: round; stroke-linecap: butt}</style>
 </defs>
 <g id="figure_1">
  <g id="patch_1">
   <path d="M 0 241.641406 
L 349.801875 241.641406 
L 349.801875 0 
L 0 0 
z
" style="fill: #ffffff"/>
  </g>
  <g id="axes_1">
   <g id="patch_2">
    <path d="M 46.341875 202.144844 
L 342.601875 202.144844 
L 342.601875 22.663594 
L 46.341875 22.663594 
z
" style="fill: #ffffff"/>
   </g>
   <g id="matplotlib.axis_1">
    <g id="xtick_1">
     <g id="line2d_1">
      <defs>
       <path id="m358d616af2" d="M 0 0 
L 0 3.5 
" style="stroke: #000000; stroke-width: 0.8"/>
      </defs>
      <g>
       <use xlink:href="#m358d616af2" x="59.808239" y="202.144844" style="stroke: #000000; stroke-width: 0.8"/>
      </g>
     </g>
     <g id="text_1">
      <!-- 0 -->
      <g transform="translate(56.508239 217.1525) scale(0.11 -0.11)">
       <defs>
        <path id="PingFangHK-Regular-30" d="M 1920 4659 
C 1370 4659 960 4422 685 3936 
C 442 3526 320 2976 320 2285 
C 320 1594 442 1043 685 634 
C 960 154 1370 -90 1920 -90 
C 2464 -90 2874 154 3155 634 
C 3398 1043 3520 1594 3520 2285 
C 3520 2976 3398 3526 3155 3936 
C 2874 4422 2464 4659 1920 4659 
z
M 1920 4211 
C 2330 4211 2624 3994 2803 3552 
C 2931 3245 3002 2822 3002 2285 
C 3002 1754 2931 1331 2803 1018 
C 2624 582 2330 358 1920 358 
C 1510 358 1216 582 1037 1018 
C 909 1331 845 1754 845 2285 
C 845 2822 909 3245 1037 3552 
C 1216 3994 1510 4211 1920 4211 
z
" transform="scale(0.015625)"/>
       </defs>
       <use xlink:href="#PingFangHK-Regular-30"/>
      </g>
     </g>
    </g>
    <g id="xtick_2">
     <g id="line2d_2">
      <g>
       <use xlink:href="#m358d616af2" x="127.478408" y="202.144844" style="stroke: #000000; stroke-width: 0.8"/>
      </g>
     </g>
     <g id="text_2">
      <!-- 50 -->
      <g transform="translate(120.878408 217.1525) scale(0.11 -0.11)">
       <defs>
        <path id="PingFangHK-Regular-35" d="M 672 4570 
L 429 2048 
L 928 2048 
C 1018 2227 1158 2368 1338 2458 
C 1510 2554 1702 2598 1920 2598 
C 2253 2598 2515 2502 2701 2298 
C 2893 2099 2995 1818 2995 1453 
C 2995 1133 2886 870 2682 666 
C 2470 461 2208 358 1888 358 
C 1606 358 1370 429 1190 563 
C 986 717 870 941 845 1229 
L 326 1229 
C 358 813 531 480 851 237 
C 1133 19 1478 -90 1882 -90 
C 2330 -90 2714 51 3021 326 
C 3347 621 3514 998 3514 1459 
C 3514 1952 3373 2336 3104 2618 
C 2835 2893 2483 3027 2048 3027 
C 1837 3027 1645 2995 1466 2918 
C 1267 2842 1101 2726 973 2573 
L 947 2573 
L 1101 4102 
L 3328 4102 
L 3328 4570 
L 672 4570 
z
" transform="scale(0.015625)"/>
       </defs>
       <use xlink:href="#PingFangHK-Regular-35"/>
       <use xlink:href="#PingFangHK-Regular-30" transform="translate(59.999985 0)"/>
      </g>
     </g>
    </g>
    <g id="xtick_3">
     <g id="line2d_3">
      <g>
       <use xlink:href="#m358d616af2" x="195.148577" y="202.144844" style="stroke: #000000; stroke-width: 0.8"/>
      </g>
     </g>
     <g id="text_3">
      <!-- 100 -->
      <g transform="translate(186.34342 217.1525) scale(0.11 -0.11)">
       <defs>
        <path id="PingFangHK-Regular-31" d="M 1472 4570 
C 1318 4397 1139 4243 922 4102 
C 704 3974 486 3885 282 3827 
L 282 3302 
C 710 3430 1069 3635 1357 3930 
L 1357 0 
L 1882 0 
L 1882 4570 
L 1472 4570 
z
" transform="scale(0.015625)"/>
       </defs>
       <use xlink:href="#PingFangHK-Regular-31"/>
       <use xlink:href="#PingFangHK-Regular-30" transform="translate(40.099991 0)"/>
       <use xlink:href="#PingFangHK-Regular-30" transform="translate(100.099976 0)"/>
      </g>
     </g>
    </g>
    <g id="xtick_4">
     <g id="line2d_4">
      <g>
       <use xlink:href="#m358d616af2" x="262.818746" y="202.144844" style="stroke: #000000; stroke-width: 0.8"/>
      </g>
     </g>
     <g id="text_4">
      <!-- 150 -->
      <g transform="translate(254.013589 217.1525) scale(0.11 -0.11)">
       <use xlink:href="#PingFangHK-Regular-31"/>
       <use xlink:href="#PingFangHK-Regular-35" transform="translate(40.099991 0)"/>
       <use xlink:href="#PingFangHK-Regular-30" transform="translate(100.099976 0)"/>
      </g>
     </g>
    </g>
    <g id="xtick_5">
     <g id="line2d_5">
      <g>
       <use xlink:href="#m358d616af2" x="330.488915" y="202.144844" style="stroke: #000000; stroke-width: 0.8"/>
      </g>
     </g>
     <g id="text_5">
      <!-- 200 -->
      <g transform="translate(320.588915 217.1525) scale(0.11 -0.11)">
       <defs>
        <path id="PingFangHK-Regular-32" d="M 1984 4659 
C 1523 4659 1146 4506 864 4198 
C 582 3898 435 3488 435 2976 
L 960 2976 
C 966 3379 1062 3686 1242 3891 
C 1408 4109 1651 4211 1965 4211 
C 2259 4211 2496 4134 2662 3981 
C 2829 3827 2912 3616 2912 3334 
C 2912 3040 2790 2765 2560 2515 
C 2438 2387 2202 2202 1843 1946 
C 1357 1613 1030 1338 851 1133 
C 544 794 397 416 397 0 
L 3443 0 
L 3443 467 
L 1043 467 
C 1126 774 1459 1126 2042 1517 
C 2515 1837 2829 2086 2989 2253 
C 3283 2573 3437 2931 3437 3328 
C 3437 3725 3296 4051 3027 4294 
C 2752 4538 2406 4659 1984 4659 
z
" transform="scale(0.015625)"/>
       </defs>
       <use xlink:href="#PingFangHK-Regular-32"/>
       <use xlink:href="#PingFangHK-Regular-30" transform="translate(59.999985 0)"/>
       <use xlink:href="#PingFangHK-Regular-30" transform="translate(119.999969 0)"/>
      </g>
     </g>
    </g>
    <g id="text_6">
     <!-- 训练步数 -->
     <g transform="translate(170.471875 232.065781) scale(0.12 -0.12)">
      <defs>
       <path id="PingFangHK-Regular-8bad" d="M 4083 4787 
L 4083 -218 
L 4525 -218 
L 4525 4787 
L 4083 4787 
z
M 5421 5101 
L 5421 -653 
L 5875 -653 
L 5875 5101 
L 5421 5101 
z
M 2810 5082 
L 2810 2266 
C 2797 1056 2541 179 2029 -371 
L 2374 -678 
C 2944 -58 3238 922 3251 2266 
L 3251 5082 
L 2810 5082 
z
M 1037 5165 
L 717 4851 
C 1178 4506 1549 4173 1818 3859 
L 2131 4179 
C 1837 4512 1472 4838 1037 5165 
z
M 288 3270 
L 288 2829 
L 1229 2829 
L 1229 339 
C 1229 230 1178 134 1088 51 
L 1267 -358 
C 1651 -77 2010 243 2349 602 
L 2227 1082 
C 2035 877 1850 691 1670 525 
L 1670 3270 
L 288 3270 
z
" transform="scale(0.015625)"/>
       <path id="PingFangHK-Regular-7ec3" d="M 2310 659 
C 1734 416 1050 218 269 77 
L 326 -384 
C 1069 -230 1734 -38 2310 205 
L 2310 659 
z
M 1344 5216 
C 1114 4461 845 3795 525 3213 
C 467 3130 403 3072 326 3034 
L 442 2611 
C 774 2669 1101 2733 1427 2797 
C 1107 2195 832 1773 608 1517 
C 550 1466 480 1421 403 1382 
L 525 954 
C 1114 1043 1722 1203 2362 1446 
L 2362 1862 
C 1933 1702 1504 1574 1075 1485 
C 1421 1939 1869 2701 2406 3770 
L 1984 3930 
C 1869 3680 1754 3443 1638 3213 
C 1382 3162 1126 3117 870 3078 
C 1178 3571 1478 4224 1786 5043 
L 1344 5216 
z
M 3085 1363 
C 2899 838 2630 326 2278 -179 
L 2675 -403 
C 2982 38 3251 570 3488 1197 
L 3085 1363 
z
M 5485 1370 
L 5075 1235 
C 5331 762 5568 218 5779 -397 
L 6170 -224 
C 5978 339 5747 870 5485 1370 
z
M 4058 -582 
C 4422 -582 4608 -410 4608 -70 
L 4608 1734 
L 5971 1734 
L 5971 2144 
L 4608 2144 
L 4608 3386 
L 3750 3386 
C 3827 3603 3904 3840 3981 4083 
L 5971 4083 
L 5971 4512 
L 4109 4512 
C 4166 4717 4224 4928 4282 5152 
L 3834 5235 
C 3770 4986 3712 4742 3648 4512 
L 2227 4512 
L 2227 4083 
L 3520 4083 
C 3443 3840 3366 3610 3290 3386 
L 2458 3386 
L 2458 2970 
L 3123 2970 
C 2989 2662 2848 2381 2707 2131 
L 2810 1734 
L 4166 1734 
L 4166 70 
C 4166 -96 4083 -179 3923 -179 
L 3309 -160 
L 3424 -582 
L 4058 -582 
z
M 3590 2970 
L 4166 2970 
L 4166 2144 
L 3219 2144 
C 3347 2400 3469 2675 3590 2970 
z
" transform="scale(0.015625)"/>
       <path id="PingFangHK-Regular-6b65" d="M 3002 5242 
L 3002 3142 
L 1805 3142 
L 1805 4742 
L 1338 4742 
L 1338 3142 
L 358 3142 
L 358 2694 
L 3040 2694 
L 3040 762 
L 3501 762 
L 3501 2694 
L 6042 2694 
L 6042 3142 
L 3469 3142 
L 3469 4026 
L 5408 4026 
L 5408 4467 
L 3469 4467 
L 3469 5242 
L 3002 5242 
z
M 5088 2227 
C 4384 595 2925 -224 710 -224 
L 877 -666 
C 3155 -659 4704 230 5510 2003 
L 5088 2227 
z
M 1894 2406 
C 1523 1843 1062 1350 518 928 
L 806 557 
C 1370 998 1837 1517 2221 2112 
L 1894 2406 
z
" transform="scale(0.015625)"/>
       <path id="PingFangHK-Regular-6570" d="M 4166 3808 
L 5190 3808 
C 5165 2906 5018 2125 4742 1466 
C 4499 1901 4307 2381 4154 2893 
L 3795 2688 
C 3974 2074 4211 1510 4512 998 
C 4218 486 3827 64 3341 -269 
L 3584 -659 
C 4058 -314 4448 102 4762 602 
C 5069 141 5440 -275 5869 -653 
L 6163 -307 
C 5715 83 5325 531 4998 1037 
C 5370 1805 5574 2726 5606 3808 
L 6074 3808 
L 6074 4250 
L 4275 4250 
C 4339 4531 4397 4838 4448 5165 
L 4006 5242 
C 3859 4102 3578 3194 3155 2528 
L 3437 2176 
C 3738 2611 3981 3155 4166 3808 
z
M 1504 2278 
C 1453 2144 1402 2003 1338 1850 
L 403 1850 
L 403 1446 
L 1152 1446 
C 1024 1203 883 947 717 678 
C 1043 550 1350 429 1638 301 
C 1261 83 800 -96 256 -237 
L 474 -621 
C 1126 -442 1664 -198 2093 96 
C 2470 -83 2803 -256 3085 -429 
L 3328 -70 
C 3040 90 2746 237 2445 378 
C 2778 685 3014 1050 3155 1472 
L 3155 1850 
L 1792 1850 
C 1843 1978 1888 2099 1933 2227 
L 1504 2278 
z
M 2022 563 
C 1779 672 1530 768 1274 858 
C 1395 1043 1510 1242 1613 1446 
L 2733 1446 
C 2579 1114 2342 819 2022 563 
z
M 941 5146 
L 570 5024 
C 723 4787 870 4518 1005 4211 
L 1338 4358 
C 1222 4640 1094 4902 941 5146 
z
M 2886 5171 
C 2765 4909 2605 4640 2413 4371 
L 2739 4205 
C 2938 4467 3104 4736 3232 5011 
L 2886 5171 
z
M 429 4000 
L 429 3597 
L 1421 3597 
C 1203 3238 819 2918 269 2637 
L 506 2259 
C 1056 2592 1446 2982 1690 3430 
L 1690 2362 
L 2112 2362 
L 2112 3142 
C 2330 2982 2592 2765 2893 2490 
L 3130 2848 
C 2790 3085 2451 3296 2112 3482 
L 2112 3597 
L 3270 3597 
L 3270 4000 
L 2112 4000 
L 2112 5222 
L 1690 5222 
L 1690 4000 
L 429 4000 
z
" transform="scale(0.015625)"/>
      </defs>
      <use xlink:href="#PingFangHK-Regular-8bad"/>
      <use xlink:href="#PingFangHK-Regular-7ec3" transform="translate(99.999985 0)"/>
      <use xlink:href="#PingFangHK-Regular-6b65" transform="translate(199.999969 0)"/>
      <use xlink:href="#PingFangHK-Regular-6570" transform="translate(299.999954 0)"/>
     </g>
    </g>
   </g>
   <g id="matplotlib.axis_2">
    <g id="ytick_1">
     <g id="line2d_6">
      <defs>
       <path id="mc01fa8b4a4" d="M 0 0 
L -3.5 0 
" style="stroke: #000000; stroke-width: 0.8"/>
      </defs>
      <g>
       <use xlink:href="#mc01fa8b4a4" x="46.341875" y="188.338594" style="stroke: #000000; stroke-width: 0.8"/>
      </g>
     </g>
     <g id="text_7">
      <!-- 0.4 -->
      <g transform="translate(23.237188 192.342422) scale(0.11 -0.11)">
       <defs>
        <path id="PingFangHK-Regular-2e" d="M 845 762 
C 730 762 640 723 570 646 
C 493 570 454 480 454 365 
C 454 256 493 166 570 90 
C 640 13 730 -26 845 -26 
C 947 -26 1043 13 1120 90 
C 1197 166 1235 256 1235 365 
C 1235 480 1197 570 1120 646 
C 1043 723 947 762 845 762 
z
" transform="scale(0.015625)"/>
        <path id="PingFangHK-Regular-34" d="M 2458 4570 
L 154 1536 
L 154 1037 
L 2451 1037 
L 2451 0 
L 2950 0 
L 2950 1037 
L 3693 1037 
L 3693 1466 
L 2950 1466 
L 2950 4570 
L 2458 4570 
z
M 2432 3885 
L 2451 3885 
L 2451 1466 
L 595 1466 
L 2432 3885 
z
" transform="scale(0.015625)"/>
       </defs>
       <use xlink:href="#PingFangHK-Regular-30"/>
       <use xlink:href="#PingFangHK-Regular-2e" transform="translate(59.999985 0)"/>
       <use xlink:href="#PingFangHK-Regular-34" transform="translate(86.399979 0)"/>
      </g>
     </g>
    </g>
    <g id="ytick_2">
     <g id="line2d_7">
      <g>
       <use xlink:href="#mc01fa8b4a4" x="46.341875" y="160.726094" style="stroke: #000000; stroke-width: 0.8"/>
      </g>
     </g>
     <g id="text_8">
      <!-- 0.5 -->
      <g transform="translate(23.237188 164.729922) scale(0.11 -0.11)">
       <use xlink:href="#PingFangHK-Regular-30"/>
       <use xlink:href="#PingFangHK-Regular-2e" transform="translate(59.999985 0)"/>
       <use xlink:href="#PingFangHK-Regular-35" transform="translate(86.399979 0)"/>
      </g>
     </g>
    </g>
    <g id="ytick_3">
     <g id="line2d_8">
      <g>
       <use xlink:href="#mc01fa8b4a4" x="46.341875" y="133.113594" style="stroke: #000000; stroke-width: 0.8"/>
      </g>
     </g>
     <g id="text_9">
      <!-- 0.6 -->
      <g transform="translate(23.237188 137.117422) scale(0.11 -0.11)">
       <defs>
        <path id="PingFangHK-Regular-36" d="M 1984 4659 
C 1466 4659 1056 4422 755 3942 
C 467 3488 326 2893 326 2163 
C 326 1466 454 922 723 531 
C 1005 122 1421 -90 1978 -90 
C 2426 -90 2790 64 3085 358 
C 3373 653 3520 1030 3520 1478 
C 3520 1926 3386 2285 3123 2566 
C 2854 2848 2502 2989 2067 2989 
C 1798 2989 1562 2925 1357 2790 
C 1139 2662 979 2477 864 2240 
L 838 2240 
C 832 2323 832 2381 832 2406 
C 832 2925 928 3354 1133 3686 
C 1338 4045 1619 4218 1978 4218 
C 2509 4218 2822 3962 2925 3437 
L 3443 3437 
C 3315 4256 2829 4659 1984 4659 
z
M 1965 2554 
C 2278 2554 2528 2458 2720 2253 
C 2906 2061 3002 1805 3002 1478 
C 3002 1152 2906 883 2714 666 
C 2522 461 2272 352 1965 352 
C 1645 352 1395 461 1203 678 
C 1011 883 922 1146 922 1466 
C 922 1786 1018 2042 1216 2246 
C 1414 2451 1664 2554 1965 2554 
z
" transform="scale(0.015625)"/>
       </defs>
       <use xlink:href="#PingFangHK-Regular-30"/>
       <use xlink:href="#PingFangHK-Regular-2e" transform="translate(59.999985 0)"/>
       <use xlink:href="#PingFangHK-Regular-36" transform="translate(86.399979 0)"/>
      </g>
     </g>
    </g>
    <g id="ytick_4">
     <g id="line2d_9">
      <g>
       <use xlink:href="#mc01fa8b4a4" x="46.341875" y="105.501094" style="stroke: #000000; stroke-width: 0.8"/>
      </g>
     </g>
     <g id="text_10">
      <!-- 0.7 -->
      <g transform="translate(23.819844 109.504922) scale(0.11 -0.11)">
       <defs>
        <path id="PingFangHK-Regular-37" d="M 218 4570 
L 218 4090 
L 2682 4090 
L 979 0 
L 1536 0 
L 3219 4141 
L 3219 4570 
L 218 4570 
z
" transform="scale(0.015625)"/>
       </defs>
       <use xlink:href="#PingFangHK-Regular-30"/>
       <use xlink:href="#PingFangHK-Regular-2e" transform="translate(59.999985 0)"/>
       <use xlink:href="#PingFangHK-Regular-37" transform="translate(86.399979 0)"/>
      </g>
     </g>
    </g>
    <g id="ytick_5">
     <g id="line2d_10">
      <g>
       <use xlink:href="#mc01fa8b4a4" x="46.341875" y="77.888594" style="stroke: #000000; stroke-width: 0.8"/>
      </g>
     </g>
     <g id="text_11">
      <!-- 0.8 -->
      <g transform="translate(23.237188 81.892422) scale(0.11 -0.11)">
       <defs>
        <path id="PingFangHK-Regular-38" d="M 1920 4659 
C 1440 4659 1069 4538 800 4288 
C 550 4064 429 3782 429 3450 
C 429 3206 486 3002 602 2835 
C 723 2656 902 2522 1146 2438 
L 1146 2426 
C 902 2368 704 2234 538 2029 
C 358 1811 269 1555 269 1261 
C 269 858 410 531 691 288 
C 979 38 1389 -90 1920 -90 
C 2445 -90 2854 38 3149 288 
C 3430 531 3571 858 3571 1261 
C 3571 1555 3482 1811 3302 2029 
C 3136 2234 2931 2368 2694 2426 
L 2694 2438 
C 2931 2522 3110 2656 3238 2835 
C 3354 3002 3411 3206 3411 3450 
C 3411 3782 3283 4064 3040 4288 
C 2771 4538 2394 4659 1920 4659 
z
M 1920 4230 
C 2240 4230 2496 4147 2682 3981 
C 2835 3840 2918 3654 2918 3430 
C 2918 3200 2848 3008 2707 2867 
C 2534 2701 2272 2611 1920 2611 
C 1562 2611 1299 2701 1133 2867 
C 992 3008 922 3200 922 3430 
C 922 3654 998 3840 1158 3981 
C 1338 4147 1594 4230 1920 4230 
z
M 1920 2202 
C 2285 2202 2573 2112 2778 1926 
C 2957 1760 3053 1536 3053 1261 
C 3053 992 2957 774 2778 608 
C 2573 429 2291 339 1920 339 
C 1549 339 1261 429 1069 602 
C 877 768 787 992 787 1261 
C 787 1536 877 1760 1069 1926 
C 1267 2112 1549 2202 1920 2202 
z
" transform="scale(0.015625)"/>
       </defs>
       <use xlink:href="#PingFangHK-Regular-30"/>
       <use xlink:href="#PingFangHK-Regular-2e" transform="translate(59.999985 0)"/>
       <use xlink:href="#PingFangHK-Regular-38" transform="translate(86.399979 0)"/>
      </g>
     </g>
    </g>
    <g id="ytick_6">
     <g id="line2d_11">
      <g>
       <use xlink:href="#mc01fa8b4a4" x="46.341875" y="50.276094" style="stroke: #000000; stroke-width: 0.8"/>
      </g>
     </g>
     <g id="text_12">
      <!-- 0.9 -->
      <g transform="translate(23.237188 54.279922) scale(0.11 -0.11)">
       <defs>
        <path id="PingFangHK-Regular-39" d="M 1869 4659 
C 1421 4659 1050 4512 762 4211 
C 467 3917 326 3546 326 3091 
C 326 2650 454 2291 717 2016 
C 986 1728 1338 1581 1779 1581 
C 2048 1581 2285 1651 2490 1779 
C 2701 1914 2867 2099 2982 2330 
L 3008 2330 
C 3008 2253 3014 2195 3014 2163 
C 3014 1651 2912 1222 2714 883 
C 2502 531 2221 352 1869 352 
C 1331 352 1018 614 922 1133 
L 403 1133 
C 525 320 1011 -90 1862 -90 
C 2374 -90 2784 154 3091 627 
C 3373 1088 3520 1677 3520 2406 
C 3520 3110 3386 3661 3117 4045 
C 2835 4454 2419 4659 1869 4659 
z
M 1882 4218 
C 2195 4218 2451 4109 2643 3891 
C 2829 3686 2925 3424 2925 3104 
C 2925 2790 2822 2528 2630 2323 
C 2426 2118 2176 2016 1882 2016 
C 1562 2016 1312 2118 1126 2317 
C 934 2509 845 2771 845 3091 
C 845 3424 934 3693 1126 3904 
C 1318 4115 1568 4218 1882 4218 
z
" transform="scale(0.015625)"/>
       </defs>
       <use xlink:href="#PingFangHK-Regular-30"/>
       <use xlink:href="#PingFangHK-Regular-2e" transform="translate(59.999985 0)"/>
       <use xlink:href="#PingFangHK-Regular-39" transform="translate(86.399979 0)"/>
      </g>
     </g>
    </g>
    <g id="ytick_7">
     <g id="line2d_12">
      <g>
       <use xlink:href="#mc01fa8b4a4" x="46.341875" y="22.663594" style="stroke: #000000; stroke-width: 0.8"/>
      </g>
     </g>
     <g id="text_13">
      <!-- 1.0 -->
      <g transform="translate(25.426875 26.667422) scale(0.11 -0.11)">
       <use xlink:href="#PingFangHK-Regular-31"/>
       <use xlink:href="#PingFangHK-Regular-2e" transform="translate(40.099991 0)"/>
       <use xlink:href="#PingFangHK-Regular-30" transform="translate(66.499985 0)"/>
      </g>
     </g>
    </g>
    <g id="text_14">
     <!-- Accuracy -->
     <g style="fill: #16a34a" transform="translate(16.663594 140.212031) rotate(-90) scale(0.13 -0.13)">
      <defs>
       <path id="PingFangHK-Regular-41" d="M 1798 4570 
L 0 0 
L 563 0 
L 1050 1280 
L 3149 1280 
L 3635 0 
L 4205 0 
L 2406 4570 
L 1798 4570 
z
M 1216 1722 
L 2093 4006 
L 2118 4006 
L 2982 1722 
L 1216 1722 
z
" transform="scale(0.015625)"/>
       <path id="PingFangHK-Regular-63" d="M 1824 3398 
C 1331 3398 941 3226 659 2874 
C 397 2554 269 2144 269 1638 
C 269 1133 397 723 659 410 
C 934 77 1318 -90 1818 -90 
C 2227 -90 2554 19 2803 230 
C 3059 448 3219 774 3296 1197 
L 2784 1197 
C 2707 627 2381 339 1818 339 
C 1485 339 1229 461 1056 691 
C 877 922 794 1242 794 1645 
C 794 2048 883 2368 1062 2605 
C 1248 2848 1504 2970 1824 2970 
C 2086 2970 2298 2912 2464 2784 
C 2624 2656 2726 2464 2771 2208 
L 3277 2208 
C 3219 2611 3066 2912 2810 3110 
C 2560 3302 2234 3398 1824 3398 
z
" transform="scale(0.015625)"/>
       <path id="PingFangHK-Regular-75" d="M 397 3309 
L 397 1261 
C 397 365 794 -90 1600 -90 
C 2048 -90 2406 115 2675 512 
L 2675 0 
L 3187 0 
L 3187 3309 
L 2675 3309 
L 2675 1293 
C 2637 1011 2528 781 2349 602 
C 2176 435 1978 346 1760 346 
C 1459 346 1242 429 1107 582 
C 973 736 909 973 909 1286 
L 909 3309 
L 397 3309 
z
" transform="scale(0.015625)"/>
       <path id="PingFangHK-Regular-72" d="M 1850 3398 
C 1619 3398 1421 3328 1248 3187 
C 1107 3078 992 2925 902 2733 
L 902 3309 
L 397 3309 
L 397 0 
L 902 0 
L 902 1754 
C 902 2061 986 2323 1165 2541 
C 1338 2771 1555 2880 1811 2880 
C 1971 2880 2138 2861 2304 2810 
L 2304 3322 
C 2182 3373 2029 3398 1850 3398 
z
" transform="scale(0.015625)"/>
       <path id="PingFangHK-Regular-61" d="M 1837 3398 
C 1440 3398 1126 3322 883 3168 
C 614 3002 442 2739 371 2394 
L 877 2355 
C 928 2566 1037 2726 1210 2829 
C 1363 2931 1562 2976 1805 2976 
C 2381 2976 2669 2701 2669 2144 
L 2669 1971 
L 1875 1958 
C 1376 1952 992 1856 723 1677 
C 416 1485 269 1203 269 826 
C 269 557 371 333 576 160 
C 774 -6 1037 -90 1370 -90 
C 1677 -90 1952 -19 2195 115 
C 2400 230 2573 378 2701 557 
L 2701 0 
L 3181 0 
L 3181 2125 
C 3181 2509 3078 2810 2886 3027 
C 2656 3277 2310 3398 1837 3398 
z
M 2669 1587 
L 2669 1306 
C 2669 1050 2547 819 2310 621 
C 2067 416 1792 314 1478 314 
C 1274 314 1107 365 979 461 
C 851 563 794 685 794 838 
C 794 1318 1165 1562 1907 1574 
L 2669 1587 
z
" transform="scale(0.015625)"/>
       <path id="PingFangHK-Regular-79" d="M 32 3309 
L 1344 77 
L 774 -1267 
L 1331 -1267 
L 3142 3309 
L 2579 3309 
L 1600 698 
L 589 3309 
L 32 3309 
z
" transform="scale(0.015625)"/>
      </defs>
      <use xlink:href="#PingFangHK-Regular-41"/>
      <use xlink:href="#PingFangHK-Regular-63" transform="translate(65.699997 0)"/>
      <use xlink:href="#PingFangHK-Regular-63" transform="translate(120.399994 0)"/>
      <use xlink:href="#PingFangHK-Regular-75" transform="translate(175.099991 0)"/>
      <use xlink:href="#PingFangHK-Regular-72" transform="translate(231.099976 0)"/>
      <use xlink:href="#PingFangHK-Regular-61" transform="translate(267.59996 0)"/>
      <use xlink:href="#PingFangHK-Regular-63" transform="translate(323.499954 0)"/>
      <use xlink:href="#PingFangHK-Regular-79" transform="translate(378.199951 0)"/>
     </g>
    </g>
   </g>
   <g id="line2d_13">
    <path d="M 59.808239 162.176452 
L 61.161642 160.273519 
L 62.515045 158.733371 
L 63.868449 155.458369 
L 65.221852 153.995273 
L 67.928659 150.592056 
L 69.282062 148.272701 
L 71.988869 144.980693 
L 73.342272 144.311141 
L 74.695676 141.980687 
L 76.049079 140.565814 
L 77.402483 140.02525 
L 78.755886 136.770731 
L 80.109289 134.222571 
L 82.816096 131.630952 
L 84.169499 128.390905 
L 85.522903 126.901811 
L 88.22971 124.645579 
L 89.583113 122.98002 
L 90.936516 122.178952 
L 92.28992 122.744411 
L 93.643323 120.909587 
L 94.996727 119.658518 
L 96.35013 120.079505 
L 97.703533 120.619334 
L 100.41034 119.72309 
L 101.763743 118.858206 
L 103.117147 115.625748 
L 104.47055 113.740283 
L 105.823954 110.276154 
L 107.177357 109.9972 
L 108.53076 110.604642 
L 109.884164 110.657945 
L 111.237567 109.490873 
L 112.59097 109.647324 
L 113.944374 109.175175 
L 115.297777 107.194301 
L 116.651181 107.127112 
L 119.357987 104.931136 
L 120.711391 103.336092 
L 122.064794 102.784887 
L 123.418198 101.804526 
L 124.771601 101.486614 
L 126.125004 100.307674 
L 127.478408 99.563217 
L 128.831811 98.12763 
L 130.185214 97.02965 
L 131.538618 96.779442 
L 132.892021 96.762333 
L 134.245425 96.086998 
L 135.598828 96.092416 
L 136.952231 95.851739 
L 138.305635 93.353356 
L 141.012441 91.730556 
L 142.365845 90.586194 
L 143.719248 89.242485 
L 145.072652 90.077767 
L 146.426055 89.091889 
L 147.779458 87.534684 
L 149.132862 87.447108 
L 150.486265 87.183682 
L 151.839669 86.65912 
L 153.193072 88.041206 
L 154.546475 89.006737 
L 155.899879 87.218403 
L 157.253282 85.225216 
L 158.606685 84.695807 
L 159.960089 82.285206 
L 162.666896 78.960973 
L 164.020299 78.832561 
L 165.373702 78.284209 
L 166.727106 78.839793 
L 168.080509 79.659114 
L 169.433912 81.121172 
L 170.787316 81.928778 
L 172.140719 82.358735 
L 173.494123 81.733814 
L 174.847526 80.973292 
L 178.907736 76.772946 
L 180.26114 74.979699 
L 181.614543 73.834531 
L 182.967946 75.152946 
L 185.674753 73.644268 
L 187.028156 74.961457 
L 188.38156 74.794173 
L 189.734963 74.465128 
L 191.088367 76.058378 
L 192.44177 75.475163 
L 193.795173 73.201662 
L 195.148577 73.687329 
L 196.50198 72.424571 
L 197.855383 71.635484 
L 199.208787 72.273614 
L 200.56219 73.638422 
L 201.915594 72.996246 
L 203.268997 73.054395 
L 204.6224 72.896153 
L 205.975804 72.121326 
L 208.68261 70.816781 
L 210.036014 71.191941 
L 211.389417 70.769669 
L 214.096224 69.588901 
L 215.449627 69.837891 
L 216.803031 68.934427 
L 218.156434 67.822276 
L 219.509838 69.201346 
L 220.863241 68.949441 
L 223.570048 67.992776 
L 224.923451 68.784517 
L 226.276854 68.666065 
L 227.630258 69.900205 
L 228.983661 69.228349 
L 231.690468 69.136792 
L 233.043871 67.327192 
L 235.750678 67.05487 
L 237.104081 67.849222 
L 238.457485 67.504814 
L 239.810888 67.722668 
L 241.164292 67.020947 
L 242.517695 67.064221 
L 243.871098 65.430023 
L 245.224502 65.21851 
L 246.577905 64.537147 
L 247.931309 64.559483 
L 249.284712 63.800197 
L 250.638115 63.361136 
L 251.991519 64.468871 
L 253.344922 65.405508 
L 254.698325 64.131738 
L 256.051729 64.477256 
L 257.405132 65.048983 
L 258.758536 63.676099 
L 260.111939 62.957838 
L 261.465342 63.313025 
L 262.818746 62.276498 
L 264.172149 62.228056 
L 265.525552 61.480515 
L 268.232359 61.790289 
L 269.585763 62.733778 
L 270.939166 62.526011 
L 272.292569 62.91581 
L 273.645973 62.339922 
L 274.999376 60.532493 
L 276.35278 59.561561 
L 277.706183 59.933947 
L 279.059586 58.755718 
L 280.41299 59.116825 
L 281.766393 61.743309 
L 283.119796 62.890889 
L 285.826603 64.753253 
L 287.180007 64.377982 
L 288.53341 61.82536 
L 289.886813 60.851289 
L 291.240217 59.668948 
L 292.59362 58.800155 
L 293.947023 60.193019 
L 295.300427 61.064701 
L 296.65383 60.688836 
L 298.007234 61.443287 
L 299.360637 61.156189 
L 300.71404 59.389173 
L 302.067444 59.744532 
L 303.420847 59.761402 
L 304.774251 57.203448 
L 306.127654 57.768892 
L 308.834461 57.717756 
L 311.541267 59.519606 
L 312.894671 60.141653 
L 315.601478 60.142743 
L 316.954881 59.199788 
L 318.308284 59.467702 
L 319.661688 58.152659 
L 321.015091 58.479008 
L 322.368494 58.283298 
L 323.721898 59.192367 
L 326.428705 60.034535 
L 327.782108 59.642565 
L 329.135511 59.4107 
L 329.135511 59.4107 
" clip-path="url(#p9d2da05940)" style="fill: none; stroke: #16a34a; stroke-opacity: 0.9; stroke-width: 1.8; stroke-linecap: square"/>
   </g>
   <g id="line2d_14">
    <path d="M 46.341875 160.726094 
L 342.601875 160.726094 
" clip-path="url(#p9d2da05940)" style="fill: none; stroke-dasharray: 2.96,1.28; stroke-dashoffset: 0; stroke: #d1d5db; stroke-width: 0.8"/>
   </g>
   <g id="patch_3">
    <path d="M 46.341875 202.144844 
L 46.341875 22.663594 
" style="fill: none; stroke: #000000; stroke-width: 0.8; stroke-linejoin: miter; stroke-linecap: square"/>
   </g>
   <g id="patch_4">
    <path d="M 46.341875 202.144844 
L 342.601875 202.144844 
" style="fill: none; stroke: #000000; stroke-width: 0.8; stroke-linejoin: miter; stroke-linecap: square"/>
   </g>
   <g id="text_15">
    <!-- 0.5（随机猜测水平） -->
    <g style="fill: #9ca3af" transform="translate(66.575256 180.054844) scale(0.09 -0.09)">
     <defs>
      <path id="PingFangHK-Regular-ff08" d="M 5440 5293 
C 5158 4883 4941 4442 4781 3974 
C 4589 3424 4499 2867 4499 2298 
C 4499 1741 4589 1184 4781 634 
C 4941 173 5158 -269 5440 -685 
L 5888 -685 
C 5632 -256 5427 186 5280 640 
C 5088 1203 4998 1760 4998 2304 
C 4998 2854 5088 3405 5280 3968 
C 5427 4429 5632 4870 5888 5293 
L 5440 5293 
z
" transform="scale(0.015625)"/>
      <path id="PingFangHK-Regular-968f" d="M 525 4986 
L 525 -582 
L 947 -582 
L 947 4570 
L 1690 4570 
C 1600 4070 1466 3507 1293 2886 
C 1574 2394 1722 1952 1722 1562 
C 1722 1414 1696 1312 1658 1248 
C 1606 1190 1536 1158 1434 1146 
C 1344 1146 1229 1152 1088 1165 
L 1222 736 
C 1581 742 1837 819 1984 973 
C 2086 1088 2138 1280 2138 1562 
C 2125 1952 1978 2413 1709 2950 
C 1869 3539 2003 4096 2112 4634 
L 2112 4986 
L 525 4986 
z
M 2682 5114 
L 2387 4832 
C 2714 4525 2976 4230 3168 3949 
L 3456 4237 
C 3245 4531 2989 4826 2682 5114 
z
M 2176 3616 
L 2176 3219 
L 2912 3219 
C 2771 2861 2592 2490 2387 2112 
L 2387 1786 
L 3104 1786 
C 3008 1344 2880 947 2720 602 
C 2464 550 2189 262 1901 -250 
L 2195 -518 
C 2470 -45 2682 186 2829 186 
C 2867 186 2912 166 2957 122 
C 3123 -83 3309 -237 3514 -339 
C 3693 -429 3949 -480 4294 -493 
C 4582 -506 4915 -512 5286 -512 
L 6061 -512 
L 6157 -77 
C 5773 -96 5466 -109 5229 -109 
L 4307 -109 
C 4019 -96 3795 -58 3642 13 
C 3482 102 3322 237 3168 416 
C 3136 448 3104 474 3078 499 
C 3251 851 3398 1306 3514 1862 
L 3514 2150 
L 2835 2150 
C 3021 2522 3187 2893 3334 3277 
L 3334 3616 
L 2176 3616 
z
M 3667 4563 
L 3667 4147 
L 4307 4147 
C 4096 3597 3795 3136 3405 2771 
L 3648 2458 
C 3763 2560 3878 2675 3994 2803 
L 3994 250 
L 4378 250 
L 4378 1363 
L 5402 1363 
L 5402 870 
C 5402 717 5344 634 5235 634 
C 5120 634 4992 646 4858 659 
L 4954 282 
L 5357 282 
C 5651 294 5798 448 5798 742 
L 5798 3533 
L 4467 3533 
C 4557 3718 4646 3923 4730 4147 
L 6061 4147 
L 6061 4563 
L 4864 4563 
C 4915 4755 4966 4954 5011 5165 
L 4582 5216 
C 4544 4992 4499 4774 4442 4563 
L 3667 4563 
z
M 4378 2253 
L 5402 2253 
L 5402 1722 
L 4378 1722 
L 4378 2253 
z
M 5402 2611 
L 4378 2611 
L 4378 3174 
L 5402 3174 
L 5402 2611 
z
" transform="scale(0.015625)"/>
      <path id="PingFangHK-Regular-673a" d="M 371 3974 
L 371 3533 
L 1306 3533 
C 1094 2733 742 2022 250 1402 
L 448 902 
C 806 1427 1101 2003 1325 2643 
L 1325 -608 
L 1786 -608 
L 1786 2765 
C 1965 2515 2176 2189 2419 1786 
L 2688 2182 
C 2381 2560 2080 2899 1786 3206 
L 1786 3533 
L 2579 3533 
L 2579 3974 
L 1786 3974 
L 1786 5222 
L 1325 5222 
L 1325 3974 
L 371 3974 
z
M 2278 -326 
L 2656 -666 
C 2957 -205 3162 269 3270 768 
C 3386 1242 3443 1830 3443 2534 
L 3443 4525 
L 4582 4525 
L 4582 70 
C 4582 -301 4787 -486 5197 -486 
L 5459 -486 
C 5664 -486 5818 -448 5920 -378 
C 6022 -288 6086 -134 6112 96 
C 6138 339 6157 685 6157 1146 
L 5734 1280 
C 5734 666 5715 301 5690 173 
C 5677 83 5645 26 5594 -13 
C 5549 -38 5491 -51 5414 -51 
L 5197 -51 
C 5094 -51 5050 6 5050 115 
L 5050 4960 
L 2982 4960 
L 2982 2534 
C 2982 1875 2938 1350 2854 960 
C 2746 506 2554 77 2278 -326 
z
" transform="scale(0.015625)"/>
      <path id="PingFangHK-Regular-731c" d="M 3968 5229 
L 3968 4826 
L 2528 4826 
L 2528 4442 
L 3968 4442 
L 3968 4019 
L 2688 4019 
L 2688 3648 
L 3968 3648 
L 3968 3213 
L 2310 3213 
L 2310 2829 
L 6106 2829 
L 6106 3213 
L 4410 3213 
L 4410 3648 
L 5728 3648 
L 5728 4019 
L 4410 4019 
L 4410 4442 
L 5939 4442 
L 5939 4826 
L 4410 4826 
L 4410 5229 
L 3968 5229 
z
M 3194 1203 
L 5216 1203 
L 5216 749 
L 3194 749 
L 3194 1203 
z
M 5216 1562 
L 3194 1562 
L 3194 2042 
L 5216 2042 
L 5216 1562 
z
M 3194 397 
L 5216 397 
L 5216 26 
C 5216 -128 5146 -211 5005 -211 
L 4480 -192 
L 4595 -602 
L 5133 -602 
C 5478 -602 5658 -422 5658 -70 
L 5658 2426 
L 2758 2426 
L 2758 -640 
L 3194 -640 
L 3194 397 
z
M 698 -563 
C 806 -563 947 -570 1126 -570 
C 1402 -570 1613 -512 1760 -403 
C 2016 -186 2144 442 2144 1478 
C 2131 2413 2029 3130 1843 3629 
C 1798 3744 1747 3853 1690 3962 
C 1907 4230 2131 4563 2362 4960 
L 1978 5197 
C 1811 4896 1638 4621 1446 4365 
C 1280 4602 1082 4838 851 5069 
L 486 4787 
C 742 4557 966 4307 1146 4026 
C 890 3770 614 3552 307 3379 
L 550 2982 
C 858 3200 1126 3411 1363 3629 
C 1389 3565 1421 3501 1446 3437 
C 1510 3258 1568 3040 1606 2784 
C 1299 2246 864 1786 301 1402 
L 563 1011 
C 986 1325 1357 1715 1677 2182 
C 1690 1978 1702 1747 1702 1504 
C 1702 640 1619 122 1459 -45 
C 1389 -122 1242 -160 1024 -160 
C 877 -160 723 -147 570 -134 
L 698 -563 
z
" transform="scale(0.015625)"/>
      <path id="PingFangHK-Regular-6d4b" d="M 691 5094 
L 378 4794 
C 768 4493 1075 4205 1293 3936 
L 1594 4243 
C 1350 4525 1050 4813 691 5094 
z
M 589 3520 
L 275 3226 
C 653 2899 947 2592 1165 2304 
L 1466 2605 
C 1229 2912 934 3213 589 3520 
z
M 1152 1798 
C 909 1056 627 326 307 -384 
L 730 -563 
C 1024 128 1299 864 1542 1645 
L 1152 1798 
z
M 3994 4915 
L 1850 4915 
L 1850 973 
L 2259 973 
L 2259 4518 
L 3584 4518 
L 3584 1011 
L 3994 1011 
L 3994 4915 
z
M 3309 710 
L 3027 442 
C 3437 58 3750 -301 3981 -640 
L 4288 -333 
C 4026 13 3699 365 3309 710 
z
M 2733 4077 
L 2733 2048 
C 2720 1453 2624 973 2458 602 
C 2278 243 1958 -45 1498 -262 
L 1741 -646 
C 2214 -416 2560 -96 2771 301 
C 2989 736 3104 1318 3117 2048 
L 3117 4077 
L 2733 4077 
z
M 5376 -589 
C 5709 -589 5882 -403 5882 -45 
L 5882 5190 
L 5446 5190 
L 5446 64 
C 5446 -102 5370 -192 5222 -192 
C 5018 -192 4800 -179 4576 -160 
L 4672 -589 
L 5376 -589 
z
M 4499 4666 
L 4499 672 
L 4902 672 
L 4902 4666 
L 4499 4666 
z
" transform="scale(0.015625)"/>
      <path id="PingFangHK-Regular-6c34" d="M 435 3603 
L 435 3155 
L 2061 3155 
C 1728 1965 1126 1043 250 397 
L 544 19 
C 1530 749 2182 1824 2515 3238 
L 2515 3603 
L 435 3603 
z
M 5389 4218 
C 4966 3667 4499 3174 3981 2746 
C 3789 3104 3622 3488 3488 3898 
L 3488 5254 
L 3014 5254 
L 3014 102 
C 3014 -90 2925 -192 2758 -192 
C 2515 -192 2253 -179 1984 -160 
L 2080 -614 
L 2918 -614 
C 3296 -614 3488 -410 3488 -13 
L 3488 2899 
C 3962 1786 4762 800 5875 -58 
L 6157 358 
C 5350 896 4691 1568 4192 2381 
C 4736 2803 5261 3328 5760 3942 
L 5389 4218 
z
" transform="scale(0.015625)"/>
      <path id="PingFangHK-Regular-5e73" d="M 621 4941 
L 621 4493 
L 2938 4493 
L 2938 2074 
L 365 2074 
L 365 1632 
L 2938 1632 
L 2938 -634 
L 3411 -634 
L 3411 1632 
L 6035 1632 
L 6035 2074 
L 3411 2074 
L 3411 4493 
L 5792 4493 
L 5792 4941 
L 621 4941 
z
M 1402 4083 
L 973 3872 
C 1216 3443 1446 2957 1664 2406 
L 2093 2618 
C 1875 3149 1645 3635 1402 4083 
z
M 5030 4115 
C 4845 3629 4595 3142 4282 2643 
L 4691 2432 
C 5005 2918 5261 3411 5453 3917 
L 5030 4115 
z
" transform="scale(0.015625)"/>
      <path id="PingFangHK-Regular-ff09" d="M 512 5293 
C 768 4870 966 4429 1120 3968 
C 1306 3405 1402 2854 1402 2304 
C 1402 1760 1306 1203 1120 640 
C 966 186 768 -256 512 -685 
L 960 -685 
C 1235 -269 1453 173 1619 634 
C 1805 1184 1901 1741 1901 2298 
C 1901 2867 1805 3424 1619 3974 
C 1453 4442 1235 4883 960 5293 
L 512 5293 
z
" transform="scale(0.015625)"/>
     </defs>
     <use xlink:href="#PingFangHK-Regular-30"/>
     <use xlink:href="#PingFangHK-Regular-2e" transform="translate(59.999985 0)"/>
     <use xlink:href="#PingFangHK-Regular-35" transform="translate(86.399979 0)"/>
     <use xlink:href="#PingFangHK-Regular-ff08" transform="translate(146.399963 0)"/>
     <use xlink:href="#PingFangHK-Regular-968f" transform="translate(246.399948 0)"/>
     <use xlink:href="#PingFangHK-Regular-673a" transform="translate(346.399933 0)"/>
     <use xlink:href="#PingFangHK-Regular-731c" transform="translate(446.399918 0)"/>
     <use xlink:href="#PingFangHK-Regular-6d4b" transform="translate(546.399902 0)"/>
     <use xlink:href="#PingFangHK-Regular-6c34" transform="translate(646.399887 0)"/>
     <use xlink:href="#PingFangHK-Regular-5e73" transform="translate(746.399872 0)"/>
     <use xlink:href="#PingFangHK-Regular-ff09" transform="translate(846.399857 0)"/>
    </g>
   </g>
   <g id="text_16">
    <!-- Reward Accuracy -->
    <g transform="translate(141.776172 16.663594) scale(0.13 -0.13)">
     <defs>
      <path id="PingFangHK-Regular-52" d="M 461 4570 
L 461 0 
L 986 0 
L 986 1965 
L 2368 1965 
C 2656 1965 2874 1914 3027 1798 
C 3194 1683 3290 1485 3315 1216 
L 3373 608 
C 3392 352 3456 154 3558 0 
L 4128 0 
C 3994 166 3910 390 3885 672 
L 3814 1376 
C 3763 1837 3520 2112 3085 2208 
L 3085 2221 
C 3347 2285 3552 2413 3706 2618 
C 3846 2816 3917 3040 3917 3296 
C 3917 3718 3776 4038 3507 4256 
C 3245 4467 2886 4570 2432 4570 
L 461 4570 
z
M 986 4115 
L 2368 4115 
C 2720 4115 2982 4045 3149 3904 
C 3302 3770 3386 3558 3386 3277 
C 3386 3008 3302 2803 3142 2656 
C 2963 2502 2701 2419 2368 2419 
L 986 2419 
L 986 4115 
z
" transform="scale(0.015625)"/>
      <path id="PingFangHK-Regular-65" d="M 1760 3398 
C 1280 3398 902 3226 621 2880 
C 339 2554 205 2144 205 1658 
C 205 1120 346 698 640 378 
C 922 70 1306 -90 1779 -90 
C 2208 -90 2560 38 2835 282 
C 3059 486 3206 742 3283 1062 
L 2771 1062 
C 2688 832 2579 659 2438 544 
C 2272 410 2048 339 1779 339 
C 1466 339 1216 442 1037 646 
C 858 851 762 1139 736 1510 
L 3347 1510 
C 3334 2086 3206 2541 2963 2861 
C 2694 3219 2291 3398 1760 3398 
z
M 1773 2970 
C 2400 2970 2752 2618 2816 1907 
L 749 1907 
C 781 2234 883 2490 1062 2682 
C 1242 2874 1478 2970 1773 2970 
z
" transform="scale(0.015625)"/>
      <path id="PingFangHK-Regular-77" d="M 32 3309 
L 1158 0 
L 1638 0 
L 2419 2662 
L 3187 0 
L 3674 0 
L 4800 3309 
L 4237 3309 
L 3424 627 
L 2656 3309 
L 2176 3309 
L 1408 627 
L 595 3309 
L 32 3309 
z
" transform="scale(0.015625)"/>
      <path id="PingFangHK-Regular-64" d="M 2842 4659 
L 2842 2701 
C 2586 3168 2221 3398 1747 3398 
C 1274 3398 909 3226 640 2867 
C 390 2547 269 2150 269 1664 
C 269 1165 390 755 640 435 
C 909 90 1286 -90 1773 -90 
C 2272 -90 2643 122 2874 544 
L 2874 0 
L 3354 0 
L 3354 4659 
L 2842 4659 
z
M 1856 2976 
C 2150 2976 2394 2861 2579 2618 
C 2758 2381 2854 2067 2854 1683 
L 2854 1619 
C 2854 1248 2771 947 2611 717 
C 2426 461 2170 333 1837 333 
C 1478 333 1210 467 1030 723 
C 870 954 794 1267 794 1664 
C 794 2061 870 2368 1037 2592 
C 1216 2848 1491 2976 1856 2976 
z
" transform="scale(0.015625)"/>
      <path id="PingFangHK-Regular-20" transform="scale(0.015625)"/>
     </defs>
     <use xlink:href="#PingFangHK-Regular-52"/>
     <use xlink:href="#PingFangHK-Regular-65" transform="translate(67.599991 0)"/>
     <use xlink:href="#PingFangHK-Regular-77" transform="translate(123.099976 0)"/>
     <use xlink:href="#PingFangHK-Regular-61" transform="translate(198.59996 0)"/>
     <use xlink:href="#PingFangHK-Regular-72" transform="translate(254.499954 0)"/>
     <use xlink:href="#PingFangHK-Regular-64" transform="translate(290.999939 0)"/>
     <use xlink:href="#PingFangHK-Regular-20" transform="translate(349.59993 0)"/>
     <use xlink:href="#PingFangHK-Regular-41" transform="translate(382.899918 0)"/>
     <use xlink:href="#PingFangHK-Regular-63" transform="translate(448.599915 0)"/>
     <use xlink:href="#PingFangHK-Regular-63" transform="translate(503.299911 0)"/>
     <use xlink:href="#PingFangHK-Regular-75" transform="translate(557.999908 0)"/>
     <use xlink:href="#PingFangHK-Regular-72" transform="translate(613.999893 0)"/>
     <use xlink:href="#PingFangHK-Regular-61" transform="translate(650.499878 0)"/>
     <use xlink:href="#PingFangHK-Regular-63" transform="translate(706.399872 0)"/>
     <use xlink:href="#PingFangHK-Regular-79" transform="translate(761.099869 0)"/>
    </g>
   </g>
  </g>
 </g>
 <defs>
  <clipPath id="p9d2da05940">
   <rect x="46.341875" y="22.663594" width="296.26" height="179.48125"/>
  </clipPath>
 </defs>
</svg>
