<?xml version="1.0" encoding="utf-8" standalone="no"?>
<!DOCTYPE svg PUBLIC "-//W3C//DTD SVG 1.1//EN"
  "http://www.w3.org/Graphics/SVG/1.1/DTD/svg11.dtd">
<svg xmlns:xlink="http://www.w3.org/1999/xlink" width="499.818036pt" height="297.542656pt" viewBox="0 0 499.818036 297.542656" xmlns="http://www.w3.org/2000/svg" version="1.1">
 <metadata>
  <rdf:RDF xmlns:dc="http://purl.org/dc/elements/1.1/" xmlns:cc="http://creativecommons.org/ns#" xmlns:rdf="http://www.w3.org/1999/02/22-rdf-syntax-ns#">
   <cc:Work>
    <dc:type rdf:resource="http://purl.org/dc/dcmitype/StillImage"/>
    <dc:date>2026-04-17T10:37:39.530506</dc:date>
    <dc:format>image/svg+xml</dc:format>
    <dc:creator>
     <cc:Agent>
      <dc:title>Matplotlib v3.10.8, https://matplotlib.org/</dc:title>
     </cc:Agent>
    </dc:creator>
   </cc:Work>
  </rdf:RDF>
 </metadata>
 <defs>
  <style type="text/css">*{stroke-linejoin: round; stroke-linecap: butt}</style>
 </defs>
 <g id="figure_1">
  <g id="patch_1">
   <path d="M 0 297.542656 
L 499.818036 297.542656 
L 499.818036 0 
L 0 0 
z
" style="fill: #ffffff"/>
  </g>
  <g id="axes_1">
   <g id="patch_2">
    <path d="M 69.76875 252.567813 
L 412.793036 252.567813 
L 412.793036 15.167812 
L 69.76875 15.167812 
z
" style="fill: #ffffff"/>
   </g>
   <g id="matplotlib.axis_1">
    <g id="xtick_1">
     <g id="line2d_1">
      <defs>
       <path id="m0bc9f95ad4" d="M 0 0 
L 0 3.5 
" style="stroke: #000000; stroke-width: 0.8"/>
      </defs>
      <g>
       <use xlink:href="#m0bc9f95ad4" x="126.939464" y="252.567813" style="stroke: #000000; stroke-width: 0.8"/>
      </g>
     </g>
     <g id="text_1">
      <!-- -4 -->
      <g transform="translate(119.709464 268.303437) scale(0.12 -0.12)">
       <defs>
        <path id="PingFangHK-Regular-2d" d="M 320 1875 
L 320 1440 
L 3552 1440 
L 3552 1875 
L 320 1875 
z
" transform="scale(0.015625)"/>
        <path id="PingFangHK-Regular-34" d="M 2458 4570 
L 154 1536 
L 154 1037 
L 2451 1037 
L 2451 0 
L 2950 0 
L 2950 1037 
L 3693 1037 
L 3693 1466 
L 2950 1466 
L 2950 4570 
L 2458 4570 
z
M 2432 3885 
L 2451 3885 
L 2451 1466 
L 595 1466 
L 2432 3885 
z
" transform="scale(0.015625)"/>
       </defs>
       <use xlink:href="#PingFangHK-Regular-2d"/>
       <use xlink:href="#PingFangHK-Regular-34" transform="translate(60.499985 0)"/>
      </g>
     </g>
    </g>
    <g id="xtick_2">
     <g id="line2d_2">
      <g>
       <use xlink:href="#m0bc9f95ad4" x="184.110179" y="252.567813" style="stroke: #000000; stroke-width: 0.8"/>
      </g>
     </g>
     <g id="text_2">
      <!-- -2 -->
      <g transform="translate(176.880179 268.303437) scale(0.12 -0.12)">
       <defs>
        <path id="PingFangHK-Regular-32" d="M 1984 4659 
C 1523 4659 1146 4506 864 4198 
C 582 3898 435 3488 435 2976 
L 960 2976 
C 966 3379 1062 3686 1242 3891 
C 1408 4109 1651 4211 1965 4211 
C 2259 4211 2496 4134 2662 3981 
C 2829 3827 2912 3616 2912 3334 
C 2912 3040 2790 2765 2560 2515 
C 2438 2387 2202 2202 1843 1946 
C 1357 1613 1030 1338 851 1133 
C 544 794 397 416 397 0 
L 3443 0 
L 3443 467 
L 1043 467 
C 1126 774 1459 1126 2042 1517 
C 2515 1837 2829 2086 2989 2253 
C 3283 2573 3437 2931 3437 3328 
C 3437 3725 3296 4051 3027 4294 
C 2752 4538 2406 4659 1984 4659 
z
" transform="scale(0.015625)"/>
       </defs>
       <use xlink:href="#PingFangHK-Regular-2d"/>
       <use xlink:href="#PingFangHK-Regular-32" transform="translate(60.499985 0)"/>
      </g>
     </g>
    </g>
    <g id="xtick_3">
     <g id="line2d_3">
      <g>
       <use xlink:href="#m0bc9f95ad4" x="241.280893" y="252.567813" style="stroke: #000000; stroke-width: 0.8"/>
      </g>
     </g>
     <g id="text_3">
      <!-- 0 -->
      <g transform="translate(237.680893 268.303437) scale(0.12 -0.12)">
       <defs>
        <path id="PingFangHK-Regular-30" d="M 1920 4659 
C 1370 4659 960 4422 685 3936 
C 442 3526 320 2976 320 2285 
C 320 1594 442 1043 685 634 
C 960 154 1370 -90 1920 -90 
C 2464 -90 2874 154 3155 634 
C 3398 1043 3520 1594 3520 2285 
C 3520 2976 3398 3526 3155 3936 
C 2874 4422 2464 4659 1920 4659 
z
M 1920 4211 
C 2330 4211 2624 3994 2803 3552 
C 2931 3245 3002 2822 3002 2285 
C 3002 1754 2931 1331 2803 1018 
C 2624 582 2330 358 1920 358 
C 1510 358 1216 582 1037 1018 
C 909 1331 845 1754 845 2285 
C 845 2822 909 3245 1037 3552 
C 1216 3994 1510 4211 1920 4211 
z
" transform="scale(0.015625)"/>
       </defs>
       <use xlink:href="#PingFangHK-Regular-30"/>
      </g>
     </g>
    </g>
    <g id="xtick_4">
     <g id="line2d_4">
      <g>
       <use xlink:href="#m0bc9f95ad4" x="298.451607" y="252.567813" style="stroke: #000000; stroke-width: 0.8"/>
      </g>
     </g>
     <g id="text_4">
      <!-- 2 -->
      <g transform="translate(294.851607 268.303437) scale(0.12 -0.12)">
       <use xlink:href="#PingFangHK-Regular-32"/>
      </g>
     </g>
    </g>
    <g id="xtick_5">
     <g id="line2d_5">
      <g>
       <use xlink:href="#m0bc9f95ad4" x="355.622322" y="252.567813" style="stroke: #000000; stroke-width: 0.8"/>
      </g>
     </g>
     <g id="text_5">
      <!-- 4 -->
      <g transform="translate(352.022322 268.303437) scale(0.12 -0.12)">
       <use xlink:href="#PingFangHK-Regular-34"/>
      </g>
     </g>
    </g>
    <g id="text_6">
     <!-- 奖励差距 -->
     <g transform="translate(215.280893 284.169062) scale(0.13 -0.13)">
      <defs>
       <path id="PingFangHK-Regular-5956" d="M 442 1658 
L 442 1210 
L 2835 1210 
C 2509 557 1658 83 288 -205 
L 480 -634 
C 1926 -301 2842 243 3232 992 
C 3603 230 4493 -307 5907 -614 
L 6093 -186 
C 4806 58 3955 525 3533 1210 
L 5958 1210 
L 5958 1658 
L 3424 1658 
C 3443 1824 3456 2003 3456 2195 
L 3008 2195 
C 3002 1990 2989 1811 2970 1658 
L 442 1658 
z
M 2150 5197 
L 2150 3629 
C 1645 3360 1050 3123 365 2918 
L 550 2496 
C 1158 2694 1690 2918 2150 3162 
L 2150 2246 
L 2624 2246 
L 2624 5197 
L 2150 5197 
z
M 762 4928 
L 512 4563 
C 877 4390 1235 4147 1581 3840 
L 1830 4224 
C 1510 4506 1152 4736 762 4928 
z
M 4045 5222 
C 3827 4730 3418 4314 2816 3968 
L 3098 3597 
C 3443 3808 3731 4038 3968 4294 
L 5376 4294 
C 5210 3942 4941 3635 4582 3373 
C 4390 3571 4192 3757 3981 3930 
L 3661 3693 
C 3853 3546 4045 3366 4250 3162 
C 3891 2970 3469 2810 2970 2682 
L 3194 2278 
C 4640 2675 5517 3354 5837 4326 
L 5837 4717 
L 4288 4717 
C 4378 4858 4448 5011 4512 5165 
L 4045 5222 
z
" transform="scale(0.015625)"/>
       <path id="PingFangHK-Regular-52b1" d="M 1683 3366 
L 1683 2374 
C 1670 1133 1446 237 1005 -326 
L 1331 -608 
C 1779 -32 2035 845 2086 2022 
L 2854 2022 
C 2848 1114 2829 525 2790 256 
C 2746 -19 2630 -160 2438 -173 
C 2317 -173 2163 -160 1984 -147 
L 2106 -531 
C 2246 -544 2374 -557 2490 -557 
C 2842 -544 3059 -358 3142 6 
C 3219 365 3270 1171 3283 2419 
L 2093 2419 
L 2093 3366 
L 3322 3366 
L 3322 3789 
L 1056 3789 
L 1056 4544 
L 3488 4544 
L 3488 4966 
L 634 4966 
L 634 2362 
C 621 1203 486 301 230 -346 
L 557 -640 
C 870 115 1037 1114 1056 2362 
L 1056 3366 
L 1683 3366 
z
M 4282 5203 
L 4282 3853 
L 3552 3853 
L 3552 3430 
L 4282 3430 
C 4250 1702 3917 442 3283 -358 
L 3610 -646 
C 4314 224 4685 1587 4723 3430 
L 5446 3430 
C 5440 1664 5408 614 5357 282 
C 5306 -19 5133 -173 4845 -173 
C 4691 -173 4518 -160 4320 -147 
L 4416 -538 
C 4646 -550 4813 -557 4909 -557 
C 5421 -557 5709 -320 5773 147 
C 5837 608 5875 1843 5875 3853 
L 4730 3853 
L 4730 5203 
L 4282 5203 
z
" transform="scale(0.015625)"/>
       <path id="PingFangHK-Regular-5dee" d="M 621 4531 
L 621 4102 
L 2970 4102 
L 2970 3533 
L 998 3533 
L 998 3104 
L 2970 3104 
L 2970 2554 
L 435 2554 
L 435 2118 
L 1875 2118 
C 1574 1370 1030 819 237 474 
L 538 115 
C 1133 410 1600 813 1946 1338 
L 1946 1005 
L 3315 1005 
L 3315 -26 
L 1043 -26 
L 1043 -474 
L 5965 -474 
L 5965 -26 
L 3776 -26 
L 3776 1005 
L 5587 1005 
L 5587 1453 
L 2016 1453 
C 2138 1658 2240 1875 2323 2118 
L 5990 2118 
L 5990 2554 
L 3443 2554 
L 3443 3104 
L 5453 3104 
L 5453 3533 
L 3443 3533 
L 3443 4102 
L 5805 4102 
L 5805 4531 
L 4384 4531 
C 4512 4749 4608 4979 4678 5229 
L 4198 5293 
C 4134 5030 4045 4774 3917 4531 
L 2547 4531 
C 2458 4806 2362 5050 2272 5267 
L 1792 5190 
C 1894 4992 1990 4774 2080 4531 
L 621 4531 
z
" transform="scale(0.015625)"/>
       <path id="PingFangHK-Regular-8ddd" d="M 621 4966 
L 621 2944 
L 1517 2944 
L 1517 224 
L 1024 102 
L 1024 2298 
L 614 2298 
L 614 13 
L 262 -64 
L 390 -506 
C 1280 -314 2061 -102 2726 128 
L 2726 582 
C 2477 499 2214 416 1946 339 
L 1946 1510 
L 2624 1510 
L 2624 1946 
L 1946 1946 
L 1946 2944 
L 2547 2944 
L 2547 4966 
L 621 4966 
z
M 2106 3373 
L 1069 3373 
L 1069 4538 
L 2106 4538 
L 2106 3373 
z
M 5702 1280 
L 5702 3469 
L 3565 3469 
L 3565 4570 
L 5952 4570 
L 5952 5005 
L 2739 5005 
L 2739 4570 
L 3123 4570 
L 3123 13 
L 2733 13 
L 2733 -416 
L 6048 -416 
L 6048 13 
L 3565 13 
L 3565 1280 
L 5702 1280 
z
M 3565 3040 
L 5267 3040 
L 5267 1722 
L 3565 1722 
L 3565 3040 
z
" transform="scale(0.015625)"/>
      </defs>
      <use xlink:href="#PingFangHK-Regular-5956"/>
      <use xlink:href="#PingFangHK-Regular-52b1" transform="translate(99.999985 0)"/>
      <use xlink:href="#PingFangHK-Regular-5dee" transform="translate(199.999969 0)"/>
      <use xlink:href="#PingFangHK-Regular-8ddd" transform="translate(299.999954 0)"/>
     </g>
    </g>
   </g>
   <g id="matplotlib.axis_2">
    <g id="ytick_1">
     <g id="line2d_6">
      <defs>
       <path id="me9557ebc12" d="M 0 0 
L -3.5 0 
" style="stroke: #000000; stroke-width: 0.8"/>
      </defs>
      <g>
       <use xlink:href="#me9557ebc12" x="69.76875" y="242.246073" style="stroke: #000000; stroke-width: 0.8"/>
      </g>
     </g>
     <g id="text_7">
      <!-- 0.0 -->
      <g style="fill: #4c5cf0" transform="translate(45.2 246.613886) scale(0.12 -0.12)">
       <defs>
        <path id="PingFangHK-Regular-2e" d="M 845 762 
C 730 762 640 723 570 646 
C 493 570 454 480 454 365 
C 454 256 493 166 570 90 
C 640 13 730 -26 845 -26 
C 947 -26 1043 13 1120 90 
C 1197 166 1235 256 1235 365 
C 1235 480 1197 570 1120 646 
C 1043 723 947 762 845 762 
z
" transform="scale(0.015625)"/>
       </defs>
       <use xlink:href="#PingFangHK-Regular-30"/>
       <use xlink:href="#PingFangHK-Regular-2e" transform="translate(59.999985 0)"/>
       <use xlink:href="#PingFangHK-Regular-30" transform="translate(86.399979 0)"/>
      </g>
     </g>
    </g>
    <g id="ytick_2">
     <g id="line2d_7">
      <g>
       <use xlink:href="#me9557ebc12" x="69.76875" y="200.959117" style="stroke: #000000; stroke-width: 0.8"/>
      </g>
     </g>
     <g id="text_8">
      <!-- 0.2 -->
      <g style="fill: #4c5cf0" transform="translate(45.2 205.326929) scale(0.12 -0.12)">
       <use xlink:href="#PingFangHK-Regular-30"/>
       <use xlink:href="#PingFangHK-Regular-2e" transform="translate(59.999985 0)"/>
       <use xlink:href="#PingFangHK-Regular-32" transform="translate(86.399979 0)"/>
      </g>
     </g>
    </g>
    <g id="ytick_3">
     <g id="line2d_8">
      <g>
       <use xlink:href="#me9557ebc12" x="69.76875" y="159.67216" style="stroke: #000000; stroke-width: 0.8"/>
      </g>
     </g>
     <g id="text_9">
      <!-- 0.4 -->
      <g style="fill: #4c5cf0" transform="translate(45.2 164.039973) scale(0.12 -0.12)">
       <use xlink:href="#PingFangHK-Regular-30"/>
       <use xlink:href="#PingFangHK-Regular-2e" transform="translate(59.999985 0)"/>
       <use xlink:href="#PingFangHK-Regular-34" transform="translate(86.399979 0)"/>
      </g>
     </g>
    </g>
    <g id="ytick_4">
     <g id="line2d_9">
      <g>
       <use xlink:href="#me9557ebc12" x="69.76875" y="118.385204" style="stroke: #000000; stroke-width: 0.8"/>
      </g>
     </g>
     <g id="text_10">
      <!-- 0.6 -->
      <g style="fill: #4c5cf0" transform="translate(45.2 122.753016) scale(0.12 -0.12)">
       <defs>
        <path id="PingFangHK-Regular-36" d="M 1984 4659 
C 1466 4659 1056 4422 755 3942 
C 467 3488 326 2893 326 2163 
C 326 1466 454 922 723 531 
C 1005 122 1421 -90 1978 -90 
C 2426 -90 2790 64 3085 358 
C 3373 653 3520 1030 3520 1478 
C 3520 1926 3386 2285 3123 2566 
C 2854 2848 2502 2989 2067 2989 
C 1798 2989 1562 2925 1357 2790 
C 1139 2662 979 2477 864 2240 
L 838 2240 
C 832 2323 832 2381 832 2406 
C 832 2925 928 3354 1133 3686 
C 1338 4045 1619 4218 1978 4218 
C 2509 4218 2822 3962 2925 3437 
L 3443 3437 
C 3315 4256 2829 4659 1984 4659 
z
M 1965 2554 
C 2278 2554 2528 2458 2720 2253 
C 2906 2061 3002 1805 3002 1478 
C 3002 1152 2906 883 2714 666 
C 2522 461 2272 352 1965 352 
C 1645 352 1395 461 1203 678 
C 1011 883 922 1146 922 1466 
C 922 1786 1018 2042 1216 2246 
C 1414 2451 1664 2554 1965 2554 
z
" transform="scale(0.015625)"/>
       </defs>
       <use xlink:href="#PingFangHK-Regular-30"/>
       <use xlink:href="#PingFangHK-Regular-2e" transform="translate(59.999985 0)"/>
       <use xlink:href="#PingFangHK-Regular-36" transform="translate(86.399979 0)"/>
      </g>
     </g>
    </g>
    <g id="ytick_5">
     <g id="line2d_10">
      <g>
       <use xlink:href="#me9557ebc12" x="69.76875" y="77.098247" style="stroke: #000000; stroke-width: 0.8"/>
      </g>
     </g>
     <g id="text_11">
      <!-- 0.8 -->
      <g style="fill: #4c5cf0" transform="translate(45.2 81.46606) scale(0.12 -0.12)">
       <defs>
        <path id="PingFangHK-Regular-38" d="M 1920 4659 
C 1440 4659 1069 4538 800 4288 
C 550 4064 429 3782 429 3450 
C 429 3206 486 3002 602 2835 
C 723 2656 902 2522 1146 2438 
L 1146 2426 
C 902 2368 704 2234 538 2029 
C 358 1811 269 1555 269 1261 
C 269 858 410 531 691 288 
C 979 38 1389 -90 1920 -90 
C 2445 -90 2854 38 3149 288 
C 3430 531 3571 858 3571 1261 
C 3571 1555 3482 1811 3302 2029 
C 3136 2234 2931 2368 2694 2426 
L 2694 2438 
C 2931 2522 3110 2656 3238 2835 
C 3354 3002 3411 3206 3411 3450 
C 3411 3782 3283 4064 3040 4288 
C 2771 4538 2394 4659 1920 4659 
z
M 1920 4230 
C 2240 4230 2496 4147 2682 3981 
C 2835 3840 2918 3654 2918 3430 
C 2918 3200 2848 3008 2707 2867 
C 2534 2701 2272 2611 1920 2611 
C 1562 2611 1299 2701 1133 2867 
C 992 3008 922 3200 922 3430 
C 922 3654 998 3840 1158 3981 
C 1338 4147 1594 4230 1920 4230 
z
M 1920 2202 
C 2285 2202 2573 2112 2778 1926 
C 2957 1760 3053 1536 3053 1261 
C 3053 992 2957 774 2778 608 
C 2573 429 2291 339 1920 339 
C 1549 339 1261 429 1069 602 
C 877 768 787 992 787 1261 
C 787 1536 877 1760 1069 1926 
C 1267 2112 1549 2202 1920 2202 
z
" transform="scale(0.015625)"/>
       </defs>
       <use xlink:href="#PingFangHK-Regular-30"/>
       <use xlink:href="#PingFangHK-Regular-2e" transform="translate(59.999985 0)"/>
       <use xlink:href="#PingFangHK-Regular-38" transform="translate(86.399979 0)"/>
      </g>
     </g>
    </g>
    <g id="ytick_6">
     <g id="line2d_11">
      <g>
       <use xlink:href="#me9557ebc12" x="69.76875" y="35.811291" style="stroke: #000000; stroke-width: 0.8"/>
      </g>
     </g>
     <g id="text_12">
      <!-- 1.0 -->
      <g style="fill: #4c5cf0" transform="translate(47.58875 40.179103) scale(0.12 -0.12)">
       <defs>
        <path id="PingFangHK-Regular-31" d="M 1472 4570 
C 1318 4397 1139 4243 922 4102 
C 704 3974 486 3885 282 3827 
L 282 3302 
C 710 3430 1069 3635 1357 3930 
L 1357 0 
L 1882 0 
L 1882 4570 
L 1472 4570 
z
" transform="scale(0.015625)"/>
       </defs>
       <use xlink:href="#PingFangHK-Regular-31"/>
       <use xlink:href="#PingFangHK-Regular-2e" transform="translate(40.099991 0)"/>
       <use xlink:href="#PingFangHK-Regular-30" transform="translate(66.499985 0)"/>
      </g>
     </g>
    </g>
    <g id="text_13">
     <!-- $\sigma(x)$ -->
     <g style="fill: #4c5cf0" transform="translate(10.8 130.117812) scale(0.15 -0.15)">
      <defs>
       <path id="Cmmi10-be" d="M 1197 -72 
Q 913 -72 692 64 
Q 472 200 351 431 
Q 231 663 231 941 
Q 231 1238 365 1566 
Q 500 1894 733 2166 
Q 966 2438 1259 2598 
Q 1553 2759 1863 2759 
L 3475 2759 
Q 3541 2759 3587 2715 
Q 3634 2672 3634 2597 
Q 3634 2503 3567 2433 
Q 3500 2363 3406 2363 
L 2625 2363 
Q 2809 2088 2809 1697 
Q 2809 1375 2684 1062 
Q 2559 750 2337 492 
Q 2116 234 1820 81 
Q 1525 -72 1197 -72 
z
M 1203 97 
Q 1553 97 1823 370 
Q 2094 644 2237 1039 
Q 2381 1434 2381 1772 
Q 2381 2047 2229 2205 
Q 2078 2363 1806 2363 
Q 1434 2363 1173 2113 
Q 913 1863 783 1484 
Q 653 1106 653 756 
Q 653 481 798 289 
Q 944 97 1203 97 
z
" transform="scale(0.015625)"/>
       <path id="Cmr10-28" d="M 1984 -1588 
Q 1628 -1306 1370 -942 
Q 1113 -578 948 -165 
Q 784 247 703 697 
Q 622 1147 622 1600 
Q 622 2059 703 2509 
Q 784 2959 951 3375 
Q 1119 3791 1378 4153 
Q 1638 4516 1984 4788 
Q 1984 4800 2016 4800 
L 2075 4800 
Q 2094 4800 2109 4783 
Q 2125 4766 2125 4744 
Q 2125 4716 2113 4703 
Q 1800 4397 1592 4047 
Q 1384 3697 1257 3301 
Q 1131 2906 1075 2482 
Q 1019 2059 1019 1600 
Q 1019 -434 2106 -1491 
Q 2125 -1509 2125 -1544 
Q 2125 -1559 2108 -1579 
Q 2091 -1600 2075 -1600 
L 2016 -1600 
Q 1984 -1600 1984 -1588 
z
" transform="scale(0.015625)"/>
       <path id="Cmmi10-78" d="M 500 184 
Q 613 97 819 97 
Q 1019 97 1172 289 
Q 1325 481 1381 709 
L 1672 1844 
Q 1741 2153 1741 2266 
Q 1741 2425 1652 2544 
Q 1563 2663 1403 2663 
Q 1200 2663 1022 2536 
Q 844 2409 722 2214 
Q 600 2019 550 1819 
Q 538 1778 500 1778 
L 422 1778 
Q 372 1778 372 1838 
L 372 1856 
Q 434 2094 584 2320 
Q 734 2547 951 2687 
Q 1169 2828 1416 2828 
Q 1650 2828 1839 2703 
Q 2028 2578 2106 2363 
Q 2216 2559 2386 2693 
Q 2556 2828 2759 2828 
Q 2897 2828 3040 2779 
Q 3184 2731 3275 2631 
Q 3366 2531 3366 2381 
Q 3366 2219 3261 2101 
Q 3156 1984 2994 1984 
Q 2891 1984 2822 2050 
Q 2753 2116 2753 2216 
Q 2753 2350 2845 2451 
Q 2938 2553 3066 2572 
Q 2950 2663 2747 2663 
Q 2541 2663 2389 2472 
Q 2238 2281 2175 2047 
L 1894 916 
Q 1825 659 1825 494 
Q 1825 331 1917 214 
Q 2009 97 2163 97 
Q 2463 97 2698 361 
Q 2934 625 3009 941 
Q 3022 978 3059 978 
L 3138 978 
Q 3163 978 3178 961 
Q 3194 944 3194 922 
Q 3194 916 3188 903 
Q 3097 522 2806 225 
Q 2516 -72 2150 -72 
Q 1916 -72 1727 54 
Q 1538 181 1459 397 
Q 1359 209 1182 68 
Q 1006 -72 806 -72 
Q 669 -72 523 -23 
Q 378 25 287 125 
Q 197 225 197 378 
Q 197 528 301 651 
Q 406 775 563 775 
Q 669 775 741 711 
Q 813 647 813 544 
Q 813 409 723 309 
Q 634 209 500 184 
z
" transform="scale(0.015625)"/>
       <path id="Cmr10-29" d="M 416 -1600 
Q 359 -1600 359 -1544 
Q 359 -1516 372 -1503 
Q 1466 -434 1466 1600 
Q 1466 3634 384 4691 
Q 359 4706 359 4744 
Q 359 4766 376 4783 
Q 394 4800 416 4800 
L 475 4800 
Q 494 4800 506 4788 
Q 966 4425 1272 3906 
Q 1578 3388 1720 2800 
Q 1863 2213 1863 1600 
Q 1863 1147 1786 708 
Q 1709 269 1542 -157 
Q 1375 -584 1119 -945 
Q 863 -1306 506 -1588 
Q 494 -1600 475 -1600 
L 416 -1600 
z
" transform="scale(0.015625)"/>
      </defs>
      <use xlink:href="#Cmmi10-be"/>
      <use xlink:href="#Cmr10-28" transform="translate(57.080078 0)"/>
      <use xlink:href="#Cmmi10-78" transform="translate(95.898438 0)"/>
      <use xlink:href="#Cmr10-29" transform="translate(152.978516 0)"/>
     </g>
    </g>
   </g>
   <g id="line2d_12">
    <path d="M 69.76875 241.735638 
L 86.977326 241.31603 
L 99.596949 240.803469 
L 109.922095 240.18213 
L 119.100002 239.411446 
L 127.130671 238.508626 
L 134.014101 237.514356 
L 139.750293 236.492181 
L 145.486485 235.256841 
L 151.222677 233.767484 
L 155.811631 232.361725 
L 160.400585 230.736442 
L 164.989538 228.862111 
L 169.578492 226.70688 
L 174.167446 224.236967 
L 177.609161 222.156949 
L 181.050876 219.865229 
L 184.492591 217.347006 
L 187.934307 214.588019 
L 191.376022 211.57497 
L 194.817737 208.296014 
L 198.259452 204.741314 
L 201.701168 200.903633 
L 205.142883 196.778953 
L 208.584598 192.367088 
L 212.026313 187.672264 
L 216.615267 180.988871 
L 221.204221 173.855598 
L 225.793174 166.326058 
L 231.529366 156.465551 
L 239.560035 142.134622 
L 252.179658 119.586738 
L 257.91585 109.815346 
L 262.504804 102.378908 
L 267.093757 95.353756 
L 271.682711 88.789176 
L 275.124426 84.187909 
L 278.566141 79.871532 
L 282.007857 75.842741 
L 285.449572 72.100005 
L 288.891287 68.638165 
L 292.333002 65.449048 
L 295.774718 62.522085 
L 299.216433 59.844888 
L 302.658148 57.403785 
L 306.099863 55.184292 
L 309.541579 53.171514 
L 314.130532 50.783522 
L 318.719486 48.701617 
L 323.30844 46.892448 
L 327.897393 45.324717 
L 332.486347 43.969522 
L 338.222539 42.534528 
L 343.958731 41.344898 
L 349.694923 40.360969 
L 356.578354 39.404269 
L 364.609023 38.535878 
L 373.78693 37.794821 
L 384.112076 37.197526 
L 396.731698 36.704905 
L 412.793036 36.321726 
L 412.793036 36.321726 
" clip-path="url(#p46fe84d0a8)" style="fill: none; stroke: #4c5cf0; stroke-width: 2.5; stroke-linecap: square"/>
   </g>
   <g id="line2d_13">
    <path d="M 241.280893 252.567813 
L 241.280893 15.167812 
" clip-path="url(#p46fe84d0a8)" style="fill: none; stroke-dasharray: 2.96,1.28; stroke-dashoffset: 0; stroke: #d1d5db; stroke-width: 0.8"/>
   </g>
   <g id="line2d_14">
    <path d="M 69.76875 139.028682 
L 412.793036 139.028682 
" clip-path="url(#p46fe84d0a8)" style="fill: none; stroke-dasharray: 2.96,1.28; stroke-dashoffset: 0; stroke: #d1d5db; stroke-width: 0.8"/>
   </g>
   <g id="patch_3">
    <path d="M 69.76875 252.567813 
L 69.76875 15.167812 
" style="fill: none; stroke: #000000; stroke-width: 0.8; stroke-linejoin: miter; stroke-linecap: square"/>
   </g>
   <g id="patch_4">
    <path d="M 412.793036 252.567813 
L 412.793036 15.167812 
" style="fill: none; stroke: #000000; stroke-width: 0.8; stroke-linejoin: miter; stroke-linecap: square"/>
   </g>
   <g id="patch_5">
    <path d="M 69.76875 252.567813 
L 412.793036 252.567813 
" style="fill: none; stroke: #000000; stroke-width: 0.8; stroke-linejoin: miter; stroke-linecap: square"/>
   </g>
   <g id="patch_6">
    <path d="M 69.76875 15.167812 
L 412.793036 15.167812 
" style="fill: none; stroke: #000000; stroke-width: 0.8; stroke-linejoin: miter; stroke-linecap: square"/>
   </g>
   <g id="legend_1">
    <g id="patch_7">
     <path d="M 77.46875 56.967813 
L 159.63875 56.967813 
Q 161.83875 56.967813 161.83875 54.767813 
L 161.83875 22.867813 
Q 161.83875 20.667813 159.63875 20.667813 
L 77.46875 20.667813 
Q 75.26875 20.667813 75.26875 22.867813 
L 75.26875 54.767813 
Q 75.26875 56.967813 77.46875 56.967813 
z
" style="fill: #ffffff; opacity: 0.9; stroke: #e5e7eb; stroke-linejoin: miter"/>
    </g>
    <g id="line2d_15">
     <path d="M 79.66875 29.467813 
L 90.66875 29.467813 
L 101.66875 29.467813 
" style="fill: none; stroke: #4c5cf0; stroke-width: 2.5; stroke-linecap: square"/>
    </g>
    <g id="text_14">
     <!-- $\sigma(x)$ -->
     <g transform="translate(110.46875 33.317813) scale(0.11 -0.11)">
      <use xlink:href="#Cmmi10-be"/>
      <use xlink:href="#Cmr10-28" transform="translate(57.080078 0)"/>
      <use xlink:href="#Cmmi10-78" transform="translate(95.898438 0)"/>
      <use xlink:href="#Cmr10-29" transform="translate(152.978516 0)"/>
     </g>
    </g>
    <g id="line2d_16">
     <path d="M 79.66875 45.967813 
L 90.66875 45.967813 
L 101.66875 45.967813 
" style="fill: none; stroke: #ef4444; stroke-width: 2.5; stroke-linecap: square"/>
    </g>
    <g id="text_15">
     <!-- $-\log\,\sigma(x)$ -->
     <g transform="translate(110.46875 49.817813) scale(0.11 -0.11)">
      <defs>
       <path id="Cmsy10-a1" d="M 653 1472 
Q 600 1472 565 1512 
Q 531 1553 531 1600 
Q 531 1647 565 1687 
Q 600 1728 653 1728 
L 4325 1728 
Q 4375 1728 4408 1687 
Q 4441 1647 4441 1600 
Q 4441 1553 4408 1512 
Q 4375 1472 4325 1472 
L 653 1472 
z
" transform="scale(0.015625)"/>
       <path id="Cmr10-6c" d="M 197 0 
L 197 225 
Q 416 225 556 259 
Q 697 294 697 428 
L 697 3788 
Q 697 3959 645 4036 
Q 594 4113 497 4130 
Q 400 4147 197 4147 
L 197 4372 
L 1147 4441 
L 1147 428 
Q 1147 294 1287 259 
Q 1428 225 1644 225 
L 1644 0 
L 197 0 
z
" transform="scale(0.015625)"/>
       <path id="Cmr10-6f" d="M 1600 -72 
Q 1216 -72 887 123 
Q 559 319 368 647 
Q 178 975 178 1363 
Q 178 1656 283 1928 
Q 388 2200 583 2414 
Q 778 2628 1037 2748 
Q 1297 2869 1600 2869 
Q 1994 2869 2317 2661 
Q 2641 2453 2828 2104 
Q 3016 1756 3016 1363 
Q 3016 978 2825 648 
Q 2634 319 2307 123 
Q 1981 -72 1600 -72 
z
M 1600 116 
Q 2113 116 2284 487 
Q 2456 859 2456 1434 
Q 2456 1756 2422 1967 
Q 2388 2178 2272 2350 
Q 2200 2456 2089 2536 
Q 1978 2616 1854 2658 
Q 1731 2700 1600 2700 
Q 1400 2700 1220 2609 
Q 1041 2519 922 2350 
Q 803 2169 770 1951 
Q 738 1734 738 1434 
Q 738 1075 800 789 
Q 863 503 1052 309 
Q 1241 116 1600 116 
z
" transform="scale(0.015625)"/>
       <path id="Cmr10-67" d="M 178 -500 
Q 178 -272 343 -101 
Q 509 69 738 141 
Q 609 238 542 384 
Q 475 531 475 697 
Q 475 997 666 1228 
Q 372 1516 372 1888 
Q 372 2088 458 2263 
Q 544 2438 697 2566 
Q 850 2694 1037 2761 
Q 1225 2828 1422 2828 
Q 1803 2828 2106 2606 
Q 2238 2747 2417 2823 
Q 2597 2900 2791 2900 
Q 2928 2900 3015 2801 
Q 3103 2703 3103 2566 
Q 3103 2488 3043 2428 
Q 2984 2369 2906 2369 
Q 2825 2369 2765 2428 
Q 2706 2488 2706 2566 
Q 2706 2684 2784 2731 
Q 2453 2731 2216 2503 
Q 2331 2388 2401 2220 
Q 2472 2053 2472 1888 
Q 2472 1616 2322 1398 
Q 2172 1181 1926 1061 
Q 1681 941 1422 941 
Q 1072 941 781 1131 
Q 691 1006 691 850 
Q 691 681 802 554 
Q 913 428 1081 428 
L 1606 428 
Q 1988 428 2294 359 
Q 2600 291 2808 84 
Q 3016 -122 3016 -500 
Q 3016 -781 2778 -967 
Q 2541 -1153 2211 -1236 
Q 1881 -1319 1600 -1319 
Q 1316 -1319 984 -1236 
Q 653 -1153 415 -967 
Q 178 -781 178 -500 
z
M 538 -500 
Q 538 -716 713 -861 
Q 888 -1006 1134 -1076 
Q 1381 -1147 1600 -1147 
Q 1816 -1147 2062 -1076 
Q 2309 -1006 2482 -861 
Q 2656 -716 2656 -500 
Q 2656 -166 2350 -67 
Q 2044 31 1606 31 
L 1081 31 
Q 934 31 811 -39 
Q 688 -109 613 -236 
Q 538 -363 538 -500 
z
M 1422 1113 
Q 1966 1113 1966 1888 
Q 1966 2222 1850 2439 
Q 1734 2656 1422 2656 
Q 1109 2656 993 2439 
Q 878 2222 878 1888 
Q 878 1675 922 1503 
Q 966 1331 1084 1222 
Q 1203 1113 1422 1113 
z
" transform="scale(0.015625)"/>
      </defs>
      <use xlink:href="#Cmsy10-a1"/>
      <use xlink:href="#Cmr10-6c" transform="translate(77.685547 0)"/>
      <use xlink:href="#Cmr10-6f" transform="translate(105.371094 0)"/>
      <use xlink:href="#Cmr10-67" transform="translate(155.371094 0)"/>
      <use xlink:href="#Cmmi10-be" transform="translate(234.636002 0)"/>
      <use xlink:href="#Cmr10-28" transform="translate(291.71608 0)"/>
      <use xlink:href="#Cmmi10-78" transform="translate(330.534439 0)"/>
      <use xlink:href="#Cmr10-29" transform="translate(387.614518 0)"/>
     </g>
    </g>
   </g>
  </g>
  <g id="axes_2">
   <g id="matplotlib.axis_3">
    <g id="ytick_7">
     <g id="line2d_17">
      <defs>
       <path id="mc1662aba73" d="M 0 0 
L 3.5 0 
" style="stroke: #000000; stroke-width: 0.8"/>
      </defs>
      <g>
       <use xlink:href="#mc1662aba73" x="412.793036" y="242.811648" style="stroke: #000000; stroke-width: 0.8"/>
      </g>
     </g>
     <g id="text_16">
      <!-- 0 -->
      <g style="fill: #ef4444" transform="translate(419.793036 247.179461) scale(0.12 -0.12)">
       <use xlink:href="#PingFangHK-Regular-30"/>
      </g>
     </g>
    </g>
    <g id="ytick_8">
     <g id="line2d_18">
      <g>
       <use xlink:href="#mc1662aba73" x="412.793036" y="210.2911" style="stroke: #000000; stroke-width: 0.8"/>
      </g>
     </g>
     <g id="text_17">
      <!-- 1 -->
      <g style="fill: #ef4444" transform="translate(419.793036 214.658913) scale(0.12 -0.12)">
       <use xlink:href="#PingFangHK-Regular-31"/>
      </g>
     </g>
    </g>
    <g id="ytick_9">
     <g id="line2d_19">
      <g>
       <use xlink:href="#mc1662aba73" x="412.793036" y="177.770552" style="stroke: #000000; stroke-width: 0.8"/>
      </g>
     </g>
     <g id="text_18">
      <!-- 2 -->
      <g style="fill: #ef4444" transform="translate(419.793036 182.138365) scale(0.12 -0.12)">
       <use xlink:href="#PingFangHK-Regular-32"/>
      </g>
     </g>
    </g>
    <g id="ytick_10">
     <g id="line2d_20">
      <g>
       <use xlink:href="#mc1662aba73" x="412.793036" y="145.250004" style="stroke: #000000; stroke-width: 0.8"/>
      </g>
     </g>
     <g id="text_19">
      <!-- 3 -->
      <g style="fill: #ef4444" transform="translate(419.793036 149.617817) scale(0.12 -0.12)">
       <defs>
        <path id="PingFangHK-Regular-33" d="M 1965 4659 
C 1530 4659 1178 4538 909 4288 
C 627 4038 461 3693 422 3251 
L 941 3251 
C 973 3558 1075 3795 1254 3962 
C 1427 4128 1664 4205 1971 4205 
C 2266 4205 2502 4134 2669 3981 
C 2822 3840 2906 3642 2906 3386 
C 2906 3130 2822 2931 2662 2790 
C 2502 2656 2272 2586 1965 2586 
L 1613 2586 
L 1613 2176 
L 1984 2176 
C 2304 2176 2547 2106 2726 1952 
C 2906 1798 2995 1587 2995 1312 
C 2995 1043 2899 819 2720 640 
C 2522 454 2259 358 1933 358 
C 1645 358 1408 442 1216 595 
C 992 781 870 1056 858 1414 
L 326 1414 
C 365 902 544 512 870 243 
C 1146 26 1498 -90 1933 -90 
C 2406 -90 2790 45 3085 314 
C 3373 576 3520 915 3520 1331 
C 3520 1600 3443 1824 3290 2003 
C 3149 2182 2944 2310 2675 2394 
C 3174 2560 3424 2906 3424 3418 
C 3424 3802 3290 4102 3027 4326 
C 2758 4550 2400 4659 1965 4659 
z
" transform="scale(0.015625)"/>
       </defs>
       <use xlink:href="#PingFangHK-Regular-33"/>
      </g>
     </g>
    </g>
    <g id="ytick_11">
     <g id="line2d_21">
      <g>
       <use xlink:href="#mc1662aba73" x="412.793036" y="112.729456" style="stroke: #000000; stroke-width: 0.8"/>
      </g>
     </g>
     <g id="text_20">
      <!-- 4 -->
      <g style="fill: #ef4444" transform="translate(419.793036 117.097269) scale(0.12 -0.12)">
       <use xlink:href="#PingFangHK-Regular-34"/>
      </g>
     </g>
    </g>
    <g id="ytick_12">
     <g id="line2d_22">
      <g>
       <use xlink:href="#mc1662aba73" x="412.793036" y="80.208908" style="stroke: #000000; stroke-width: 0.8"/>
      </g>
     </g>
     <g id="text_21">
      <!-- 5 -->
      <g style="fill: #ef4444" transform="translate(419.793036 84.576721) scale(0.12 -0.12)">
       <defs>
        <path id="PingFangHK-Regular-35" d="M 672 4570 
L 429 2048 
L 928 2048 
C 1018 2227 1158 2368 1338 2458 
C 1510 2554 1702 2598 1920 2598 
C 2253 2598 2515 2502 2701 2298 
C 2893 2099 2995 1818 2995 1453 
C 2995 1133 2886 870 2682 666 
C 2470 461 2208 358 1888 358 
C 1606 358 1370 429 1190 563 
C 986 717 870 941 845 1229 
L 326 1229 
C 358 813 531 480 851 237 
C 1133 19 1478 -90 1882 -90 
C 2330 -90 2714 51 3021 326 
C 3347 621 3514 998 3514 1459 
C 3514 1952 3373 2336 3104 2618 
C 2835 2893 2483 3027 2048 3027 
C 1837 3027 1645 2995 1466 2918 
C 1267 2842 1101 2726 973 2573 
L 947 2573 
L 1101 4102 
L 3328 4102 
L 3328 4570 
L 672 4570 
z
" transform="scale(0.015625)"/>
       </defs>
       <use xlink:href="#PingFangHK-Regular-35"/>
      </g>
     </g>
    </g>
    <g id="ytick_13">
     <g id="line2d_23">
      <g>
       <use xlink:href="#mc1662aba73" x="412.793036" y="47.68836" style="stroke: #000000; stroke-width: 0.8"/>
      </g>
     </g>
     <g id="text_22">
      <!-- 6 -->
      <g style="fill: #ef4444" transform="translate(419.793036 52.056173) scale(0.12 -0.12)">
       <use xlink:href="#PingFangHK-Regular-36"/>
      </g>
     </g>
    </g>
    <g id="ytick_14">
     <g id="line2d_24">
      <g>
       <use xlink:href="#mc1662aba73" x="412.793036" y="15.167812" style="stroke: #000000; stroke-width: 0.8"/>
      </g>
     </g>
     <g id="text_23">
      <!-- 7 -->
      <g style="fill: #ef4444" transform="translate(419.793036 19.535625) scale(0.12 -0.12)">
       <defs>
        <path id="PingFangHK-Regular-37" d="M 218 4570 
L 218 4090 
L 2682 4090 
L 979 0 
L 1536 0 
L 3219 4141 
L 3219 4570 
L 218 4570 
z
" transform="scale(0.015625)"/>
       </defs>
       <use xlink:href="#PingFangHK-Regular-37"/>
      </g>
     </g>
    </g>
    <g id="text_24">
     <!-- $-\log\,\sigma(x)$ -->
     <g style="fill: #ef4444" transform="translate(424.968036 145.117812) scale(0.15 -0.15)">
      <use xlink:href="#Cmsy10-a1"/>
      <use xlink:href="#Cmr10-6c" transform="translate(77.685547 0)"/>
      <use xlink:href="#Cmr10-6f" transform="translate(105.371094 0)"/>
      <use xlink:href="#Cmr10-67" transform="translate(155.371094 0)"/>
      <use xlink:href="#Cmmi10-be" transform="translate(234.636002 0)"/>
      <use xlink:href="#Cmr10-28" transform="translate(291.71608 0)"/>
      <use xlink:href="#Cmmi10-78" transform="translate(330.534439 0)"/>
      <use xlink:href="#Cmr10-29" transform="translate(387.614518 0)"/>
     </g>
    </g>
   </g>
   <g id="line2d_25">
    <path d="M 69.76875 47.60785 
L 113.36381 96.916562 
L 137.455816 123.844219 
L 153.517154 141.49064 
L 166.136777 155.056737 
L 176.461923 165.864645 
L 185.63983 175.170618 
L 193.670499 183.014913 
L 200.553929 189.467571 
L 207.43736 195.625376 
L 213.173552 200.500328 
L 218.909744 205.115991 
L 224.645936 209.449968 
L 230.382128 213.483169 
L 236.11832 217.201073 
L 240.707274 219.942192 
L 245.296227 222.474031 
L 249.885181 224.797593 
L 254.474135 226.91651 
L 259.063088 228.836855 
L 264.79928 230.970751 
L 270.535473 232.827219 
L 276.271665 234.429157 
L 282.007857 235.801194 
L 287.744049 236.96849 
L 294.627479 238.13367 
L 301.51091 239.07973 
L 309.541579 239.954942 
L 318.719486 240.714811 
L 329.044632 241.336336 
L 341.664254 241.855243 
L 356.578354 242.240647 
L 377.228645 242.533128 
L 408.204082 242.717138 
L 412.793036 242.731137 
L 412.793036 242.731137 
" clip-path="url(#p46fe84d0a8)" style="fill: none; stroke: #ef4444; stroke-width: 2.5; stroke-linecap: square"/>
   </g>
   <g id="patch_8">
    <path d="M 69.76875 252.567812 
L 69.76875 15.167812 
" style="fill: none; stroke: #000000; stroke-width: 0.8; stroke-linejoin: miter; stroke-linecap: square"/>
   </g>
   <g id="patch_9">
    <path d="M 412.793036 252.567812 
L 412.793036 15.167812 
" style="fill: none; stroke: #000000; stroke-width: 0.8; stroke-linejoin: miter; stroke-linecap: square"/>
   </g>
   <g id="patch_10">
    <path d="M 69.76875 252.567813 
L 412.793036 252.567813 
" style="fill: none; stroke: #000000; stroke-width: 0.8; stroke-linejoin: miter; stroke-linecap: square"/>
   </g>
   <g id="patch_11">
    <path d="M 69.76875 15.167812 
L 412.793036 15.167812 
" style="fill: none; stroke: #000000; stroke-width: 0.8; stroke-linejoin: miter; stroke-linecap: square"/>
   </g>
   <g id="patch_12">
    <path d="M 353.40116 176.94088 
Q 326.591285 207.065276 300.673355 236.187456 
" style="fill: none; stroke: #ef4444; stroke-width: 1.2; stroke-linecap: round"/>
    <path d="M 305.24196 234.363219 
L 300.673355 236.187456 
L 301.955128 231.438029 
" style="fill: none; stroke: #ef4444; stroke-width: 1.2; stroke-linecap: round"/>
   </g>
   <g id="text_25">
    <!-- loss ≈ 0.13 -->
    <g style="fill: #ef4444" transform="translate(332.754036 171.266443) scale(0.11 -0.11)">
     <defs>
      <path id="PingFangHK-Regular-6c" d="M 499 4659 
L 499 0 
L 1005 0 
L 1005 4659 
L 499 4659 
z
" transform="scale(0.015625)"/>
      <path id="PingFangHK-Regular-6f" d="M 1875 3398 
C 1376 3398 986 3232 691 2886 
C 410 2560 269 2150 269 1651 
C 269 1158 410 749 691 429 
C 986 83 1376 -90 1875 -90 
C 2368 -90 2765 83 3066 429 
C 3341 749 3482 1158 3482 1651 
C 3482 2150 3341 2560 3059 2886 
C 2765 3232 2368 3398 1875 3398 
z
M 1875 2970 
C 2221 2970 2496 2835 2701 2566 
C 2874 2323 2963 2022 2963 1651 
C 2963 1293 2874 986 2701 742 
C 2496 474 2221 339 1875 339 
C 1523 339 1248 474 1056 742 
C 877 986 794 1286 794 1651 
C 794 2022 877 2323 1056 2566 
C 1248 2835 1523 2970 1875 2970 
z
" transform="scale(0.015625)"/>
      <path id="PingFangHK-Regular-73" d="M 1568 3398 
C 1197 3398 890 3315 659 3149 
C 410 2982 288 2765 288 2483 
C 288 2202 410 1990 666 1837 
C 819 1734 1094 1638 1485 1542 
C 1843 1453 2080 1382 2189 1331 
C 2394 1229 2502 1088 2502 902 
C 2502 531 2202 339 1613 339 
C 1331 339 1120 390 979 493 
C 838 608 742 794 704 1056 
L 205 1056 
C 282 294 755 -90 1626 -90 
C 2560 -90 3027 256 3027 934 
C 3027 1222 2893 1446 2630 1613 
C 2458 1722 2176 1824 1779 1920 
C 1446 2010 1216 2080 1094 2138 
C 902 2234 813 2355 813 2496 
C 813 2643 883 2758 1024 2842 
C 1152 2931 1331 2970 1562 2970 
C 1824 2970 2029 2918 2170 2816 
C 2298 2726 2381 2573 2426 2368 
L 2925 2368 
C 2835 3059 2387 3398 1568 3398 
z
" transform="scale(0.015625)"/>
      <path id="PingFangHK-Regular-20" transform="scale(0.015625)"/>
      <path id="PingFangHK-Regular-2248" d="M 1600 3482 
C 1382 3482 1178 3418 986 3277 
C 845 3174 691 3008 525 2784 
L 838 2528 
C 1094 2880 1350 3053 1606 3053 
C 1798 3053 2086 2950 2458 2746 
C 2822 2554 3130 2451 3386 2451 
C 3610 2451 3814 2522 4000 2650 
C 4128 2752 4288 2925 4480 3155 
L 4166 3418 
C 3898 3059 3635 2874 3379 2874 
C 3187 2874 2906 2976 2534 3181 
C 2163 3386 1850 3482 1600 3482 
z
M 1600 2138 
C 1382 2138 1178 2067 986 1926 
C 845 1824 691 1658 525 1440 
L 838 1178 
C 1094 1536 1350 1709 1606 1709 
C 1798 1709 2086 1613 2458 1408 
C 2822 1203 3130 1101 3386 1101 
C 3610 1101 3814 1171 4000 1306 
C 4128 1408 4288 1574 4480 1811 
L 4166 2074 
C 3898 1715 3635 1530 3379 1530 
C 3187 1530 2906 1632 2534 1830 
C 2163 2035 1850 2138 1600 2138 
z
" transform="scale(0.015625)"/>
     </defs>
     <use xlink:href="#PingFangHK-Regular-6c"/>
     <use xlink:href="#PingFangHK-Regular-6f" transform="translate(23.499985 0)"/>
     <use xlink:href="#PingFangHK-Regular-73" transform="translate(82.099976 0)"/>
     <use xlink:href="#PingFangHK-Regular-73" transform="translate(132.59996 0)"/>
     <use xlink:href="#PingFangHK-Regular-20" transform="translate(183.099945 0)"/>
     <use xlink:href="#PingFangHK-Regular-2248" transform="translate(216.399933 0)"/>
     <use xlink:href="#PingFangHK-Regular-20" transform="translate(294.599915 0)"/>
     <use xlink:href="#PingFangHK-Regular-30" transform="translate(327.899902 0)"/>
     <use xlink:href="#PingFangHK-Regular-2e" transform="translate(387.899887 0)"/>
     <use xlink:href="#PingFangHK-Regular-31" transform="translate(414.299881 0)"/>
     <use xlink:href="#PingFangHK-Regular-33" transform="translate(454.399872 0)"/>
    </g>
   </g>
   <g id="patch_13">
    <path d="M 303.313163 134.784703 
Q 272.884828 176.717378 243.244453 217.56418 
" style="fill: none; stroke: #6b7280; stroke-width: 1.2; stroke-linecap: round"/>
    <path d="M 247.609216 215.295074 
L 243.244453 217.56418 
L 244.048026 212.710906 
" style="fill: none; stroke: #6b7280; stroke-width: 1.2; stroke-linecap: round"/>
   </g>
   <g id="text_26">
    <!-- x=0 时 -->
    <g style="fill: #6b7280" transform="translate(269.86625 117.202887) scale(0.11 -0.11)">
     <defs>
      <path id="PingFangHK-Regular-78" d="M 173 3309 
L 1344 1754 
L 32 0 
L 640 0 
L 1632 1376 
L 2618 0 
L 3226 0 
L 1914 1754 
L 3085 3309 
L 2483 3309 
L 1632 2131 
L 774 3309 
L 173 3309 
z
" transform="scale(0.015625)"/>
      <path id="PingFangHK-Regular-3d" d="M 320 2528 
L 320 2099 
L 3552 2099 
L 3552 2528 
L 320 2528 
z
M 320 1216 
L 320 781 
L 3552 781 
L 3552 1216 
L 320 1216 
z
" transform="scale(0.015625)"/>
      <path id="PingFangHK-Regular-65f6" d="M 2368 4749 
L 525 4749 
L 525 -122 
L 973 -122 
L 973 461 
L 1920 461 
L 1920 32 
L 2368 32 
L 2368 4749 
z
M 973 890 
L 973 2432 
L 1920 2432 
L 1920 890 
L 973 890 
z
M 973 2861 
L 973 4326 
L 1920 4326 
L 1920 2861 
L 973 2861 
z
M 3290 2842 
L 2912 2605 
C 3296 2016 3597 1478 3821 998 
L 4205 1267 
C 3994 1715 3686 2240 3290 2842 
z
M 4749 -576 
C 5146 -576 5344 -371 5344 32 
L 5344 3610 
L 6131 3610 
L 6131 4051 
L 5344 4051 
L 5344 5178 
L 4877 5178 
L 4877 4051 
L 2662 4051 
L 2662 3610 
L 4877 3610 
L 4877 147 
C 4877 -51 4781 -154 4595 -154 
C 4256 -154 3904 -141 3533 -128 
L 3629 -576 
L 4749 -576 
z
" transform="scale(0.015625)"/>
     </defs>
     <use xlink:href="#PingFangHK-Regular-78"/>
     <use xlink:href="#PingFangHK-Regular-3d" transform="translate(50.899994 0)"/>
     <use xlink:href="#PingFangHK-Regular-30" transform="translate(111.399979 0)"/>
     <use xlink:href="#PingFangHK-Regular-20" transform="translate(171.399963 0)"/>
     <use xlink:href="#PingFangHK-Regular-65f6" transform="translate(204.699951 0)"/>
    </g>
    <!-- loss = ln2 ≈ 0.69 -->
    <g style="fill: #6b7280" transform="translate(269.86625 128.98973) scale(0.11 -0.11)">
     <defs>
      <path id="PingFangHK-Regular-6e" d="M 1946 3398 
C 1728 3398 1530 3347 1350 3245 
C 1171 3149 1024 3008 909 2822 
L 909 3309 
L 397 3309 
L 397 0 
L 909 0 
L 909 1997 
C 928 2298 1024 2534 1203 2714 
C 1370 2880 1568 2963 1798 2963 
C 2374 2963 2669 2643 2669 1997 
L 2669 0 
L 3181 0 
L 3181 2035 
C 3181 2944 2765 3398 1946 3398 
z
" transform="scale(0.015625)"/>
      <path id="PingFangHK-Regular-39" d="M 1869 4659 
C 1421 4659 1050 4512 762 4211 
C 467 3917 326 3546 326 3091 
C 326 2650 454 2291 717 2016 
C 986 1728 1338 1581 1779 1581 
C 2048 1581 2285 1651 2490 1779 
C 2701 1914 2867 2099 2982 2330 
L 3008 2330 
C 3008 2253 3014 2195 3014 2163 
C 3014 1651 2912 1222 2714 883 
C 2502 531 2221 352 1869 352 
C 1331 352 1018 614 922 1133 
L 403 1133 
C 525 320 1011 -90 1862 -90 
C 2374 -90 2784 154 3091 627 
C 3373 1088 3520 1677 3520 2406 
C 3520 3110 3386 3661 3117 4045 
C 2835 4454 2419 4659 1869 4659 
z
M 1882 4218 
C 2195 4218 2451 4109 2643 3891 
C 2829 3686 2925 3424 2925 3104 
C 2925 2790 2822 2528 2630 2323 
C 2426 2118 2176 2016 1882 2016 
C 1562 2016 1312 2118 1126 2317 
C 934 2509 845 2771 845 3091 
C 845 3424 934 3693 1126 3904 
C 1318 4115 1568 4218 1882 4218 
z
" transform="scale(0.015625)"/>
     </defs>
     <use xlink:href="#PingFangHK-Regular-6c"/>
     <use xlink:href="#PingFangHK-Regular-6f" transform="translate(23.499985 0)"/>
     <use xlink:href="#PingFangHK-Regular-73" transform="translate(82.099976 0)"/>
     <use xlink:href="#PingFangHK-Regular-73" transform="translate(132.59996 0)"/>
     <use xlink:href="#PingFangHK-Regular-20" transform="translate(183.099945 0)"/>
     <use xlink:href="#PingFangHK-Regular-3d" transform="translate(216.399933 0)"/>
     <use xlink:href="#PingFangHK-Regular-20" transform="translate(276.899918 0)"/>
     <use xlink:href="#PingFangHK-Regular-6c" transform="translate(310.199905 0)"/>
     <use xlink:href="#PingFangHK-Regular-6e" transform="translate(333.69989 0)"/>
     <use xlink:href="#PingFangHK-Regular-32" transform="translate(389.599884 0)"/>
     <use xlink:href="#PingFangHK-Regular-20" transform="translate(449.599869 0)"/>
     <use xlink:href="#PingFangHK-Regular-2248" transform="translate(482.899857 0)"/>
     <use xlink:href="#PingFangHK-Regular-20" transform="translate(561.099838 0)"/>
     <use xlink:href="#PingFangHK-Regular-30" transform="translate(594.399826 0)"/>
     <use xlink:href="#PingFangHK-Regular-2e" transform="translate(654.399811 0)"/>
     <use xlink:href="#PingFangHK-Regular-36" transform="translate(680.799805 0)"/>
     <use xlink:href="#PingFangHK-Regular-39" transform="translate(740.799789 0)"/>
    </g>
   </g>
   <g id="patch_14">
    <path d="M 113.101388 70.023012 
Q 119.708343 90.131286 125.896503 108.964958 
" style="fill: none; stroke: #ef4444; stroke-width: 1.2; stroke-linecap: round"/>
    <path d="M 126.613109 104.098083 
L 125.896503 108.964958 
L 122.432967 105.471548 
" style="fill: none; stroke: #ef4444; stroke-width: 1.2; stroke-linecap: round"/>
   </g>
   <g id="text_27">
    <!-- loss ≈ 4.0 -->
    <g style="fill: #ef4444" transform="translate(84.061429 63.948634) scale(0.11 -0.11)">
     <use xlink:href="#PingFangHK-Regular-6c"/>
     <use xlink:href="#PingFangHK-Regular-6f" transform="translate(23.499985 0)"/>
     <use xlink:href="#PingFangHK-Regular-73" transform="translate(82.099976 0)"/>
     <use xlink:href="#PingFangHK-Regular-73" transform="translate(132.59996 0)"/>
     <use xlink:href="#PingFangHK-Regular-20" transform="translate(183.099945 0)"/>
     <use xlink:href="#PingFangHK-Regular-2248" transform="translate(216.399933 0)"/>
     <use xlink:href="#PingFangHK-Regular-20" transform="translate(294.599915 0)"/>
     <use xlink:href="#PingFangHK-Regular-34" transform="translate(327.899902 0)"/>
     <use xlink:href="#PingFangHK-Regular-2e" transform="translate(387.899887 0)"/>
     <use xlink:href="#PingFangHK-Regular-30" transform="translate(414.299881 0)"/>
    </g>
   </g>
   <g id="text_28">
    <g id="patch_15">
     <path d="M 349.430625 245.417738 
L 390.399375 245.417738 
Q 394.399375 245.417738 394.399375 241.417738 
L 394.399375 221.441175 
Q 394.399375 217.441175 390.399375 217.441175 
L 349.430625 217.441175 
Q 345.430625 217.441175 345.430625 221.441175 
L 345.430625 241.417738 
Q 345.430625 245.417738 349.430625 245.417738 
z
" style="fill: #f0fdf4; stroke: #86efac; stroke-linejoin: miter"/>
    </g>
    <!-- loss → 0 -->
    <g style="fill: #15803d" transform="translate(349.430625 228.720863) scale(0.1 -0.1)">
     <defs>
      <path id="PingFangHK-Regular-2192" d="M 4768 3686 
L 4550 3443 
L 5453 2509 
L 141 2509 
L 141 2099 
L 5453 2099 
L 4550 1165 
L 4768 922 
L 6259 2304 
L 4768 3686 
z
" transform="scale(0.015625)"/>
     </defs>
     <use xlink:href="#PingFangHK-Regular-6c"/>
     <use xlink:href="#PingFangHK-Regular-6f" transform="translate(23.499985 0)"/>
     <use xlink:href="#PingFangHK-Regular-73" transform="translate(82.099976 0)"/>
     <use xlink:href="#PingFangHK-Regular-73" transform="translate(132.59996 0)"/>
     <use xlink:href="#PingFangHK-Regular-20" transform="translate(183.099945 0)"/>
     <use xlink:href="#PingFangHK-Regular-2192" transform="translate(216.399933 0)"/>
     <use xlink:href="#PingFangHK-Regular-20" transform="translate(316.399918 0)"/>
     <use xlink:href="#PingFangHK-Regular-30" transform="translate(349.699905 0)"/>
    </g>
    <!-- 梯度弱 -->
    <g style="fill: #15803d" transform="translate(354.915 239.43805) scale(0.1 -0.1)">
     <defs>
      <path id="PingFangHK-Regular-68af" d="M 1658 2586 
C 1811 2310 1984 1958 2189 1530 
L 2445 1914 
C 2176 2355 1914 2752 1658 3110 
L 1658 3533 
L 2342 3533 
L 2342 3974 
L 1658 3974 
L 1658 5216 
L 1203 5216 
L 1203 3974 
L 378 3974 
L 378 3533 
L 1203 3533 
L 1203 3494 
C 1005 2746 685 2074 243 1472 
L 435 992 
C 742 1472 998 2003 1203 2586 
L 1203 -627 
L 1658 -627 
L 1658 2586 
z
M 3994 3750 
L 3994 2976 
L 2848 2976 
L 2586 1446 
L 3949 1446 
C 3578 851 2995 358 2189 -26 
L 2432 -422 
C 3098 -38 3622 422 3994 973 
L 3994 -646 
L 4442 -646 
L 4442 1446 
L 5536 1446 
C 5536 1005 5517 704 5485 538 
C 5446 358 5350 262 5197 262 
C 5056 262 4909 275 4742 288 
L 4858 -134 
C 4986 -134 5126 -141 5267 -141 
C 5562 -134 5747 -6 5837 237 
C 5914 454 5958 986 5958 1837 
L 4442 1837 
L 4442 2579 
L 5760 2579 
L 5760 4160 
L 4819 4160 
C 5037 4448 5216 4774 5370 5133 
L 4928 5254 
C 4755 4832 4557 4467 4326 4160 
L 2637 4160 
L 2637 3750 
L 3994 3750 
z
M 3994 2579 
L 3994 1837 
L 3053 1837 
L 3200 2579 
L 3994 2579 
z
M 4442 2976 
L 4442 3750 
L 5350 3750 
L 5350 2976 
L 4442 2976 
z
M 3366 5197 
L 2950 5062 
C 3149 4806 3328 4518 3494 4186 
L 3885 4358 
C 3738 4653 3565 4934 3366 5197 
z
" transform="scale(0.015625)"/>
      <path id="PingFangHK-Regular-5ea6" d="M 1670 1709 
L 1670 1312 
L 2061 1312 
C 2355 909 2746 557 3219 262 
C 2643 19 1978 -154 1235 -262 
L 1434 -666 
C 2278 -525 3027 -294 3674 13 
C 4282 -294 5030 -518 5914 -666 
L 6112 -269 
C 5350 -166 4685 6 4109 250 
C 4627 557 5062 934 5421 1370 
L 5421 1709 
L 1670 1709 
z
M 2547 1312 
L 4819 1312 
C 4486 986 4096 704 3648 467 
C 3206 698 2842 979 2547 1312 
z
M 1299 3142 
L 2374 3142 
L 2374 2144 
L 4966 2144 
L 4966 3142 
L 5952 3142 
L 5952 3565 
L 4966 3565 
L 4966 4090 
L 4518 4090 
L 4518 3565 
L 2822 3565 
L 2822 4083 
L 2374 4083 
L 2374 3565 
L 1299 3565 
L 1299 4294 
L 5965 4294 
L 5965 4730 
L 3770 4730 
C 3699 4922 3622 5101 3546 5261 
L 3059 5184 
C 3149 5043 3226 4896 3302 4730 
L 838 4730 
L 838 2643 
C 826 1382 634 397 262 -314 
L 608 -621 
C 1043 198 1274 1286 1299 2643 
L 1299 3142 
z
M 2822 3142 
L 4518 3142 
L 4518 2534 
L 2822 2534 
L 2822 3142 
z
" transform="scale(0.015625)"/>
      <path id="PingFangHK-Regular-5f31" d="M 2458 1606 
C 1862 1171 1158 800 352 493 
L 538 70 
C 1267 390 1907 742 2445 1139 
C 2432 762 2413 480 2387 301 
C 2323 -26 2112 -192 1741 -192 
C 1549 -192 1357 -179 1165 -166 
L 1274 -570 
C 1466 -582 1651 -595 1830 -595 
C 2406 -570 2733 -326 2816 134 
C 2886 563 2925 1453 2925 2797 
L 1062 2797 
L 1152 3469 
L 2771 3469 
L 2771 4998 
L 589 4998 
L 589 4602 
L 2310 4602 
L 2310 3872 
L 736 3872 
L 570 2406 
L 2464 2406 
C 2464 2118 2458 1850 2458 1606 
z
M 698 2016 
L 499 1632 
C 890 1542 1267 1421 1632 1261 
L 1786 1664 
C 1440 1818 1075 1939 698 2016 
z
M 5318 1613 
C 4730 1184 4032 819 3226 512 
L 3411 90 
C 4134 403 4768 755 5306 1146 
C 5293 768 5280 486 5254 301 
C 5197 -19 4998 -186 4659 -186 
C 4435 -186 4211 -173 3994 -154 
L 4109 -576 
C 4326 -589 4544 -595 4755 -595 
C 5293 -570 5606 -326 5683 134 
C 5747 563 5786 1453 5786 2797 
L 3878 2797 
L 3974 3469 
L 5638 3469 
L 5638 4998 
L 3450 4998 
L 3450 4602 
L 5178 4602 
L 5178 3872 
L 3565 3872 
L 3392 2406 
L 5325 2406 
C 5325 2125 5318 1856 5318 1613 
z
M 3584 2042 
L 3386 1658 
C 3770 1568 4134 1446 4486 1293 
L 4653 1696 
C 4307 1850 3955 1965 3584 2042 
z
" transform="scale(0.015625)"/>
     </defs>
     <use xlink:href="#PingFangHK-Regular-68af"/>
     <use xlink:href="#PingFangHK-Regular-5ea6" transform="translate(99.999985 0)"/>
     <use xlink:href="#PingFangHK-Regular-5f31" transform="translate(199.999969 0)"/>
    </g>
   </g>
   <g id="text_29">
    <g id="patch_16">
     <path d="M 96.827254 68.330751 
L 128.466317 68.330751 
Q 132.466317 68.330751 132.466317 64.330751 
L 132.466317 44.054189 
Q 132.466317 40.054189 128.466317 40.054189 
L 96.827254 40.054189 
Q 92.827254 40.054189 92.827254 44.054189 
L 92.827254 64.330751 
Q 92.827254 68.330751 96.827254 68.330751 
z
" style="fill: #fef2f2; stroke: #fca5a5; stroke-linejoin: miter"/>
    </g>
    <!-- loss ↑ -->
    <g style="fill: #dc2626" transform="translate(96.827254 51.633876) scale(0.1 -0.1)">
     <defs>
      <path id="PingFangHK-Regular-2191" d="M 3200 5363 
L 1818 3872 
L 2061 3654 
L 2995 4557 
L 2995 -755 
L 3405 -755 
L 3405 4557 
L 4339 3654 
L 4582 3872 
L 3200 5363 
z
" transform="scale(0.015625)"/>
     </defs>
     <use xlink:href="#PingFangHK-Regular-6c"/>
     <use xlink:href="#PingFangHK-Regular-6f" transform="translate(23.499985 0)"/>
     <use xlink:href="#PingFangHK-Regular-73" transform="translate(82.099976 0)"/>
     <use xlink:href="#PingFangHK-Regular-73" transform="translate(132.59996 0)"/>
     <use xlink:href="#PingFangHK-Regular-20" transform="translate(183.099945 0)"/>
     <use xlink:href="#PingFangHK-Regular-2191" transform="translate(216.399933 0)"/>
    </g>
    <!-- 梯度强 -->
    <g style="fill: #dc2626" transform="translate(97.646786 62.351064) scale(0.1 -0.1)">
     <defs>
      <path id="PingFangHK-Regular-5f3a" d="M 2682 2829 
L 2682 1101 
L 4038 1101 
L 4038 70 
C 3539 19 3021 -32 2496 -70 
L 2605 -512 
C 3629 -410 4602 -294 5510 -154 
C 5568 -320 5626 -486 5677 -659 
L 6080 -506 
C 5952 -70 5766 416 5530 941 
L 5114 826 
C 5197 634 5280 442 5357 250 
C 5082 211 4794 166 4499 128 
L 4499 1101 
L 5850 1101 
L 5850 2829 
L 4499 2829 
L 4499 3373 
L 5632 3373 
L 5632 4973 
L 2912 4973 
L 2912 3373 
L 4038 3373 
L 4038 2829 
L 2682 2829 
z
M 5427 1498 
L 4499 1498 
L 4499 2432 
L 5427 2432 
L 5427 1498 
z
M 4038 1498 
L 3098 1498 
L 3098 2432 
L 4038 2432 
L 4038 1498 
z
M 1024 3123 
L 2195 3123 
L 2195 4973 
L 486 4973 
L 486 4544 
L 1760 4544 
L 1760 3539 
L 627 3539 
L 429 1683 
L 1811 1683 
C 1811 922 1779 422 1728 179 
C 1670 -51 1459 -173 1101 -173 
C 934 -173 768 -160 602 -147 
L 710 -570 
C 877 -582 1037 -595 1203 -595 
C 1760 -570 2080 -378 2157 -13 
C 2221 320 2259 1024 2259 2086 
L 896 2086 
L 1024 3123 
z
M 5210 3763 
L 3341 3763 
L 3341 4589 
L 5210 4589 
L 5210 3763 
z
" transform="scale(0.015625)"/>
     </defs>
     <use xlink:href="#PingFangHK-Regular-68af"/>
     <use xlink:href="#PingFangHK-Regular-5ea6" transform="translate(99.999985 0)"/>
     <use xlink:href="#PingFangHK-Regular-5f3a" transform="translate(199.999969 0)"/>
    </g>
   </g>
  </g>
 </g>
 <defs>
  <clipPath id="p46fe84d0a8">
   <rect x="69.76875" y="15.167812" width="343.024286" height="237.4"/>
  </clipPath>
 </defs>
</svg>
