<?xml version="1.0" encoding="utf-8" standalone="no"?>
<!DOCTYPE svg PUBLIC "-//W3C//DTD SVG 1.1//EN"
  "http://www.w3.org/Graphics/SVG/1.1/DTD/svg11.dtd">
<svg xmlns:xlink="http://www.w3.org/1999/xlink" width="997.206092pt" height="263.241406pt" viewBox="0 0 997.206092 263.241406" xmlns="http://www.w3.org/2000/svg" version="1.1">
 <metadata>
  <rdf:RDF xmlns:dc="http://purl.org/dc/elements/1.1/" xmlns:cc="http://creativecommons.org/ns#" xmlns:rdf="http://www.w3.org/1999/02/22-rdf-syntax-ns#">
   <cc:Work>
    <dc:type rdf:resource="http://purl.org/dc/dcmitype/StillImage"/>
    <dc:date>2026-04-17T10:54:28.718359</dc:date>
    <dc:format>image/svg+xml</dc:format>
    <dc:creator>
     <cc:Agent>
      <dc:title>Matplotlib v3.10.8, https://matplotlib.org/</dc:title>
     </cc:Agent>
    </dc:creator>
   </cc:Work>
  </rdf:RDF>
 </metadata>
 <defs>
  <style type="text/css">*{stroke-linejoin: round; stroke-linecap: butt}</style>
 </defs>
 <g id="figure_1">
  <g id="patch_1">
   <path d="M 0 263.241406 
L 997.206092 263.241406 
L 997.206092 0 
L 0 0 
z
" style="fill: #ffffff"/>
  </g>
  <g id="axes_1">
   <g id="patch_2">
    <path d="M 46.341875 223.744844 
L 307.466092 223.744844 
L 307.466092 22.663594 
L 46.341875 22.663594 
z
" style="fill: #ffffff"/>
   </g>
   <g id="matplotlib.axis_1">
    <g id="xtick_1">
     <g id="line2d_1">
      <defs>
       <path id="ma4820831d8" d="M 0 0 
L 0 3.5 
" style="stroke: #000000; stroke-width: 0.8"/>
      </defs>
      <g>
       <use xlink:href="#ma4820831d8" x="58.211158" y="223.744844" style="stroke: #000000; stroke-width: 0.8"/>
      </g>
     </g>
     <g id="text_1">
      <!-- 0 -->
      <g transform="translate(54.911158 238.7525) scale(0.11 -0.11)">
       <defs>
        <path id="PingFangHK-Regular-30" d="M 1920 4659 
C 1370 4659 960 4422 685 3936 
C 442 3526 320 2976 320 2285 
C 320 1594 442 1043 685 634 
C 960 154 1370 -90 1920 -90 
C 2464 -90 2874 154 3155 634 
C 3398 1043 3520 1594 3520 2285 
C 3520 2976 3398 3526 3155 3936 
C 2874 4422 2464 4659 1920 4659 
z
M 1920 4211 
C 2330 4211 2624 3994 2803 3552 
C 2931 3245 3002 2822 3002 2285 
C 3002 1754 2931 1331 2803 1018 
C 2624 582 2330 358 1920 358 
C 1510 358 1216 582 1037 1018 
C 909 1331 845 1754 845 2285 
C 845 2822 909 3245 1037 3552 
C 1216 3994 1510 4211 1920 4211 
z
" transform="scale(0.015625)"/>
       </defs>
       <use xlink:href="#PingFangHK-Regular-30"/>
      </g>
     </g>
    </g>
    <g id="xtick_2">
     <g id="line2d_2">
      <g>
       <use xlink:href="#ma4820831d8" x="117.855794" y="223.744844" style="stroke: #000000; stroke-width: 0.8"/>
      </g>
     </g>
     <g id="text_2">
      <!-- 50 -->
      <g transform="translate(111.255794 238.7525) scale(0.11 -0.11)">
       <defs>
        <path id="PingFangHK-Regular-35" d="M 672 4570 
L 429 2048 
L 928 2048 
C 1018 2227 1158 2368 1338 2458 
C 1510 2554 1702 2598 1920 2598 
C 2253 2598 2515 2502 2701 2298 
C 2893 2099 2995 1818 2995 1453 
C 2995 1133 2886 870 2682 666 
C 2470 461 2208 358 1888 358 
C 1606 358 1370 429 1190 563 
C 986 717 870 941 845 1229 
L 326 1229 
C 358 813 531 480 851 237 
C 1133 19 1478 -90 1882 -90 
C 2330 -90 2714 51 3021 326 
C 3347 621 3514 998 3514 1459 
C 3514 1952 3373 2336 3104 2618 
C 2835 2893 2483 3027 2048 3027 
C 1837 3027 1645 2995 1466 2918 
C 1267 2842 1101 2726 973 2573 
L 947 2573 
L 1101 4102 
L 3328 4102 
L 3328 4570 
L 672 4570 
z
" transform="scale(0.015625)"/>
       </defs>
       <use xlink:href="#PingFangHK-Regular-35"/>
       <use xlink:href="#PingFangHK-Regular-30" transform="translate(59.999985 0)"/>
      </g>
     </g>
    </g>
    <g id="xtick_3">
     <g id="line2d_3">
      <g>
       <use xlink:href="#ma4820831d8" x="177.50043" y="223.744844" style="stroke: #000000; stroke-width: 0.8"/>
      </g>
     </g>
     <g id="text_3">
      <!-- 100 -->
      <g transform="translate(168.695274 238.7525) scale(0.11 -0.11)">
       <defs>
        <path id="PingFangHK-Regular-31" d="M 1472 4570 
C 1318 4397 1139 4243 922 4102 
C 704 3974 486 3885 282 3827 
L 282 3302 
C 710 3430 1069 3635 1357 3930 
L 1357 0 
L 1882 0 
L 1882 4570 
L 1472 4570 
z
" transform="scale(0.015625)"/>
       </defs>
       <use xlink:href="#PingFangHK-Regular-31"/>
       <use xlink:href="#PingFangHK-Regular-30" transform="translate(40.099991 0)"/>
       <use xlink:href="#PingFangHK-Regular-30" transform="translate(100.099976 0)"/>
      </g>
     </g>
    </g>
    <g id="xtick_4">
     <g id="line2d_4">
      <g>
       <use xlink:href="#ma4820831d8" x="237.145066" y="223.744844" style="stroke: #000000; stroke-width: 0.8"/>
      </g>
     </g>
     <g id="text_4">
      <!-- 150 -->
      <g transform="translate(228.33991 238.7525) scale(0.11 -0.11)">
       <use xlink:href="#PingFangHK-Regular-31"/>
       <use xlink:href="#PingFangHK-Regular-35" transform="translate(40.099991 0)"/>
       <use xlink:href="#PingFangHK-Regular-30" transform="translate(100.099976 0)"/>
      </g>
     </g>
    </g>
    <g id="xtick_5">
     <g id="line2d_5">
      <g>
       <use xlink:href="#ma4820831d8" x="296.789702" y="223.744844" style="stroke: #000000; stroke-width: 0.8"/>
      </g>
     </g>
     <g id="text_5">
      <!-- 200 -->
      <g transform="translate(286.889702 238.7525) scale(0.11 -0.11)">
       <defs>
        <path id="PingFangHK-Regular-32" d="M 1984 4659 
C 1523 4659 1146 4506 864 4198 
C 582 3898 435 3488 435 2976 
L 960 2976 
C 966 3379 1062 3686 1242 3891 
C 1408 4109 1651 4211 1965 4211 
C 2259 4211 2496 4134 2662 3981 
C 2829 3827 2912 3616 2912 3334 
C 2912 3040 2790 2765 2560 2515 
C 2438 2387 2202 2202 1843 1946 
C 1357 1613 1030 1338 851 1133 
C 544 794 397 416 397 0 
L 3443 0 
L 3443 467 
L 1043 467 
C 1126 774 1459 1126 2042 1517 
C 2515 1837 2829 2086 2989 2253 
C 3283 2573 3437 2931 3437 3328 
C 3437 3725 3296 4051 3027 4294 
C 2752 4538 2406 4659 1984 4659 
z
" transform="scale(0.015625)"/>
       </defs>
       <use xlink:href="#PingFangHK-Regular-32"/>
       <use xlink:href="#PingFangHK-Regular-30" transform="translate(59.999985 0)"/>
       <use xlink:href="#PingFangHK-Regular-30" transform="translate(119.999969 0)"/>
      </g>
     </g>
    </g>
    <g id="text_6">
     <!-- 训练步数 -->
     <g transform="translate(152.903984 253.665781) scale(0.12 -0.12)">
      <defs>
       <path id="PingFangHK-Regular-8bad" d="M 4083 4787 
L 4083 -218 
L 4525 -218 
L 4525 4787 
L 4083 4787 
z
M 5421 5101 
L 5421 -653 
L 5875 -653 
L 5875 5101 
L 5421 5101 
z
M 2810 5082 
L 2810 2266 
C 2797 1056 2541 179 2029 -371 
L 2374 -678 
C 2944 -58 3238 922 3251 2266 
L 3251 5082 
L 2810 5082 
z
M 1037 5165 
L 717 4851 
C 1178 4506 1549 4173 1818 3859 
L 2131 4179 
C 1837 4512 1472 4838 1037 5165 
z
M 288 3270 
L 288 2829 
L 1229 2829 
L 1229 339 
C 1229 230 1178 134 1088 51 
L 1267 -358 
C 1651 -77 2010 243 2349 602 
L 2227 1082 
C 2035 877 1850 691 1670 525 
L 1670 3270 
L 288 3270 
z
" transform="scale(0.015625)"/>
       <path id="PingFangHK-Regular-7ec3" d="M 2310 659 
C 1734 416 1050 218 269 77 
L 326 -384 
C 1069 -230 1734 -38 2310 205 
L 2310 659 
z
M 1344 5216 
C 1114 4461 845 3795 525 3213 
C 467 3130 403 3072 326 3034 
L 442 2611 
C 774 2669 1101 2733 1427 2797 
C 1107 2195 832 1773 608 1517 
C 550 1466 480 1421 403 1382 
L 525 954 
C 1114 1043 1722 1203 2362 1446 
L 2362 1862 
C 1933 1702 1504 1574 1075 1485 
C 1421 1939 1869 2701 2406 3770 
L 1984 3930 
C 1869 3680 1754 3443 1638 3213 
C 1382 3162 1126 3117 870 3078 
C 1178 3571 1478 4224 1786 5043 
L 1344 5216 
z
M 3085 1363 
C 2899 838 2630 326 2278 -179 
L 2675 -403 
C 2982 38 3251 570 3488 1197 
L 3085 1363 
z
M 5485 1370 
L 5075 1235 
C 5331 762 5568 218 5779 -397 
L 6170 -224 
C 5978 339 5747 870 5485 1370 
z
M 4058 -582 
C 4422 -582 4608 -410 4608 -70 
L 4608 1734 
L 5971 1734 
L 5971 2144 
L 4608 2144 
L 4608 3386 
L 3750 3386 
C 3827 3603 3904 3840 3981 4083 
L 5971 4083 
L 5971 4512 
L 4109 4512 
C 4166 4717 4224 4928 4282 5152 
L 3834 5235 
C 3770 4986 3712 4742 3648 4512 
L 2227 4512 
L 2227 4083 
L 3520 4083 
C 3443 3840 3366 3610 3290 3386 
L 2458 3386 
L 2458 2970 
L 3123 2970 
C 2989 2662 2848 2381 2707 2131 
L 2810 1734 
L 4166 1734 
L 4166 70 
C 4166 -96 4083 -179 3923 -179 
L 3309 -160 
L 3424 -582 
L 4058 -582 
z
M 3590 2970 
L 4166 2970 
L 4166 2144 
L 3219 2144 
C 3347 2400 3469 2675 3590 2970 
z
" transform="scale(0.015625)"/>
       <path id="PingFangHK-Regular-6b65" d="M 3002 5242 
L 3002 3142 
L 1805 3142 
L 1805 4742 
L 1338 4742 
L 1338 3142 
L 358 3142 
L 358 2694 
L 3040 2694 
L 3040 762 
L 3501 762 
L 3501 2694 
L 6042 2694 
L 6042 3142 
L 3469 3142 
L 3469 4026 
L 5408 4026 
L 5408 4467 
L 3469 4467 
L 3469 5242 
L 3002 5242 
z
M 5088 2227 
C 4384 595 2925 -224 710 -224 
L 877 -666 
C 3155 -659 4704 230 5510 2003 
L 5088 2227 
z
M 1894 2406 
C 1523 1843 1062 1350 518 928 
L 806 557 
C 1370 998 1837 1517 2221 2112 
L 1894 2406 
z
" transform="scale(0.015625)"/>
       <path id="PingFangHK-Regular-6570" d="M 4166 3808 
L 5190 3808 
C 5165 2906 5018 2125 4742 1466 
C 4499 1901 4307 2381 4154 2893 
L 3795 2688 
C 3974 2074 4211 1510 4512 998 
C 4218 486 3827 64 3341 -269 
L 3584 -659 
C 4058 -314 4448 102 4762 602 
C 5069 141 5440 -275 5869 -653 
L 6163 -307 
C 5715 83 5325 531 4998 1037 
C 5370 1805 5574 2726 5606 3808 
L 6074 3808 
L 6074 4250 
L 4275 4250 
C 4339 4531 4397 4838 4448 5165 
L 4006 5242 
C 3859 4102 3578 3194 3155 2528 
L 3437 2176 
C 3738 2611 3981 3155 4166 3808 
z
M 1504 2278 
C 1453 2144 1402 2003 1338 1850 
L 403 1850 
L 403 1446 
L 1152 1446 
C 1024 1203 883 947 717 678 
C 1043 550 1350 429 1638 301 
C 1261 83 800 -96 256 -237 
L 474 -621 
C 1126 -442 1664 -198 2093 96 
C 2470 -83 2803 -256 3085 -429 
L 3328 -70 
C 3040 90 2746 237 2445 378 
C 2778 685 3014 1050 3155 1472 
L 3155 1850 
L 1792 1850 
C 1843 1978 1888 2099 1933 2227 
L 1504 2278 
z
M 2022 563 
C 1779 672 1530 768 1274 858 
C 1395 1043 1510 1242 1613 1446 
L 2733 1446 
C 2579 1114 2342 819 2022 563 
z
M 941 5146 
L 570 5024 
C 723 4787 870 4518 1005 4211 
L 1338 4358 
C 1222 4640 1094 4902 941 5146 
z
M 2886 5171 
C 2765 4909 2605 4640 2413 4371 
L 2739 4205 
C 2938 4467 3104 4736 3232 5011 
L 2886 5171 
z
M 429 4000 
L 429 3597 
L 1421 3597 
C 1203 3238 819 2918 269 2637 
L 506 2259 
C 1056 2592 1446 2982 1690 3430 
L 1690 2362 
L 2112 2362 
L 2112 3142 
C 2330 2982 2592 2765 2893 2490 
L 3130 2848 
C 2790 3085 2451 3296 2112 3482 
L 2112 3597 
L 3270 3597 
L 3270 4000 
L 2112 4000 
L 2112 5222 
L 1690 5222 
L 1690 4000 
L 429 4000 
z
" transform="scale(0.015625)"/>
      </defs>
      <use xlink:href="#PingFangHK-Regular-8bad"/>
      <use xlink:href="#PingFangHK-Regular-7ec3" transform="translate(99.999985 0)"/>
      <use xlink:href="#PingFangHK-Regular-6b65" transform="translate(199.999969 0)"/>
      <use xlink:href="#PingFangHK-Regular-6570" transform="translate(299.999954 0)"/>
     </g>
    </g>
   </g>
   <g id="matplotlib.axis_2">
    <g id="ytick_1">
     <g id="line2d_6">
      <defs>
       <path id="mb1196bba04" d="M 0 0 
L -3.5 0 
" style="stroke: #000000; stroke-width: 0.8"/>
      </defs>
      <g>
       <use xlink:href="#mb1196bba04" x="46.341875" y="219.122286" style="stroke: #000000; stroke-width: 0.8"/>
      </g>
     </g>
     <g id="text_7">
      <!-- 0.0 -->
      <g transform="translate(23.237188 223.126114) scale(0.11 -0.11)">
       <defs>
        <path id="PingFangHK-Regular-2e" d="M 845 762 
C 730 762 640 723 570 646 
C 493 570 454 480 454 365 
C 454 256 493 166 570 90 
C 640 13 730 -26 845 -26 
C 947 -26 1043 13 1120 90 
C 1197 166 1235 256 1235 365 
C 1235 480 1197 570 1120 646 
C 1043 723 947 762 845 762 
z
" transform="scale(0.015625)"/>
       </defs>
       <use xlink:href="#PingFangHK-Regular-30"/>
       <use xlink:href="#PingFangHK-Regular-2e" transform="translate(59.999985 0)"/>
       <use xlink:href="#PingFangHK-Regular-30" transform="translate(86.399979 0)"/>
      </g>
     </g>
    </g>
    <g id="ytick_2">
     <g id="line2d_7">
      <g>
       <use xlink:href="#mb1196bba04" x="46.341875" y="196.009499" style="stroke: #000000; stroke-width: 0.8"/>
      </g>
     </g>
     <g id="text_8">
      <!-- 0.1 -->
      <g transform="translate(25.426875 200.013327) scale(0.11 -0.11)">
       <use xlink:href="#PingFangHK-Regular-30"/>
       <use xlink:href="#PingFangHK-Regular-2e" transform="translate(59.999985 0)"/>
       <use xlink:href="#PingFangHK-Regular-31" transform="translate(86.399979 0)"/>
      </g>
     </g>
    </g>
    <g id="ytick_3">
     <g id="line2d_8">
      <g>
       <use xlink:href="#mb1196bba04" x="46.341875" y="172.896712" style="stroke: #000000; stroke-width: 0.8"/>
      </g>
     </g>
     <g id="text_9">
      <!-- 0.2 -->
      <g transform="translate(23.237188 176.90054) scale(0.11 -0.11)">
       <use xlink:href="#PingFangHK-Regular-30"/>
       <use xlink:href="#PingFangHK-Regular-2e" transform="translate(59.999985 0)"/>
       <use xlink:href="#PingFangHK-Regular-32" transform="translate(86.399979 0)"/>
      </g>
     </g>
    </g>
    <g id="ytick_4">
     <g id="line2d_9">
      <g>
       <use xlink:href="#mb1196bba04" x="46.341875" y="149.783924" style="stroke: #000000; stroke-width: 0.8"/>
      </g>
     </g>
     <g id="text_10">
      <!-- 0.3 -->
      <g transform="translate(23.237188 153.787752) scale(0.11 -0.11)">
       <defs>
        <path id="PingFangHK-Regular-33" d="M 1965 4659 
C 1530 4659 1178 4538 909 4288 
C 627 4038 461 3693 422 3251 
L 941 3251 
C 973 3558 1075 3795 1254 3962 
C 1427 4128 1664 4205 1971 4205 
C 2266 4205 2502 4134 2669 3981 
C 2822 3840 2906 3642 2906 3386 
C 2906 3130 2822 2931 2662 2790 
C 2502 2656 2272 2586 1965 2586 
L 1613 2586 
L 1613 2176 
L 1984 2176 
C 2304 2176 2547 2106 2726 1952 
C 2906 1798 2995 1587 2995 1312 
C 2995 1043 2899 819 2720 640 
C 2522 454 2259 358 1933 358 
C 1645 358 1408 442 1216 595 
C 992 781 870 1056 858 1414 
L 326 1414 
C 365 902 544 512 870 243 
C 1146 26 1498 -90 1933 -90 
C 2406 -90 2790 45 3085 314 
C 3373 576 3520 915 3520 1331 
C 3520 1600 3443 1824 3290 2003 
C 3149 2182 2944 2310 2675 2394 
C 3174 2560 3424 2906 3424 3418 
C 3424 3802 3290 4102 3027 4326 
C 2758 4550 2400 4659 1965 4659 
z
" transform="scale(0.015625)"/>
       </defs>
       <use xlink:href="#PingFangHK-Regular-30"/>
       <use xlink:href="#PingFangHK-Regular-2e" transform="translate(59.999985 0)"/>
       <use xlink:href="#PingFangHK-Regular-33" transform="translate(86.399979 0)"/>
      </g>
     </g>
    </g>
    <g id="ytick_5">
     <g id="line2d_10">
      <g>
       <use xlink:href="#mb1196bba04" x="46.341875" y="126.671137" style="stroke: #000000; stroke-width: 0.8"/>
      </g>
     </g>
     <g id="text_11">
      <!-- 0.4 -->
      <g transform="translate(23.237188 130.674965) scale(0.11 -0.11)">
       <defs>
        <path id="PingFangHK-Regular-34" d="M 2458 4570 
L 154 1536 
L 154 1037 
L 2451 1037 
L 2451 0 
L 2950 0 
L 2950 1037 
L 3693 1037 
L 3693 1466 
L 2950 1466 
L 2950 4570 
L 2458 4570 
z
M 2432 3885 
L 2451 3885 
L 2451 1466 
L 595 1466 
L 2432 3885 
z
" transform="scale(0.015625)"/>
       </defs>
       <use xlink:href="#PingFangHK-Regular-30"/>
       <use xlink:href="#PingFangHK-Regular-2e" transform="translate(59.999985 0)"/>
       <use xlink:href="#PingFangHK-Regular-34" transform="translate(86.399979 0)"/>
      </g>
     </g>
    </g>
    <g id="ytick_6">
     <g id="line2d_11">
      <g>
       <use xlink:href="#mb1196bba04" x="46.341875" y="103.558349" style="stroke: #000000; stroke-width: 0.8"/>
      </g>
     </g>
     <g id="text_12">
      <!-- 0.5 -->
      <g transform="translate(23.237188 107.562178) scale(0.11 -0.11)">
       <use xlink:href="#PingFangHK-Regular-30"/>
       <use xlink:href="#PingFangHK-Regular-2e" transform="translate(59.999985 0)"/>
       <use xlink:href="#PingFangHK-Regular-35" transform="translate(86.399979 0)"/>
      </g>
     </g>
    </g>
    <g id="ytick_7">
     <g id="line2d_12">
      <g>
       <use xlink:href="#mb1196bba04" x="46.341875" y="80.445562" style="stroke: #000000; stroke-width: 0.8"/>
      </g>
     </g>
     <g id="text_13">
      <!-- 0.6 -->
      <g transform="translate(23.237188 84.44939) scale(0.11 -0.11)">
       <defs>
        <path id="PingFangHK-Regular-36" d="M 1984 4659 
C 1466 4659 1056 4422 755 3942 
C 467 3488 326 2893 326 2163 
C 326 1466 454 922 723 531 
C 1005 122 1421 -90 1978 -90 
C 2426 -90 2790 64 3085 358 
C 3373 653 3520 1030 3520 1478 
C 3520 1926 3386 2285 3123 2566 
C 2854 2848 2502 2989 2067 2989 
C 1798 2989 1562 2925 1357 2790 
C 1139 2662 979 2477 864 2240 
L 838 2240 
C 832 2323 832 2381 832 2406 
C 832 2925 928 3354 1133 3686 
C 1338 4045 1619 4218 1978 4218 
C 2509 4218 2822 3962 2925 3437 
L 3443 3437 
C 3315 4256 2829 4659 1984 4659 
z
M 1965 2554 
C 2278 2554 2528 2458 2720 2253 
C 2906 2061 3002 1805 3002 1478 
C 3002 1152 2906 883 2714 666 
C 2522 461 2272 352 1965 352 
C 1645 352 1395 461 1203 678 
C 1011 883 922 1146 922 1466 
C 922 1786 1018 2042 1216 2246 
C 1414 2451 1664 2554 1965 2554 
z
" transform="scale(0.015625)"/>
       </defs>
       <use xlink:href="#PingFangHK-Regular-30"/>
       <use xlink:href="#PingFangHK-Regular-2e" transform="translate(59.999985 0)"/>
       <use xlink:href="#PingFangHK-Regular-36" transform="translate(86.399979 0)"/>
      </g>
     </g>
    </g>
    <g id="ytick_8">
     <g id="line2d_13">
      <g>
       <use xlink:href="#mb1196bba04" x="46.341875" y="57.332775" style="stroke: #000000; stroke-width: 0.8"/>
      </g>
     </g>
     <g id="text_14">
      <!-- 0.7 -->
      <g transform="translate(23.819844 61.336603) scale(0.11 -0.11)">
       <defs>
        <path id="PingFangHK-Regular-37" d="M 218 4570 
L 218 4090 
L 2682 4090 
L 979 0 
L 1536 0 
L 3219 4141 
L 3219 4570 
L 218 4570 
z
" transform="scale(0.015625)"/>
       </defs>
       <use xlink:href="#PingFangHK-Regular-30"/>
       <use xlink:href="#PingFangHK-Regular-2e" transform="translate(59.999985 0)"/>
       <use xlink:href="#PingFangHK-Regular-37" transform="translate(86.399979 0)"/>
      </g>
     </g>
    </g>
    <g id="ytick_9">
     <g id="line2d_14">
      <g>
       <use xlink:href="#mb1196bba04" x="46.341875" y="34.219987" style="stroke: #000000; stroke-width: 0.8"/>
      </g>
     </g>
     <g id="text_15">
      <!-- 0.8 -->
      <g transform="translate(23.237188 38.223816) scale(0.11 -0.11)">
       <defs>
        <path id="PingFangHK-Regular-38" d="M 1920 4659 
C 1440 4659 1069 4538 800 4288 
C 550 4064 429 3782 429 3450 
C 429 3206 486 3002 602 2835 
C 723 2656 902 2522 1146 2438 
L 1146 2426 
C 902 2368 704 2234 538 2029 
C 358 1811 269 1555 269 1261 
C 269 858 410 531 691 288 
C 979 38 1389 -90 1920 -90 
C 2445 -90 2854 38 3149 288 
C 3430 531 3571 858 3571 1261 
C 3571 1555 3482 1811 3302 2029 
C 3136 2234 2931 2368 2694 2426 
L 2694 2438 
C 2931 2522 3110 2656 3238 2835 
C 3354 3002 3411 3206 3411 3450 
C 3411 3782 3283 4064 3040 4288 
C 2771 4538 2394 4659 1920 4659 
z
M 1920 4230 
C 2240 4230 2496 4147 2682 3981 
C 2835 3840 2918 3654 2918 3430 
C 2918 3200 2848 3008 2707 2867 
C 2534 2701 2272 2611 1920 2611 
C 1562 2611 1299 2701 1133 2867 
C 992 3008 922 3200 922 3430 
C 922 3654 998 3840 1158 3981 
C 1338 4147 1594 4230 1920 4230 
z
M 1920 2202 
C 2285 2202 2573 2112 2778 1926 
C 2957 1760 3053 1536 3053 1261 
C 3053 992 2957 774 2778 608 
C 2573 429 2291 339 1920 339 
C 1549 339 1261 429 1069 602 
C 877 768 787 992 787 1261 
C 787 1536 877 1760 1069 1926 
C 1267 2112 1549 2202 1920 2202 
z
" transform="scale(0.015625)"/>
       </defs>
       <use xlink:href="#PingFangHK-Regular-30"/>
       <use xlink:href="#PingFangHK-Regular-2e" transform="translate(59.999985 0)"/>
       <use xlink:href="#PingFangHK-Regular-38" transform="translate(86.399979 0)"/>
      </g>
     </g>
    </g>
    <g id="text_16">
     <!-- Loss -->
     <g style="fill: #ef4444" transform="translate(16.663594 137.399609) rotate(-90) scale(0.13 -0.13)">
      <defs>
       <path id="PingFangHK-Regular-4c" d="M 461 4570 
L 461 0 
L 3622 0 
L 3622 454 
L 979 454 
L 979 4570 
L 461 4570 
z
" transform="scale(0.015625)"/>
       <path id="PingFangHK-Regular-6f" d="M 1875 3398 
C 1376 3398 986 3232 691 2886 
C 410 2560 269 2150 269 1651 
C 269 1158 410 749 691 429 
C 986 83 1376 -90 1875 -90 
C 2368 -90 2765 83 3066 429 
C 3341 749 3482 1158 3482 1651 
C 3482 2150 3341 2560 3059 2886 
C 2765 3232 2368 3398 1875 3398 
z
M 1875 2970 
C 2221 2970 2496 2835 2701 2566 
C 2874 2323 2963 2022 2963 1651 
C 2963 1293 2874 986 2701 742 
C 2496 474 2221 339 1875 339 
C 1523 339 1248 474 1056 742 
C 877 986 794 1286 794 1651 
C 794 2022 877 2323 1056 2566 
C 1248 2835 1523 2970 1875 2970 
z
" transform="scale(0.015625)"/>
       <path id="PingFangHK-Regular-73" d="M 1568 3398 
C 1197 3398 890 3315 659 3149 
C 410 2982 288 2765 288 2483 
C 288 2202 410 1990 666 1837 
C 819 1734 1094 1638 1485 1542 
C 1843 1453 2080 1382 2189 1331 
C 2394 1229 2502 1088 2502 902 
C 2502 531 2202 339 1613 339 
C 1331 339 1120 390 979 493 
C 838 608 742 794 704 1056 
L 205 1056 
C 282 294 755 -90 1626 -90 
C 2560 -90 3027 256 3027 934 
C 3027 1222 2893 1446 2630 1613 
C 2458 1722 2176 1824 1779 1920 
C 1446 2010 1216 2080 1094 2138 
C 902 2234 813 2355 813 2496 
C 813 2643 883 2758 1024 2842 
C 1152 2931 1331 2970 1562 2970 
C 1824 2970 2029 2918 2170 2816 
C 2298 2726 2381 2573 2426 2368 
L 2925 2368 
C 2835 3059 2387 3398 1568 3398 
z
" transform="scale(0.015625)"/>
      </defs>
      <use xlink:href="#PingFangHK-Regular-4c"/>
      <use xlink:href="#PingFangHK-Regular-6f" transform="translate(58.799988 0)"/>
      <use xlink:href="#PingFangHK-Regular-73" transform="translate(117.399979 0)"/>
      <use xlink:href="#PingFangHK-Regular-73" transform="translate(167.899963 0)"/>
     </g>
    </g>
   </g>
   <g id="line2d_15">
    <path d="M 58.211158 31.211069 
L 59.40405 34.092556 
L 61.789836 42.347484 
L 62.982728 44.809633 
L 64.175621 48.289429 
L 65.368514 53.145858 
L 66.561407 55.996363 
L 67.754299 59.460731 
L 68.947192 64.102439 
L 70.140085 67.610975 
L 71.332978 71.678639 
L 72.52587 76.241711 
L 76.104548 85.176196 
L 77.297441 87.185391 
L 78.490334 89.608036 
L 79.683227 90.776138 
L 80.876119 92.741088 
L 83.261905 98.107372 
L 84.454798 99.834838 
L 85.64769 103.045941 
L 86.840583 105.90314 
L 88.033476 107.850423 
L 89.226368 109.386608 
L 90.419261 111.266969 
L 91.612154 113.765914 
L 92.805047 113.638815 
L 95.190832 117.992605 
L 96.383725 119.034046 
L 97.576617 121.232592 
L 99.962403 127.130077 
L 101.155296 128.959027 
L 102.348188 130.993747 
L 103.541081 131.196549 
L 104.733974 132.745352 
L 105.926867 132.951944 
L 107.119759 133.688319 
L 109.505545 138.651835 
L 110.698437 140.433929 
L 111.89133 140.931439 
L 113.084223 141.762729 
L 114.277116 143.206777 
L 115.470008 143.698918 
L 116.662901 144.83249 
L 117.855794 147.191529 
L 119.048686 148.133783 
L 120.241579 147.29671 
L 121.434472 147.948793 
L 122.627365 149.31029 
L 123.820257 150.076093 
L 125.01315 151.266091 
L 126.206043 152.275525 
L 127.398936 154.200521 
L 128.591828 154.670982 
L 129.784721 156.124517 
L 130.977614 158.062222 
L 132.170506 159.032147 
L 133.363399 158.595234 
L 134.556292 159.33153 
L 135.749185 158.663556 
L 136.942077 158.35872 
L 138.13497 160.12563 
L 139.327863 161.55297 
L 140.520755 161.155913 
L 141.713648 162.578149 
L 142.906541 162.428244 
L 144.099434 164.464763 
L 145.292326 164.796325 
L 146.485219 166.437217 
L 147.678112 167.238828 
L 148.871005 168.863941 
L 150.063897 169.014532 
L 151.25679 170.311133 
L 152.449683 170.684083 
L 153.642575 169.998385 
L 154.835468 170.954258 
L 156.028361 170.656436 
L 157.221254 171.358927 
L 158.414146 171.466201 
L 159.607039 172.745174 
L 160.799932 173.223412 
L 161.992824 172.765584 
L 163.185717 172.797698 
L 164.37861 173.197071 
L 165.571503 174.337333 
L 166.764395 174.612214 
L 167.957288 175.644753 
L 169.150181 177.121614 
L 170.343074 177.972957 
L 171.535966 177.680673 
L 172.728859 177.816179 
L 175.114644 178.379165 
L 178.693323 180.849024 
L 179.886215 181.11343 
L 181.079108 180.159322 
L 182.272001 178.859661 
L 183.464894 178.793434 
L 184.657786 178.3438 
L 185.850679 178.561779 
L 187.043572 180.443708 
L 188.236464 182.034567 
L 189.429357 182.371944 
L 190.62225 181.094271 
L 191.815143 181.421535 
L 193.008035 180.121444 
L 194.200928 180.360658 
L 196.586713 182.578224 
L 197.779606 182.140121 
L 198.972499 182.012027 
L 200.165392 182.824602 
L 201.358284 181.242586 
L 202.551177 183.20306 
L 203.74407 183.508719 
L 204.936963 182.724858 
L 206.129855 182.962999 
L 207.322748 184.505718 
L 208.515641 183.637603 
L 209.708533 184.562354 
L 210.901426 187.32095 
L 212.094319 186.747091 
L 213.287212 187.247553 
L 214.480104 187.140943 
L 215.672997 187.57826 
L 216.86589 185.573585 
L 218.058782 186.305863 
L 219.251675 185.930737 
L 220.444568 185.829774 
L 221.637461 186.177129 
L 222.830353 187.222275 
L 224.023246 185.897828 
L 225.216139 186.911032 
L 226.409032 187.465992 
L 227.601924 186.5483 
L 228.794817 186.277018 
L 229.98771 188.151363 
L 232.373495 187.930979 
L 233.566388 188.007594 
L 234.759281 188.475824 
L 235.952173 187.475271 
L 237.145066 187.126152 
L 238.337959 187.419618 
L 239.530851 187.512647 
L 240.723744 188.269739 
L 241.916637 187.302174 
L 243.10953 186.585898 
L 244.302422 187.65469 
L 245.495315 187.482361 
L 246.688208 187.740605 
L 247.881101 188.564367 
L 249.073993 188.163508 
L 251.459779 187.836236 
L 252.652671 186.942793 
L 253.845564 186.985449 
L 256.23135 186.203595 
L 257.424242 187.456286 
L 258.617135 188.419816 
L 259.810028 189.614534 
L 261.002921 191.040788 
L 262.195813 190.690257 
L 263.388706 190.030555 
L 264.581599 188.893651 
L 265.774491 188.371074 
L 266.967384 187.360577 
L 268.160277 187.830201 
L 269.35317 186.184276 
L 270.546062 186.371153 
L 271.738955 187.020492 
L 272.931848 188.815737 
L 274.12474 188.341432 
L 275.317633 190.42516 
L 276.510526 190.40552 
L 277.703419 189.523627 
L 278.896311 188.871166 
L 281.282097 190.764533 
L 282.47499 191.605935 
L 284.860775 191.212052 
L 286.053668 191.52274 
L 287.24656 190.385514 
L 288.439453 189.84114 
L 289.632346 191.07941 
L 290.825239 191.152093 
L 292.018131 190.278021 
L 293.211024 191.21994 
L 294.403917 191.51571 
L 295.596809 190.930749 
L 295.596809 190.930749 
" clip-path="url(#p12de761a7b)" style="fill: none; stroke: #ef4444; stroke-opacity: 0.9; stroke-width: 1.8; stroke-linecap: square"/>
   </g>
   <g id="line2d_16">
    <path d="M 46.341875 59.644054 
L 307.466092 59.644054 
" clip-path="url(#p12de761a7b)" style="fill: none; stroke-dasharray: 2.96,1.28; stroke-dashoffset: 0; stroke: #d1d5db; stroke-width: 0.8"/>
   </g>
   <g id="patch_3">
    <path d="M 46.341875 223.744844 
L 46.341875 22.663594 
" style="fill: none; stroke: #000000; stroke-width: 0.8; stroke-linejoin: miter; stroke-linecap: square"/>
   </g>
   <g id="patch_4">
    <path d="M 46.341875 223.744844 
L 307.466092 223.744844 
" style="fill: none; stroke: #000000; stroke-width: 0.8; stroke-linejoin: miter; stroke-linecap: square"/>
   </g>
   <g id="text_17">
    <!-- ln2 ≈ 0.69（随机水平） -->
    <g style="fill: #9ca3af" transform="translate(64.175621 52.710217) scale(0.09 -0.09)">
     <defs>
      <path id="PingFangHK-Regular-6c" d="M 499 4659 
L 499 0 
L 1005 0 
L 1005 4659 
L 499 4659 
z
" transform="scale(0.015625)"/>
      <path id="PingFangHK-Regular-6e" d="M 1946 3398 
C 1728 3398 1530 3347 1350 3245 
C 1171 3149 1024 3008 909 2822 
L 909 3309 
L 397 3309 
L 397 0 
L 909 0 
L 909 1997 
C 928 2298 1024 2534 1203 2714 
C 1370 2880 1568 2963 1798 2963 
C 2374 2963 2669 2643 2669 1997 
L 2669 0 
L 3181 0 
L 3181 2035 
C 3181 2944 2765 3398 1946 3398 
z
" transform="scale(0.015625)"/>
      <path id="PingFangHK-Regular-20" transform="scale(0.015625)"/>
      <path id="PingFangHK-Regular-2248" d="M 1600 3482 
C 1382 3482 1178 3418 986 3277 
C 845 3174 691 3008 525 2784 
L 838 2528 
C 1094 2880 1350 3053 1606 3053 
C 1798 3053 2086 2950 2458 2746 
C 2822 2554 3130 2451 3386 2451 
C 3610 2451 3814 2522 4000 2650 
C 4128 2752 4288 2925 4480 3155 
L 4166 3418 
C 3898 3059 3635 2874 3379 2874 
C 3187 2874 2906 2976 2534 3181 
C 2163 3386 1850 3482 1600 3482 
z
M 1600 2138 
C 1382 2138 1178 2067 986 1926 
C 845 1824 691 1658 525 1440 
L 838 1178 
C 1094 1536 1350 1709 1606 1709 
C 1798 1709 2086 1613 2458 1408 
C 2822 1203 3130 1101 3386 1101 
C 3610 1101 3814 1171 4000 1306 
C 4128 1408 4288 1574 4480 1811 
L 4166 2074 
C 3898 1715 3635 1530 3379 1530 
C 3187 1530 2906 1632 2534 1830 
C 2163 2035 1850 2138 1600 2138 
z
" transform="scale(0.015625)"/>
      <path id="PingFangHK-Regular-39" d="M 1869 4659 
C 1421 4659 1050 4512 762 4211 
C 467 3917 326 3546 326 3091 
C 326 2650 454 2291 717 2016 
C 986 1728 1338 1581 1779 1581 
C 2048 1581 2285 1651 2490 1779 
C 2701 1914 2867 2099 2982 2330 
L 3008 2330 
C 3008 2253 3014 2195 3014 2163 
C 3014 1651 2912 1222 2714 883 
C 2502 531 2221 352 1869 352 
C 1331 352 1018 614 922 1133 
L 403 1133 
C 525 320 1011 -90 1862 -90 
C 2374 -90 2784 154 3091 627 
C 3373 1088 3520 1677 3520 2406 
C 3520 3110 3386 3661 3117 4045 
C 2835 4454 2419 4659 1869 4659 
z
M 1882 4218 
C 2195 4218 2451 4109 2643 3891 
C 2829 3686 2925 3424 2925 3104 
C 2925 2790 2822 2528 2630 2323 
C 2426 2118 2176 2016 1882 2016 
C 1562 2016 1312 2118 1126 2317 
C 934 2509 845 2771 845 3091 
C 845 3424 934 3693 1126 3904 
C 1318 4115 1568 4218 1882 4218 
z
" transform="scale(0.015625)"/>
      <path id="PingFangHK-Regular-ff08" d="M 5440 5293 
C 5158 4883 4941 4442 4781 3974 
C 4589 3424 4499 2867 4499 2298 
C 4499 1741 4589 1184 4781 634 
C 4941 173 5158 -269 5440 -685 
L 5888 -685 
C 5632 -256 5427 186 5280 640 
C 5088 1203 4998 1760 4998 2304 
C 4998 2854 5088 3405 5280 3968 
C 5427 4429 5632 4870 5888 5293 
L 5440 5293 
z
" transform="scale(0.015625)"/>
      <path id="PingFangHK-Regular-968f" d="M 525 4986 
L 525 -582 
L 947 -582 
L 947 4570 
L 1690 4570 
C 1600 4070 1466 3507 1293 2886 
C 1574 2394 1722 1952 1722 1562 
C 1722 1414 1696 1312 1658 1248 
C 1606 1190 1536 1158 1434 1146 
C 1344 1146 1229 1152 1088 1165 
L 1222 736 
C 1581 742 1837 819 1984 973 
C 2086 1088 2138 1280 2138 1562 
C 2125 1952 1978 2413 1709 2950 
C 1869 3539 2003 4096 2112 4634 
L 2112 4986 
L 525 4986 
z
M 2682 5114 
L 2387 4832 
C 2714 4525 2976 4230 3168 3949 
L 3456 4237 
C 3245 4531 2989 4826 2682 5114 
z
M 2176 3616 
L 2176 3219 
L 2912 3219 
C 2771 2861 2592 2490 2387 2112 
L 2387 1786 
L 3104 1786 
C 3008 1344 2880 947 2720 602 
C 2464 550 2189 262 1901 -250 
L 2195 -518 
C 2470 -45 2682 186 2829 186 
C 2867 186 2912 166 2957 122 
C 3123 -83 3309 -237 3514 -339 
C 3693 -429 3949 -480 4294 -493 
C 4582 -506 4915 -512 5286 -512 
L 6061 -512 
L 6157 -77 
C 5773 -96 5466 -109 5229 -109 
L 4307 -109 
C 4019 -96 3795 -58 3642 13 
C 3482 102 3322 237 3168 416 
C 3136 448 3104 474 3078 499 
C 3251 851 3398 1306 3514 1862 
L 3514 2150 
L 2835 2150 
C 3021 2522 3187 2893 3334 3277 
L 3334 3616 
L 2176 3616 
z
M 3667 4563 
L 3667 4147 
L 4307 4147 
C 4096 3597 3795 3136 3405 2771 
L 3648 2458 
C 3763 2560 3878 2675 3994 2803 
L 3994 250 
L 4378 250 
L 4378 1363 
L 5402 1363 
L 5402 870 
C 5402 717 5344 634 5235 634 
C 5120 634 4992 646 4858 659 
L 4954 282 
L 5357 282 
C 5651 294 5798 448 5798 742 
L 5798 3533 
L 4467 3533 
C 4557 3718 4646 3923 4730 4147 
L 6061 4147 
L 6061 4563 
L 4864 4563 
C 4915 4755 4966 4954 5011 5165 
L 4582 5216 
C 4544 4992 4499 4774 4442 4563 
L 3667 4563 
z
M 4378 2253 
L 5402 2253 
L 5402 1722 
L 4378 1722 
L 4378 2253 
z
M 5402 2611 
L 4378 2611 
L 4378 3174 
L 5402 3174 
L 5402 2611 
z
" transform="scale(0.015625)"/>
      <path id="PingFangHK-Regular-673a" d="M 371 3974 
L 371 3533 
L 1306 3533 
C 1094 2733 742 2022 250 1402 
L 448 902 
C 806 1427 1101 2003 1325 2643 
L 1325 -608 
L 1786 -608 
L 1786 2765 
C 1965 2515 2176 2189 2419 1786 
L 2688 2182 
C 2381 2560 2080 2899 1786 3206 
L 1786 3533 
L 2579 3533 
L 2579 3974 
L 1786 3974 
L 1786 5222 
L 1325 5222 
L 1325 3974 
L 371 3974 
z
M 2278 -326 
L 2656 -666 
C 2957 -205 3162 269 3270 768 
C 3386 1242 3443 1830 3443 2534 
L 3443 4525 
L 4582 4525 
L 4582 70 
C 4582 -301 4787 -486 5197 -486 
L 5459 -486 
C 5664 -486 5818 -448 5920 -378 
C 6022 -288 6086 -134 6112 96 
C 6138 339 6157 685 6157 1146 
L 5734 1280 
C 5734 666 5715 301 5690 173 
C 5677 83 5645 26 5594 -13 
C 5549 -38 5491 -51 5414 -51 
L 5197 -51 
C 5094 -51 5050 6 5050 115 
L 5050 4960 
L 2982 4960 
L 2982 2534 
C 2982 1875 2938 1350 2854 960 
C 2746 506 2554 77 2278 -326 
z
" transform="scale(0.015625)"/>
      <path id="PingFangHK-Regular-6c34" d="M 435 3603 
L 435 3155 
L 2061 3155 
C 1728 1965 1126 1043 250 397 
L 544 19 
C 1530 749 2182 1824 2515 3238 
L 2515 3603 
L 435 3603 
z
M 5389 4218 
C 4966 3667 4499 3174 3981 2746 
C 3789 3104 3622 3488 3488 3898 
L 3488 5254 
L 3014 5254 
L 3014 102 
C 3014 -90 2925 -192 2758 -192 
C 2515 -192 2253 -179 1984 -160 
L 2080 -614 
L 2918 -614 
C 3296 -614 3488 -410 3488 -13 
L 3488 2899 
C 3962 1786 4762 800 5875 -58 
L 6157 358 
C 5350 896 4691 1568 4192 2381 
C 4736 2803 5261 3328 5760 3942 
L 5389 4218 
z
" transform="scale(0.015625)"/>
      <path id="PingFangHK-Regular-5e73" d="M 621 4941 
L 621 4493 
L 2938 4493 
L 2938 2074 
L 365 2074 
L 365 1632 
L 2938 1632 
L 2938 -634 
L 3411 -634 
L 3411 1632 
L 6035 1632 
L 6035 2074 
L 3411 2074 
L 3411 4493 
L 5792 4493 
L 5792 4941 
L 621 4941 
z
M 1402 4083 
L 973 3872 
C 1216 3443 1446 2957 1664 2406 
L 2093 2618 
C 1875 3149 1645 3635 1402 4083 
z
M 5030 4115 
C 4845 3629 4595 3142 4282 2643 
L 4691 2432 
C 5005 2918 5261 3411 5453 3917 
L 5030 4115 
z
" transform="scale(0.015625)"/>
      <path id="PingFangHK-Regular-ff09" d="M 512 5293 
C 768 4870 966 4429 1120 3968 
C 1306 3405 1402 2854 1402 2304 
C 1402 1760 1306 1203 1120 640 
C 966 186 768 -256 512 -685 
L 960 -685 
C 1235 -269 1453 173 1619 634 
C 1805 1184 1901 1741 1901 2298 
C 1901 2867 1805 3424 1619 3974 
C 1453 4442 1235 4883 960 5293 
L 512 5293 
z
" transform="scale(0.015625)"/>
     </defs>
     <use xlink:href="#PingFangHK-Regular-6c"/>
     <use xlink:href="#PingFangHK-Regular-6e" transform="translate(23.499985 0)"/>
     <use xlink:href="#PingFangHK-Regular-32" transform="translate(79.399979 0)"/>
     <use xlink:href="#PingFangHK-Regular-20" transform="translate(139.399963 0)"/>
     <use xlink:href="#PingFangHK-Regular-2248" transform="translate(172.699951 0)"/>
     <use xlink:href="#PingFangHK-Regular-20" transform="translate(250.899933 0)"/>
     <use xlink:href="#PingFangHK-Regular-30" transform="translate(284.199921 0)"/>
     <use xlink:href="#PingFangHK-Regular-2e" transform="translate(344.199905 0)"/>
     <use xlink:href="#PingFangHK-Regular-36" transform="translate(370.599899 0)"/>
     <use xlink:href="#PingFangHK-Regular-39" transform="translate(430.599884 0)"/>
     <use xlink:href="#PingFangHK-Regular-ff08" transform="translate(490.599869 0)"/>
     <use xlink:href="#PingFangHK-Regular-968f" transform="translate(590.599854 0)"/>
     <use xlink:href="#PingFangHK-Regular-673a" transform="translate(690.599838 0)"/>
     <use xlink:href="#PingFangHK-Regular-6c34" transform="translate(790.599823 0)"/>
     <use xlink:href="#PingFangHK-Regular-5e73" transform="translate(890.599808 0)"/>
     <use xlink:href="#PingFangHK-Regular-ff09" transform="translate(990.599792 0)"/>
    </g>
   </g>
   <g id="text_18">
    <!-- Training Loss -->
    <g transform="translate(136.07789 16.663594) scale(0.13 -0.13)">
     <defs>
      <path id="PingFangHK-Regular-54" d="M 109 4570 
L 109 4115 
L 1722 4115 
L 1722 0 
L 2240 0 
L 2240 4115 
L 3853 4115 
L 3853 4570 
L 109 4570 
z
" transform="scale(0.015625)"/>
      <path id="PingFangHK-Regular-72" d="M 1850 3398 
C 1619 3398 1421 3328 1248 3187 
C 1107 3078 992 2925 902 2733 
L 902 3309 
L 397 3309 
L 397 0 
L 902 0 
L 902 1754 
C 902 2061 986 2323 1165 2541 
C 1338 2771 1555 2880 1811 2880 
C 1971 2880 2138 2861 2304 2810 
L 2304 3322 
C 2182 3373 2029 3398 1850 3398 
z
" transform="scale(0.015625)"/>
      <path id="PingFangHK-Regular-61" d="M 1837 3398 
C 1440 3398 1126 3322 883 3168 
C 614 3002 442 2739 371 2394 
L 877 2355 
C 928 2566 1037 2726 1210 2829 
C 1363 2931 1562 2976 1805 2976 
C 2381 2976 2669 2701 2669 2144 
L 2669 1971 
L 1875 1958 
C 1376 1952 992 1856 723 1677 
C 416 1485 269 1203 269 826 
C 269 557 371 333 576 160 
C 774 -6 1037 -90 1370 -90 
C 1677 -90 1952 -19 2195 115 
C 2400 230 2573 378 2701 557 
L 2701 0 
L 3181 0 
L 3181 2125 
C 3181 2509 3078 2810 2886 3027 
C 2656 3277 2310 3398 1837 3398 
z
M 2669 1587 
L 2669 1306 
C 2669 1050 2547 819 2310 621 
C 2067 416 1792 314 1478 314 
C 1274 314 1107 365 979 461 
C 851 563 794 685 794 838 
C 794 1318 1165 1562 1907 1574 
L 2669 1587 
z
" transform="scale(0.015625)"/>
      <path id="PingFangHK-Regular-69" d="M 819 4557 
C 710 4557 621 4525 544 4448 
C 467 4384 435 4294 435 4179 
C 435 4070 467 3981 544 3904 
C 621 3834 710 3795 819 3795 
C 928 3795 1018 3834 1094 3904 
C 1171 3981 1210 4070 1210 4179 
C 1210 4294 1171 4384 1094 4448 
C 1018 4525 928 4557 819 4557 
z
M 563 3309 
L 563 0 
L 1075 0 
L 1075 3309 
L 563 3309 
z
" transform="scale(0.015625)"/>
      <path id="PingFangHK-Regular-67" d="M 1760 3398 
C 1299 3398 934 3238 666 2912 
C 397 2605 269 2214 269 1728 
C 269 1248 397 858 666 550 
C 934 237 1299 77 1760 77 
C 2259 77 2630 301 2874 742 
L 2874 160 
C 2874 -570 2541 -941 1875 -941 
C 1574 -941 1350 -883 1203 -774 
C 1056 -672 960 -506 922 -282 
L 410 -282 
C 467 -640 614 -909 851 -1088 
C 1082 -1267 1427 -1357 1875 -1357 
C 2880 -1357 3386 -826 3386 230 
L 3386 3309 
L 2874 3309 
L 2874 2739 
C 2630 3181 2259 3398 1760 3398 
z
M 1837 2976 
C 2163 2976 2419 2861 2611 2618 
C 2790 2400 2880 2099 2880 1728 
C 2880 1370 2790 1075 2611 851 
C 2419 621 2163 506 1830 506 
C 1472 506 1210 634 1030 877 
C 870 1094 794 1382 794 1728 
C 794 2099 883 2400 1062 2618 
C 1248 2861 1504 2976 1837 2976 
z
" transform="scale(0.015625)"/>
     </defs>
     <use xlink:href="#PingFangHK-Regular-54"/>
     <use xlink:href="#PingFangHK-Regular-72" transform="translate(61.899994 0)"/>
     <use xlink:href="#PingFangHK-Regular-61" transform="translate(98.399979 0)"/>
     <use xlink:href="#PingFangHK-Regular-69" transform="translate(154.299973 0)"/>
     <use xlink:href="#PingFangHK-Regular-6e" transform="translate(179.899963 0)"/>
     <use xlink:href="#PingFangHK-Regular-69" transform="translate(235.799957 0)"/>
     <use xlink:href="#PingFangHK-Regular-6e" transform="translate(261.399948 0)"/>
     <use xlink:href="#PingFangHK-Regular-67" transform="translate(317.299942 0)"/>
     <use xlink:href="#PingFangHK-Regular-20" transform="translate(376.399933 0)"/>
     <use xlink:href="#PingFangHK-Regular-4c" transform="translate(409.699921 0)"/>
     <use xlink:href="#PingFangHK-Regular-6f" transform="translate(468.499908 0)"/>
     <use xlink:href="#PingFangHK-Regular-73" transform="translate(527.099899 0)"/>
     <use xlink:href="#PingFangHK-Regular-73" transform="translate(577.599884 0)"/>
    </g>
   </g>
  </g>
  <g id="axes_2">
   <g id="patch_5">
    <path d="M 387.611875 223.744844 
L 648.736092 223.744844 
L 648.736092 22.663594 
L 387.611875 22.663594 
z
" style="fill: #ffffff"/>
   </g>
   <g id="matplotlib.axis_3">
    <g id="xtick_6">
     <g id="line2d_17">
      <g>
       <use xlink:href="#ma4820831d8" x="399.481158" y="223.744844" style="stroke: #000000; stroke-width: 0.8"/>
      </g>
     </g>
     <g id="text_19">
      <!-- 0 -->
      <g transform="translate(396.181158 238.7525) scale(0.11 -0.11)">
       <use xlink:href="#PingFangHK-Regular-30"/>
      </g>
     </g>
    </g>
    <g id="xtick_7">
     <g id="line2d_18">
      <g>
       <use xlink:href="#ma4820831d8" x="459.125794" y="223.744844" style="stroke: #000000; stroke-width: 0.8"/>
      </g>
     </g>
     <g id="text_20">
      <!-- 50 -->
      <g transform="translate(452.525794 238.7525) scale(0.11 -0.11)">
       <use xlink:href="#PingFangHK-Regular-35"/>
       <use xlink:href="#PingFangHK-Regular-30" transform="translate(59.999985 0)"/>
      </g>
     </g>
    </g>
    <g id="xtick_8">
     <g id="line2d_19">
      <g>
       <use xlink:href="#ma4820831d8" x="518.77043" y="223.744844" style="stroke: #000000; stroke-width: 0.8"/>
      </g>
     </g>
     <g id="text_21">
      <!-- 100 -->
      <g transform="translate(509.965274 238.7525) scale(0.11 -0.11)">
       <use xlink:href="#PingFangHK-Regular-31"/>
       <use xlink:href="#PingFangHK-Regular-30" transform="translate(40.099991 0)"/>
       <use xlink:href="#PingFangHK-Regular-30" transform="translate(100.099976 0)"/>
      </g>
     </g>
    </g>
    <g id="xtick_9">
     <g id="line2d_20">
      <g>
       <use xlink:href="#ma4820831d8" x="578.415066" y="223.744844" style="stroke: #000000; stroke-width: 0.8"/>
      </g>
     </g>
     <g id="text_22">
      <!-- 150 -->
      <g transform="translate(569.60991 238.7525) scale(0.11 -0.11)">
       <use xlink:href="#PingFangHK-Regular-31"/>
       <use xlink:href="#PingFangHK-Regular-35" transform="translate(40.099991 0)"/>
       <use xlink:href="#PingFangHK-Regular-30" transform="translate(100.099976 0)"/>
      </g>
     </g>
    </g>
    <g id="xtick_10">
     <g id="line2d_21">
      <g>
       <use xlink:href="#ma4820831d8" x="638.059702" y="223.744844" style="stroke: #000000; stroke-width: 0.8"/>
      </g>
     </g>
     <g id="text_23">
      <!-- 200 -->
      <g transform="translate(628.159702 238.7525) scale(0.11 -0.11)">
       <use xlink:href="#PingFangHK-Regular-32"/>
       <use xlink:href="#PingFangHK-Regular-30" transform="translate(59.999985 0)"/>
       <use xlink:href="#PingFangHK-Regular-30" transform="translate(119.999969 0)"/>
      </g>
     </g>
    </g>
    <g id="text_24">
     <!-- 训练步数 -->
     <g transform="translate(494.173984 253.665781) scale(0.12 -0.12)">
      <use xlink:href="#PingFangHK-Regular-8bad"/>
      <use xlink:href="#PingFangHK-Regular-7ec3" transform="translate(99.999985 0)"/>
      <use xlink:href="#PingFangHK-Regular-6b65" transform="translate(199.999969 0)"/>
      <use xlink:href="#PingFangHK-Regular-6570" transform="translate(299.999954 0)"/>
     </g>
    </g>
   </g>
   <g id="matplotlib.axis_4">
    <g id="ytick_10">
     <g id="line2d_22">
      <g>
       <use xlink:href="#mb1196bba04" x="387.611875" y="218.840423" style="stroke: #000000; stroke-width: 0.8"/>
      </g>
     </g>
     <g id="text_25">
      <!-- -0.5 -->
      <g transform="translate(357.852188 222.844251) scale(0.11 -0.11)">
       <defs>
        <path id="PingFangHK-Regular-2d" d="M 320 1875 
L 320 1440 
L 3552 1440 
L 3552 1875 
L 320 1875 
z
" transform="scale(0.015625)"/>
       </defs>
       <use xlink:href="#PingFangHK-Regular-2d"/>
       <use xlink:href="#PingFangHK-Regular-30" transform="translate(60.499985 0)"/>
       <use xlink:href="#PingFangHK-Regular-2e" transform="translate(120.499969 0)"/>
       <use xlink:href="#PingFangHK-Regular-35" transform="translate(146.899963 0)"/>
      </g>
     </g>
    </g>
    <g id="ytick_11">
     <g id="line2d_23">
      <g>
       <use xlink:href="#mb1196bba04" x="387.611875" y="194.318319" style="stroke: #000000; stroke-width: 0.8"/>
      </g>
     </g>
     <g id="text_26">
      <!-- 0.0 -->
      <g transform="translate(364.507187 198.322147) scale(0.11 -0.11)">
       <use xlink:href="#PingFangHK-Regular-30"/>
       <use xlink:href="#PingFangHK-Regular-2e" transform="translate(59.999985 0)"/>
       <use xlink:href="#PingFangHK-Regular-30" transform="translate(86.399979 0)"/>
      </g>
     </g>
    </g>
    <g id="ytick_12">
     <g id="line2d_24">
      <g>
       <use xlink:href="#mb1196bba04" x="387.611875" y="169.796216" style="stroke: #000000; stroke-width: 0.8"/>
      </g>
     </g>
     <g id="text_27">
      <!-- 0.5 -->
      <g transform="translate(364.507187 173.800044) scale(0.11 -0.11)">
       <use xlink:href="#PingFangHK-Regular-30"/>
       <use xlink:href="#PingFangHK-Regular-2e" transform="translate(59.999985 0)"/>
       <use xlink:href="#PingFangHK-Regular-35" transform="translate(86.399979 0)"/>
      </g>
     </g>
    </g>
    <g id="ytick_13">
     <g id="line2d_25">
      <g>
       <use xlink:href="#mb1196bba04" x="387.611875" y="145.274112" style="stroke: #000000; stroke-width: 0.8"/>
      </g>
     </g>
     <g id="text_28">
      <!-- 1.0 -->
      <g transform="translate(366.696875 149.27794) scale(0.11 -0.11)">
       <use xlink:href="#PingFangHK-Regular-31"/>
       <use xlink:href="#PingFangHK-Regular-2e" transform="translate(40.099991 0)"/>
       <use xlink:href="#PingFangHK-Regular-30" transform="translate(66.499985 0)"/>
      </g>
     </g>
    </g>
    <g id="ytick_14">
     <g id="line2d_26">
      <g>
       <use xlink:href="#mb1196bba04" x="387.611875" y="120.752008" style="stroke: #000000; stroke-width: 0.8"/>
      </g>
     </g>
     <g id="text_29">
      <!-- 1.5 -->
      <g transform="translate(366.696875 124.755837) scale(0.11 -0.11)">
       <use xlink:href="#PingFangHK-Regular-31"/>
       <use xlink:href="#PingFangHK-Regular-2e" transform="translate(40.099991 0)"/>
       <use xlink:href="#PingFangHK-Regular-35" transform="translate(66.499985 0)"/>
      </g>
     </g>
    </g>
    <g id="ytick_15">
     <g id="line2d_27">
      <g>
       <use xlink:href="#mb1196bba04" x="387.611875" y="96.229905" style="stroke: #000000; stroke-width: 0.8"/>
      </g>
     </g>
     <g id="text_30">
      <!-- 2.0 -->
      <g transform="translate(364.507187 100.233733) scale(0.11 -0.11)">
       <use xlink:href="#PingFangHK-Regular-32"/>
       <use xlink:href="#PingFangHK-Regular-2e" transform="translate(59.999985 0)"/>
       <use xlink:href="#PingFangHK-Regular-30" transform="translate(86.399979 0)"/>
      </g>
     </g>
    </g>
    <g id="ytick_16">
     <g id="line2d_28">
      <g>
       <use xlink:href="#mb1196bba04" x="387.611875" y="71.707801" style="stroke: #000000; stroke-width: 0.8"/>
      </g>
     </g>
     <g id="text_31">
      <!-- 2.5 -->
      <g transform="translate(364.507187 75.711629) scale(0.11 -0.11)">
       <use xlink:href="#PingFangHK-Regular-32"/>
       <use xlink:href="#PingFangHK-Regular-2e" transform="translate(59.999985 0)"/>
       <use xlink:href="#PingFangHK-Regular-35" transform="translate(86.399979 0)"/>
      </g>
     </g>
    </g>
    <g id="ytick_17">
     <g id="line2d_29">
      <g>
       <use xlink:href="#mb1196bba04" x="387.611875" y="47.185697" style="stroke: #000000; stroke-width: 0.8"/>
      </g>
     </g>
     <g id="text_32">
      <!-- 3.0 -->
      <g transform="translate(364.507187 51.189526) scale(0.11 -0.11)">
       <use xlink:href="#PingFangHK-Regular-33"/>
       <use xlink:href="#PingFangHK-Regular-2e" transform="translate(59.999985 0)"/>
       <use xlink:href="#PingFangHK-Regular-30" transform="translate(86.399979 0)"/>
      </g>
     </g>
    </g>
    <g id="ytick_18">
     <g id="line2d_30">
      <g>
       <use xlink:href="#mb1196bba04" x="387.611875" y="22.663594" style="stroke: #000000; stroke-width: 0.8"/>
      </g>
     </g>
     <g id="text_33">
      <!-- 3.5 -->
      <g transform="translate(364.507187 26.667422) scale(0.11 -0.11)">
       <use xlink:href="#PingFangHK-Regular-33"/>
       <use xlink:href="#PingFangHK-Regular-2e" transform="translate(59.999985 0)"/>
       <use xlink:href="#PingFangHK-Regular-35" transform="translate(86.399979 0)"/>
      </g>
     </g>
    </g>
    <g id="text_34">
     <!-- Margin -->
     <g style="fill: #4c5cf0" transform="translate(351.095781 144.082422) rotate(-90) scale(0.13 -0.13)">
      <defs>
       <path id="PingFangHK-Regular-4d" d="M 461 4570 
L 461 0 
L 986 0 
L 986 3635 
L 1005 3635 
L 2586 0 
L 3059 0 
L 4640 3635 
L 4659 3635 
L 4659 0 
L 5184 0 
L 5184 4570 
L 4531 4570 
L 2835 672 
L 2816 672 
L 1114 4570 
L 461 4570 
z
" transform="scale(0.015625)"/>
      </defs>
      <use xlink:href="#PingFangHK-Regular-4d"/>
      <use xlink:href="#PingFangHK-Regular-61" transform="translate(88.199982 0)"/>
      <use xlink:href="#PingFangHK-Regular-72" transform="translate(144.099976 0)"/>
      <use xlink:href="#PingFangHK-Regular-67" transform="translate(180.59996 0)"/>
      <use xlink:href="#PingFangHK-Regular-69" transform="translate(239.699951 0)"/>
      <use xlink:href="#PingFangHK-Regular-6e" transform="translate(265.299942 0)"/>
     </g>
    </g>
   </g>
   <g id="line2d_31">
    <path d="M 399.481158 187.84321 
L 400.67405 184.297091 
L 403.059836 181.116913 
L 404.252728 178.591974 
L 406.638514 174.490886 
L 407.831407 167.974844 
L 409.024299 164.426991 
L 411.410085 159.006211 
L 412.602978 156.672935 
L 413.79587 157.761392 
L 414.988763 155.474812 
L 416.181656 154.875702 
L 418.567441 152.632618 
L 419.760334 150.346437 
L 420.953227 147.190235 
L 422.146119 146.151934 
L 423.339012 143.568036 
L 424.531905 142.629948 
L 425.724798 141.277886 
L 426.91769 140.488449 
L 428.110583 137.256169 
L 429.303476 136.957805 
L 431.689261 132.084096 
L 432.882154 131.927122 
L 434.075047 130.254479 
L 435.267939 127.850532 
L 436.460832 126.308219 
L 438.846617 121.191986 
L 440.03951 121.545568 
L 442.425296 118.715109 
L 443.618188 118.404994 
L 444.811081 118.226967 
L 446.003974 115.456182 
L 447.196867 113.959732 
L 448.389759 111.539247 
L 449.582652 111.95242 
L 450.775545 110.419105 
L 451.968437 109.551104 
L 453.16133 109.332169 
L 454.354223 107.520627 
L 455.547116 105.177303 
L 456.740008 104.84205 
L 457.932901 102.707944 
L 459.125794 99.509457 
L 460.318686 99.084304 
L 461.511579 99.613829 
L 462.704472 98.043275 
L 463.897365 96.827293 
L 465.090257 98.124452 
L 466.28315 97.681226 
L 467.476043 94.993887 
L 468.668936 94.471624 
L 469.861828 94.660059 
L 471.054721 95.812642 
L 472.247614 96.14575 
L 473.440506 96.149015 
L 474.633399 95.613899 
L 477.019185 91.337673 
L 478.212077 90.138068 
L 479.40497 89.11089 
L 480.597863 86.288759 
L 481.790755 87.998545 
L 482.983648 85.279469 
L 484.176541 84.255588 
L 486.562326 84.595221 
L 487.755219 82.68079 
L 488.948112 83.445537 
L 490.141005 82.792059 
L 491.333897 81.729501 
L 492.52679 81.420095 
L 493.719683 80.485319 
L 494.912575 78.20968 
L 496.105468 78.686781 
L 497.298361 76.172491 
L 498.491254 77.265917 
L 499.684146 77.387579 
L 500.877039 77.663694 
L 502.069932 75.975123 
L 503.262824 77.650651 
L 504.455717 75.804875 
L 505.64861 75.604806 
L 506.841503 76.070382 
L 508.034395 75.17471 
L 509.227288 73.965341 
L 510.420181 73.913902 
L 511.613074 72.397814 
L 512.805966 71.279273 
L 513.998859 70.901397 
L 515.191752 70.288823 
L 516.384644 70.004851 
L 517.577537 70.767331 
L 518.77043 70.046628 
L 519.963323 69.837522 
L 521.156215 69.987282 
L 522.349108 68.891122 
L 523.542001 67.102379 
L 524.734894 67.813287 
L 527.120679 67.345826 
L 528.313572 67.288784 
L 529.506464 67.115567 
L 530.699357 65.696265 
L 531.89225 65.185914 
L 533.085143 63.707504 
L 534.278035 63.230725 
L 535.470928 63.274061 
L 536.663821 63.887109 
L 537.856713 63.998477 
L 539.049606 64.857795 
L 540.242499 64.53623 
L 541.435392 64.347593 
L 542.628284 64.494525 
L 543.821177 62.86031 
L 545.01407 63.30582 
L 546.206963 64.097709 
L 547.399855 63.42364 
L 548.592748 61.932639 
L 549.785641 62.861594 
L 550.978533 61.360313 
L 552.171426 60.202687 
L 553.364319 61.605341 
L 554.557212 61.961036 
L 555.750104 62.780197 
L 556.942997 62.310115 
L 558.13589 62.221857 
L 559.328782 61.975346 
L 560.521675 62.100588 
L 561.714568 61.062439 
L 562.907461 62.090855 
L 564.100353 62.445081 
L 565.293246 61.433982 
L 566.486139 60.820866 
L 567.679032 61.377344 
L 568.871924 61.142533 
L 570.064817 60.156369 
L 572.450602 62.472222 
L 573.643495 62.48857 
L 574.836388 62.13978 
L 576.029281 61.934148 
L 577.222173 59.499197 
L 578.415066 57.583623 
L 579.607959 57.009978 
L 580.800851 56.724707 
L 581.993744 57.625298 
L 583.186637 58.670052 
L 584.37953 59.444604 
L 585.572422 58.943362 
L 586.765315 59.457502 
L 589.151101 56.812938 
L 591.536886 56.385864 
L 592.729779 55.086524 
L 593.922671 55.702405 
L 595.115564 56.624924 
L 596.308457 56.427379 
L 597.50135 56.565666 
L 598.694242 57.615507 
L 599.887135 57.185073 
L 601.080028 56.875685 
L 602.272921 55.654262 
L 603.465813 54.887414 
L 604.658706 52.502258 
L 605.851599 53.036444 
L 607.044491 52.657247 
L 608.237384 53.568329 
L 609.430277 52.520609 
L 610.62317 54.764018 
L 611.816062 54.741918 
L 613.008955 55.819451 
L 614.201848 57.554158 
L 615.39474 59.610778 
L 616.587633 59.49937 
L 618.973419 57.842536 
L 620.166311 54.635069 
L 621.359204 53.409472 
L 622.552097 53.200579 
L 623.74499 53.958995 
L 624.937882 53.777847 
L 626.130775 56.22403 
L 627.323668 55.471845 
L 628.51656 54.034003 
L 629.709453 53.638731 
L 630.902346 55.311765 
L 632.095239 53.157221 
L 633.288131 54.629218 
L 634.481024 54.529458 
L 635.673917 54.108409 
L 636.866809 52.712264 
L 636.866809 52.712264 
" clip-path="url(#pd8490b8992)" style="fill: none; stroke: #4c5cf0; stroke-opacity: 0.9; stroke-width: 1.8; stroke-linecap: square"/>
   </g>
   <g id="line2d_32">
    <path d="M 387.611875 194.318319 
L 648.736092 194.318319 
" clip-path="url(#pd8490b8992)" style="fill: none; stroke-dasharray: 2.96,1.28; stroke-dashoffset: 0; stroke: #d1d5db; stroke-width: 0.8"/>
   </g>
   <g id="patch_6">
    <path d="M 387.611875 223.744844 
L 387.611875 22.663594 
" style="fill: none; stroke: #000000; stroke-width: 0.8; stroke-linejoin: miter; stroke-linecap: square"/>
   </g>
   <g id="patch_7">
    <path d="M 387.611875 223.744844 
L 648.736092 223.744844 
" style="fill: none; stroke: #000000; stroke-width: 0.8; stroke-linejoin: miter; stroke-linecap: square"/>
   </g>
   <g id="text_35">
    <!-- margin = 0（无法区分好坏） -->
    <g style="fill: #9ca3af" transform="translate(405.445621 209.031582) scale(0.09 -0.09)">
     <defs>
      <path id="PingFangHK-Regular-6d" d="M 1843 3398 
C 1472 3398 1158 3226 909 2867 
L 909 3309 
L 397 3309 
L 397 0 
L 909 0 
L 909 2016 
C 909 2278 986 2502 1139 2682 
C 1293 2874 1485 2963 1722 2963 
C 2227 2963 2483 2675 2483 2086 
L 2483 0 
L 2995 0 
L 2995 2074 
C 2995 2342 3066 2554 3219 2720 
C 3360 2886 3546 2963 3763 2963 
C 4045 2963 4250 2893 4378 2739 
C 4499 2598 4563 2381 4563 2086 
L 4563 0 
L 5075 0 
L 5075 2170 
C 5075 2547 4966 2848 4762 3072 
C 4544 3290 4269 3398 3923 3398 
C 3693 3398 3501 3347 3341 3245 
C 3162 3149 3008 2989 2880 2771 
C 2694 3194 2349 3398 1843 3398 
z
" transform="scale(0.015625)"/>
      <path id="PingFangHK-Regular-3d" d="M 320 2528 
L 320 2099 
L 3552 2099 
L 3552 2528 
L 320 2528 
z
M 320 1216 
L 320 781 
L 3552 781 
L 3552 1216 
L 320 1216 
z
" transform="scale(0.015625)"/>
      <path id="PingFangHK-Regular-65e0" d="M 5248 -538 
C 5491 -538 5670 -480 5786 -365 
C 5914 -224 6003 154 6054 781 
L 5619 922 
C 5594 422 5542 128 5466 26 
C 5402 -58 5306 -102 5165 -102 
L 4211 -102 
C 4058 -102 3981 -26 3981 115 
L 3981 2048 
L 3520 2048 
L 3520 19 
C 3520 -352 3699 -538 4070 -538 
L 5248 -538 
z
M 851 4883 
L 851 4435 
L 2688 4435 
L 2688 3994 
C 2682 3610 2656 3238 2605 2886 
L 422 2886 
L 422 2445 
L 2528 2445 
C 2445 2035 2323 1670 2170 1344 
C 1824 698 1216 179 333 -218 
L 589 -627 
C 1478 -243 2118 294 2515 992 
C 2733 1402 2899 1888 3008 2445 
L 5965 2445 
L 5965 2886 
L 3078 2886 
C 3123 3232 3149 3603 3155 3994 
L 3155 4435 
L 5446 4435 
L 5446 4883 
L 851 4883 
z
" transform="scale(0.015625)"/>
      <path id="PingFangHK-Regular-6cd5" d="M 3725 5229 
L 3725 4198 
L 2208 4198 
L 2208 3750 
L 3725 3750 
L 3725 2554 
L 1901 2554 
L 1901 2106 
L 3418 2106 
C 2931 960 2534 256 2234 -6 
C 2208 -19 2176 -38 2138 -51 
L 2246 -454 
C 3379 -346 4429 -198 5395 -19 
C 5485 -224 5568 -435 5658 -659 
L 6093 -467 
C 5805 262 5466 954 5082 1594 
L 4640 1446 
C 4832 1126 5024 774 5210 390 
C 4416 237 3629 115 2842 32 
C 3149 435 3507 1126 3917 2106 
L 6016 2106 
L 6016 2554 
L 4198 2554 
L 4198 3750 
L 5843 3750 
L 5843 4198 
L 4198 4198 
L 4198 5229 
L 3725 5229 
z
M 819 5126 
L 493 4813 
C 941 4474 1286 4154 1542 3846 
L 1869 4179 
C 1587 4499 1235 4813 819 5126 
z
M 666 3629 
L 339 3315 
C 749 2970 1069 2650 1299 2349 
L 1632 2675 
C 1370 2995 1050 3315 666 3629 
z
M 1402 1856 
C 1133 1088 806 339 435 -390 
L 896 -589 
C 1235 122 1542 883 1818 1690 
L 1402 1856 
z
" transform="scale(0.015625)"/>
      <path id="PingFangHK-Regular-533a" d="M 448 4909 
L 448 4486 
L 819 4486 
L 819 186 
C 819 -192 1005 -384 1389 -384 
L 5811 -384 
L 5811 51 
L 1510 51 
C 1344 51 1267 134 1267 288 
L 1267 4486 
L 5709 4486 
L 5709 4909 
L 448 4909 
z
M 4723 4160 
C 4461 3558 4147 3021 3789 2560 
C 3270 3021 2707 3488 2106 3949 
L 1773 3629 
C 2400 3142 2970 2669 3488 2208 
C 2963 1638 2342 1203 1626 909 
L 1894 493 
C 2630 813 3277 1274 3840 1882 
C 4333 1414 4768 954 5146 506 
L 5498 858 
C 5094 1312 4640 1773 4141 2240 
C 4525 2726 4858 3290 5146 3942 
L 4723 4160 
z
" transform="scale(0.015625)"/>
      <path id="PingFangHK-Regular-5206" d="M 2310 5094 
C 2054 4608 1773 4192 1466 3834 
C 1114 3430 717 3104 282 2854 
L 531 2451 
C 1062 2810 1491 3174 1811 3546 
C 2112 3885 2413 4320 2714 4851 
L 2310 5094 
z
M 2522 2240 
C 2387 1638 2189 1152 1920 781 
C 1619 397 1171 45 582 -275 
L 877 -659 
C 1530 -294 2022 115 2349 576 
C 2624 986 2835 1542 2989 2240 
L 4582 2240 
C 4550 1242 4480 595 4365 288 
C 4256 -6 4032 -154 3686 -154 
C 3354 -154 3002 -147 2630 -134 
L 2758 -589 
L 3923 -589 
C 4243 -570 4474 -467 4614 -282 
C 4762 -90 4864 256 4928 742 
C 4992 1235 5030 1882 5050 2682 
L 1229 2682 
L 1229 2240 
L 2522 2240 
z
M 4115 5178 
L 3718 4954 
C 4109 3942 4800 3117 5792 2477 
L 6099 2842 
C 5146 3411 4486 4192 4115 5178 
z
" transform="scale(0.015625)"/>
      <path id="PingFangHK-Regular-597d" d="M 1363 5299 
C 1293 4858 1216 4429 1126 4006 
L 352 4006 
L 352 3565 
L 1030 3565 
C 877 2912 704 2304 506 1741 
C 864 1478 1197 1229 1491 992 
C 1190 493 800 70 314 -282 
L 627 -666 
C 1120 -288 1530 166 1850 698 
C 2170 429 2445 186 2662 -45 
L 2976 320 
C 2739 550 2438 813 2067 1101 
C 2426 1850 2637 2733 2694 3744 
L 2694 4006 
L 1587 4006 
C 1664 4390 1741 4813 1818 5261 
L 1363 5299 
z
M 1696 1382 
C 1485 1536 1254 1702 1011 1875 
C 1178 2323 1338 2886 1491 3565 
L 2240 3565 
C 2182 2746 2003 2016 1696 1382 
z
M 2912 2541 
L 2912 2093 
L 4358 2093 
L 4358 186 
C 4358 -32 4282 -141 4134 -141 
C 3827 -141 3539 -134 3277 -134 
L 3398 -570 
L 4320 -570 
C 4653 -570 4826 -365 4826 45 
L 4826 2093 
L 6131 2093 
L 6131 2541 
L 4826 2541 
L 4826 3206 
C 5210 3590 5562 4006 5869 4448 
L 5869 4896 
L 3098 4896 
L 3098 4448 
L 5344 4448 
C 5030 4013 4704 3648 4358 3347 
L 4358 2541 
L 2912 2541 
z
" transform="scale(0.015625)"/>
      <path id="PingFangHK-Regular-574f" d="M 314 3526 
L 314 3078 
L 1101 3078 
L 1101 659 
C 838 589 570 525 294 474 
L 410 -6 
C 1120 166 1786 384 2400 646 
L 2400 1120 
C 2125 1005 1843 896 1562 800 
L 1562 3078 
L 2317 3078 
L 2317 3526 
L 1562 3526 
L 1562 5158 
L 1101 5158 
L 1101 3526 
L 314 3526 
z
M 2355 4915 
L 2355 4467 
L 4198 4467 
C 3808 3341 3123 2381 2138 1587 
L 2419 1222 
C 3008 1709 3507 2259 3904 2874 
L 3904 -634 
L 4358 -634 
L 4358 2573 
C 4768 2246 5261 1786 5850 1197 
L 6125 1600 
C 5523 2163 4934 2662 4358 3085 
L 4358 3718 
C 4467 3962 4563 4211 4653 4467 
L 5965 4467 
L 5965 4915 
L 2355 4915 
z
" transform="scale(0.015625)"/>
     </defs>
     <use xlink:href="#PingFangHK-Regular-6d"/>
     <use xlink:href="#PingFangHK-Regular-61" transform="translate(85.499985 0)"/>
     <use xlink:href="#PingFangHK-Regular-72" transform="translate(141.399979 0)"/>
     <use xlink:href="#PingFangHK-Regular-67" transform="translate(177.899963 0)"/>
     <use xlink:href="#PingFangHK-Regular-69" transform="translate(236.999954 0)"/>
     <use xlink:href="#PingFangHK-Regular-6e" transform="translate(262.599945 0)"/>
     <use xlink:href="#PingFangHK-Regular-20" transform="translate(318.499939 0)"/>
     <use xlink:href="#PingFangHK-Regular-3d" transform="translate(351.799927 0)"/>
     <use xlink:href="#PingFangHK-Regular-20" transform="translate(412.299911 0)"/>
     <use xlink:href="#PingFangHK-Regular-30" transform="translate(445.599899 0)"/>
     <use xlink:href="#PingFangHK-Regular-ff08" transform="translate(505.599884 0)"/>
     <use xlink:href="#PingFangHK-Regular-65e0" transform="translate(605.599869 0)"/>
     <use xlink:href="#PingFangHK-Regular-6cd5" transform="translate(705.599854 0)"/>
     <use xlink:href="#PingFangHK-Regular-533a" transform="translate(805.599838 0)"/>
     <use xlink:href="#PingFangHK-Regular-5206" transform="translate(905.599823 0)"/>
     <use xlink:href="#PingFangHK-Regular-597d" transform="translate(1005.599808 0)"/>
     <use xlink:href="#PingFangHK-Regular-574f" transform="translate(1105.599792 0)"/>
     <use xlink:href="#PingFangHK-Regular-ff09" transform="translate(1205.599777 0)"/>
    </g>
   </g>
   <g id="text_36">
    <!-- Reward Margin -->
    <g transform="translate(472.40789 16.663594) scale(0.13 -0.13)">
     <defs>
      <path id="PingFangHK-Regular-52" d="M 461 4570 
L 461 0 
L 986 0 
L 986 1965 
L 2368 1965 
C 2656 1965 2874 1914 3027 1798 
C 3194 1683 3290 1485 3315 1216 
L 3373 608 
C 3392 352 3456 154 3558 0 
L 4128 0 
C 3994 166 3910 390 3885 672 
L 3814 1376 
C 3763 1837 3520 2112 3085 2208 
L 3085 2221 
C 3347 2285 3552 2413 3706 2618 
C 3846 2816 3917 3040 3917 3296 
C 3917 3718 3776 4038 3507 4256 
C 3245 4467 2886 4570 2432 4570 
L 461 4570 
z
M 986 4115 
L 2368 4115 
C 2720 4115 2982 4045 3149 3904 
C 3302 3770 3386 3558 3386 3277 
C 3386 3008 3302 2803 3142 2656 
C 2963 2502 2701 2419 2368 2419 
L 986 2419 
L 986 4115 
z
" transform="scale(0.015625)"/>
      <path id="PingFangHK-Regular-65" d="M 1760 3398 
C 1280 3398 902 3226 621 2880 
C 339 2554 205 2144 205 1658 
C 205 1120 346 698 640 378 
C 922 70 1306 -90 1779 -90 
C 2208 -90 2560 38 2835 282 
C 3059 486 3206 742 3283 1062 
L 2771 1062 
C 2688 832 2579 659 2438 544 
C 2272 410 2048 339 1779 339 
C 1466 339 1216 442 1037 646 
C 858 851 762 1139 736 1510 
L 3347 1510 
C 3334 2086 3206 2541 2963 2861 
C 2694 3219 2291 3398 1760 3398 
z
M 1773 2970 
C 2400 2970 2752 2618 2816 1907 
L 749 1907 
C 781 2234 883 2490 1062 2682 
C 1242 2874 1478 2970 1773 2970 
z
" transform="scale(0.015625)"/>
      <path id="PingFangHK-Regular-77" d="M 32 3309 
L 1158 0 
L 1638 0 
L 2419 2662 
L 3187 0 
L 3674 0 
L 4800 3309 
L 4237 3309 
L 3424 627 
L 2656 3309 
L 2176 3309 
L 1408 627 
L 595 3309 
L 32 3309 
z
" transform="scale(0.015625)"/>
      <path id="PingFangHK-Regular-64" d="M 2842 4659 
L 2842 2701 
C 2586 3168 2221 3398 1747 3398 
C 1274 3398 909 3226 640 2867 
C 390 2547 269 2150 269 1664 
C 269 1165 390 755 640 435 
C 909 90 1286 -90 1773 -90 
C 2272 -90 2643 122 2874 544 
L 2874 0 
L 3354 0 
L 3354 4659 
L 2842 4659 
z
M 1856 2976 
C 2150 2976 2394 2861 2579 2618 
C 2758 2381 2854 2067 2854 1683 
L 2854 1619 
C 2854 1248 2771 947 2611 717 
C 2426 461 2170 333 1837 333 
C 1478 333 1210 467 1030 723 
C 870 954 794 1267 794 1664 
C 794 2061 870 2368 1037 2592 
C 1216 2848 1491 2976 1856 2976 
z
" transform="scale(0.015625)"/>
     </defs>
     <use xlink:href="#PingFangHK-Regular-52"/>
     <use xlink:href="#PingFangHK-Regular-65" transform="translate(67.599991 0)"/>
     <use xlink:href="#PingFangHK-Regular-77" transform="translate(123.099976 0)"/>
     <use xlink:href="#PingFangHK-Regular-61" transform="translate(198.59996 0)"/>
     <use xlink:href="#PingFangHK-Regular-72" transform="translate(254.499954 0)"/>
     <use xlink:href="#PingFangHK-Regular-64" transform="translate(290.999939 0)"/>
     <use xlink:href="#PingFangHK-Regular-20" transform="translate(349.59993 0)"/>
     <use xlink:href="#PingFangHK-Regular-4d" transform="translate(382.899918 0)"/>
     <use xlink:href="#PingFangHK-Regular-61" transform="translate(471.099899 0)"/>
     <use xlink:href="#PingFangHK-Regular-72" transform="translate(526.999893 0)"/>
     <use xlink:href="#PingFangHK-Regular-67" transform="translate(563.499878 0)"/>
     <use xlink:href="#PingFangHK-Regular-69" transform="translate(622.599869 0)"/>
     <use xlink:href="#PingFangHK-Regular-6e" transform="translate(648.19986 0)"/>
    </g>
   </g>
  </g>
  <g id="axes_3">
   <g id="patch_8">
    <path d="M 728.881875 223.744844 
L 990.006092 223.744844 
L 990.006092 22.663594 
L 728.881875 22.663594 
z
" style="fill: #ffffff"/>
   </g>
   <g id="matplotlib.axis_5">
    <g id="xtick_11">
     <g id="line2d_33">
      <g>
       <use xlink:href="#ma4820831d8" x="740.751158" y="223.744844" style="stroke: #000000; stroke-width: 0.8"/>
      </g>
     </g>
     <g id="text_37">
      <!-- 0 -->
      <g transform="translate(737.451158 238.7525) scale(0.11 -0.11)">
       <use xlink:href="#PingFangHK-Regular-30"/>
      </g>
     </g>
    </g>
    <g id="xtick_12">
     <g id="line2d_34">
      <g>
       <use xlink:href="#ma4820831d8" x="800.395794" y="223.744844" style="stroke: #000000; stroke-width: 0.8"/>
      </g>
     </g>
     <g id="text_38">
      <!-- 50 -->
      <g transform="translate(793.795794 238.7525) scale(0.11 -0.11)">
       <use xlink:href="#PingFangHK-Regular-35"/>
       <use xlink:href="#PingFangHK-Regular-30" transform="translate(59.999985 0)"/>
      </g>
     </g>
    </g>
    <g id="xtick_13">
     <g id="line2d_35">
      <g>
       <use xlink:href="#ma4820831d8" x="860.04043" y="223.744844" style="stroke: #000000; stroke-width: 0.8"/>
      </g>
     </g>
     <g id="text_39">
      <!-- 100 -->
      <g transform="translate(851.235274 238.7525) scale(0.11 -0.11)">
       <use xlink:href="#PingFangHK-Regular-31"/>
       <use xlink:href="#PingFangHK-Regular-30" transform="translate(40.099991 0)"/>
       <use xlink:href="#PingFangHK-Regular-30" transform="translate(100.099976 0)"/>
      </g>
     </g>
    </g>
    <g id="xtick_14">
     <g id="line2d_36">
      <g>
       <use xlink:href="#ma4820831d8" x="919.685066" y="223.744844" style="stroke: #000000; stroke-width: 0.8"/>
      </g>
     </g>
     <g id="text_40">
      <!-- 150 -->
      <g transform="translate(910.87991 238.7525) scale(0.11 -0.11)">
       <use xlink:href="#PingFangHK-Regular-31"/>
       <use xlink:href="#PingFangHK-Regular-35" transform="translate(40.099991 0)"/>
       <use xlink:href="#PingFangHK-Regular-30" transform="translate(100.099976 0)"/>
      </g>
     </g>
    </g>
    <g id="xtick_15">
     <g id="line2d_37">
      <g>
       <use xlink:href="#ma4820831d8" x="979.329702" y="223.744844" style="stroke: #000000; stroke-width: 0.8"/>
      </g>
     </g>
     <g id="text_41">
      <!-- 200 -->
      <g transform="translate(969.429702 238.7525) scale(0.11 -0.11)">
       <use xlink:href="#PingFangHK-Regular-32"/>
       <use xlink:href="#PingFangHK-Regular-30" transform="translate(59.999985 0)"/>
       <use xlink:href="#PingFangHK-Regular-30" transform="translate(119.999969 0)"/>
      </g>
     </g>
    </g>
    <g id="text_42">
     <!-- 训练步数 -->
     <g transform="translate(835.443984 253.665781) scale(0.12 -0.12)">
      <use xlink:href="#PingFangHK-Regular-8bad"/>
      <use xlink:href="#PingFangHK-Regular-7ec3" transform="translate(99.999985 0)"/>
      <use xlink:href="#PingFangHK-Regular-6b65" transform="translate(199.999969 0)"/>
      <use xlink:href="#PingFangHK-Regular-6570" transform="translate(299.999954 0)"/>
     </g>
    </g>
   </g>
   <g id="matplotlib.axis_6">
    <g id="ytick_19">
     <g id="line2d_38">
      <g>
       <use xlink:href="#mb1196bba04" x="728.881875" y="208.277055" style="stroke: #000000; stroke-width: 0.8"/>
      </g>
     </g>
     <g id="text_43">
      <!-- 0.4 -->
      <g transform="translate(705.777187 212.280883) scale(0.11 -0.11)">
       <use xlink:href="#PingFangHK-Regular-30"/>
       <use xlink:href="#PingFangHK-Regular-2e" transform="translate(59.999985 0)"/>
       <use xlink:href="#PingFangHK-Regular-34" transform="translate(86.399979 0)"/>
      </g>
     </g>
    </g>
    <g id="ytick_20">
     <g id="line2d_39">
      <g>
       <use xlink:href="#mb1196bba04" x="728.881875" y="177.341478" style="stroke: #000000; stroke-width: 0.8"/>
      </g>
     </g>
     <g id="text_44">
      <!-- 0.5 -->
      <g transform="translate(705.777187 181.345306) scale(0.11 -0.11)">
       <use xlink:href="#PingFangHK-Regular-30"/>
       <use xlink:href="#PingFangHK-Regular-2e" transform="translate(59.999985 0)"/>
       <use xlink:href="#PingFangHK-Regular-35" transform="translate(86.399979 0)"/>
      </g>
     </g>
    </g>
    <g id="ytick_21">
     <g id="line2d_40">
      <g>
       <use xlink:href="#mb1196bba04" x="728.881875" y="146.405901" style="stroke: #000000; stroke-width: 0.8"/>
      </g>
     </g>
     <g id="text_45">
      <!-- 0.6 -->
      <g transform="translate(705.777187 150.40973) scale(0.11 -0.11)">
       <use xlink:href="#PingFangHK-Regular-30"/>
       <use xlink:href="#PingFangHK-Regular-2e" transform="translate(59.999985 0)"/>
       <use xlink:href="#PingFangHK-Regular-36" transform="translate(86.399979 0)"/>
      </g>
     </g>
    </g>
    <g id="ytick_22">
     <g id="line2d_41">
      <g>
       <use xlink:href="#mb1196bba04" x="728.881875" y="115.470325" style="stroke: #000000; stroke-width: 0.8"/>
      </g>
     </g>
     <g id="text_46">
      <!-- 0.7 -->
      <g transform="translate(706.359844 119.474153) scale(0.11 -0.11)">
       <use xlink:href="#PingFangHK-Regular-30"/>
       <use xlink:href="#PingFangHK-Regular-2e" transform="translate(59.999985 0)"/>
       <use xlink:href="#PingFangHK-Regular-37" transform="translate(86.399979 0)"/>
      </g>
     </g>
    </g>
    <g id="ytick_23">
     <g id="line2d_42">
      <g>
       <use xlink:href="#mb1196bba04" x="728.881875" y="84.534748" style="stroke: #000000; stroke-width: 0.8"/>
      </g>
     </g>
     <g id="text_47">
      <!-- 0.8 -->
      <g transform="translate(705.777187 88.538576) scale(0.11 -0.11)">
       <use xlink:href="#PingFangHK-Regular-30"/>
       <use xlink:href="#PingFangHK-Regular-2e" transform="translate(59.999985 0)"/>
       <use xlink:href="#PingFangHK-Regular-38" transform="translate(86.399979 0)"/>
      </g>
     </g>
    </g>
    <g id="ytick_24">
     <g id="line2d_43">
      <g>
       <use xlink:href="#mb1196bba04" x="728.881875" y="53.599171" style="stroke: #000000; stroke-width: 0.8"/>
      </g>
     </g>
     <g id="text_48">
      <!-- 0.9 -->
      <g transform="translate(705.777187 57.602999) scale(0.11 -0.11)">
       <use xlink:href="#PingFangHK-Regular-30"/>
       <use xlink:href="#PingFangHK-Regular-2e" transform="translate(59.999985 0)"/>
       <use xlink:href="#PingFangHK-Regular-39" transform="translate(86.399979 0)"/>
      </g>
     </g>
    </g>
    <g id="ytick_25">
     <g id="line2d_44">
      <g>
       <use xlink:href="#mb1196bba04" x="728.881875" y="22.663594" style="stroke: #000000; stroke-width: 0.8"/>
      </g>
     </g>
     <g id="text_49">
      <!-- 1.0 -->
      <g transform="translate(707.966875 26.667422) scale(0.11 -0.11)">
       <use xlink:href="#PingFangHK-Regular-31"/>
       <use xlink:href="#PingFangHK-Regular-2e" transform="translate(40.099991 0)"/>
       <use xlink:href="#PingFangHK-Regular-30" transform="translate(66.499985 0)"/>
      </g>
     </g>
    </g>
    <g id="text_50">
     <!-- Accuracy -->
     <g style="fill: #16a34a" transform="translate(699.203594 151.012031) rotate(-90) scale(0.13 -0.13)">
      <defs>
       <path id="PingFangHK-Regular-41" d="M 1798 4570 
L 0 0 
L 563 0 
L 1050 1280 
L 3149 1280 
L 3635 0 
L 4205 0 
L 2406 4570 
L 1798 4570 
z
M 1216 1722 
L 2093 4006 
L 2118 4006 
L 2982 1722 
L 1216 1722 
z
" transform="scale(0.015625)"/>
       <path id="PingFangHK-Regular-63" d="M 1824 3398 
C 1331 3398 941 3226 659 2874 
C 397 2554 269 2144 269 1638 
C 269 1133 397 723 659 410 
C 934 77 1318 -90 1818 -90 
C 2227 -90 2554 19 2803 230 
C 3059 448 3219 774 3296 1197 
L 2784 1197 
C 2707 627 2381 339 1818 339 
C 1485 339 1229 461 1056 691 
C 877 922 794 1242 794 1645 
C 794 2048 883 2368 1062 2605 
C 1248 2848 1504 2970 1824 2970 
C 2086 2970 2298 2912 2464 2784 
C 2624 2656 2726 2464 2771 2208 
L 3277 2208 
C 3219 2611 3066 2912 2810 3110 
C 2560 3302 2234 3398 1824 3398 
z
" transform="scale(0.015625)"/>
       <path id="PingFangHK-Regular-75" d="M 397 3309 
L 397 1261 
C 397 365 794 -90 1600 -90 
C 2048 -90 2406 115 2675 512 
L 2675 0 
L 3187 0 
L 3187 3309 
L 2675 3309 
L 2675 1293 
C 2637 1011 2528 781 2349 602 
C 2176 435 1978 346 1760 346 
C 1459 346 1242 429 1107 582 
C 973 736 909 973 909 1286 
L 909 3309 
L 397 3309 
z
" transform="scale(0.015625)"/>
       <path id="PingFangHK-Regular-79" d="M 32 3309 
L 1344 77 
L 774 -1267 
L 1331 -1267 
L 3142 3309 
L 2579 3309 
L 1600 698 
L 589 3309 
L 32 3309 
z
" transform="scale(0.015625)"/>
      </defs>
      <use xlink:href="#PingFangHK-Regular-41"/>
      <use xlink:href="#PingFangHK-Regular-63" transform="translate(65.699997 0)"/>
      <use xlink:href="#PingFangHK-Regular-63" transform="translate(120.399994 0)"/>
      <use xlink:href="#PingFangHK-Regular-75" transform="translate(175.099991 0)"/>
      <use xlink:href="#PingFangHK-Regular-72" transform="translate(231.099976 0)"/>
      <use xlink:href="#PingFangHK-Regular-61" transform="translate(267.59996 0)"/>
      <use xlink:href="#PingFangHK-Regular-63" transform="translate(323.499954 0)"/>
      <use xlink:href="#PingFangHK-Regular-79" transform="translate(378.199951 0)"/>
     </g>
    </g>
   </g>
   <g id="line2d_45">
    <path d="M 740.751158 178.966382 
L 741.94405 176.834438 
L 743.136943 175.108937 
L 744.329836 171.439799 
L 745.522728 169.800625 
L 747.908514 165.987841 
L 749.101407 163.38936 
L 751.487192 159.701168 
L 752.680085 158.951038 
L 753.872978 156.340121 
L 755.06587 154.754973 
L 756.258763 154.149353 
L 757.451656 150.503164 
L 758.644548 147.64834 
L 761.030334 144.744829 
L 762.223227 141.114852 
L 763.416119 139.44655 
L 765.801905 136.918788 
L 766.994798 135.052784 
L 768.18769 134.155311 
L 769.380583 134.78882 
L 770.573476 132.733181 
L 771.766368 131.33155 
L 772.959261 131.803202 
L 774.152154 132.407997 
L 776.537939 131.403893 
L 777.730832 130.434923 
L 778.923725 126.813449 
L 780.116617 124.701074 
L 781.30951 120.820048 
L 782.502403 120.507523 
L 783.695296 121.188069 
L 784.888188 121.247786 
L 786.081081 119.940261 
L 787.273974 120.115541 
L 788.466867 119.586569 
L 789.659759 117.367304 
L 790.852652 117.292029 
L 793.238437 114.831774 
L 794.43133 113.044772 
L 795.624223 112.427231 
L 796.817116 111.328886 
L 798.010008 110.972715 
L 799.202901 109.651893 
L 800.395794 108.817844 
L 801.588686 107.209488 
L 802.781579 105.979369 
L 803.974472 105.69905 
L 805.167365 105.679881 
L 806.360257 104.923272 
L 807.55315 104.929343 
L 808.746043 104.659701 
L 809.938936 101.860645 
L 812.324721 100.042546 
L 813.517614 98.760464 
L 814.710506 97.255044 
L 815.903399 98.190849 
L 817.096292 97.086324 
L 818.289185 95.341714 
L 819.482077 95.243598 
L 820.67497 94.94847 
L 821.867863 94.360778 
L 823.060755 95.909194 
L 824.253648 96.990924 
L 825.446541 94.98737 
L 826.639434 92.754309 
L 827.832326 92.161187 
L 829.025219 89.460479 
L 831.411005 85.736184 
L 832.603897 85.592319 
L 833.79679 84.977974 
L 834.989683 85.60042 
L 836.182575 86.518345 
L 837.375468 88.156357 
L 838.568361 89.061156 
L 839.761254 89.542857 
L 840.954146 88.842728 
L 842.147039 87.990679 
L 845.725717 83.284836 
L 846.91861 81.275776 
L 848.111503 79.992791 
L 849.304395 81.469873 
L 851.690181 79.779631 
L 852.883074 81.255339 
L 854.075966 81.067923 
L 855.268859 80.699278 
L 856.461752 82.484272 
L 857.654644 81.830868 
L 858.847537 79.283758 
L 860.04043 79.827874 
L 861.233323 78.413147 
L 862.426215 77.529095 
L 863.619108 78.244023 
L 864.812001 79.773081 
L 866.004894 79.053622 
L 867.197786 79.118768 
L 868.390679 78.941482 
L 869.583572 78.073408 
L 871.969357 76.611865 
L 873.16225 77.032174 
L 874.355143 76.559083 
L 876.740928 75.236213 
L 877.933821 75.515169 
L 879.126713 74.502975 
L 880.319606 73.25698 
L 881.512499 74.802017 
L 882.705392 74.519796 
L 885.091177 73.447999 
L 886.28407 74.335025 
L 887.476963 74.202317 
L 888.669855 75.584981 
L 889.862748 74.83227 
L 891.055641 74.842052 
L 892.248533 74.729695 
L 893.441426 72.702314 
L 895.827212 72.397219 
L 897.020104 73.28717 
L 898.212997 72.901313 
L 899.40589 73.145385 
L 900.598782 72.359214 
L 901.791675 72.407695 
L 902.984568 70.576827 
L 904.177461 70.339859 
L 905.370353 69.576497 
L 906.563246 69.601521 
L 907.756139 68.750857 
L 908.949032 68.258956 
L 910.141924 69.500004 
L 911.334817 70.549362 
L 912.52771 69.122298 
L 913.720602 69.509398 
L 914.913495 70.149931 
L 916.106388 68.611824 
L 917.299281 67.807123 
L 918.492173 68.205056 
L 919.685066 67.043785 
L 920.877959 66.989514 
L 922.070851 66.152009 
L 923.263744 66.386146 
L 924.456637 66.499063 
L 925.64953 67.556098 
L 926.842422 67.323327 
L 928.035315 67.760036 
L 929.228208 67.114843 
L 930.421101 65.089895 
L 931.613993 64.002114 
L 932.806886 64.419316 
L 933.999779 63.09929 
L 935.192671 63.503856 
L 936.385564 66.446429 
L 937.578457 67.732116 
L 939.964242 69.818611 
L 941.157135 69.398177 
L 942.350028 66.538355 
L 943.542921 65.447057 
L 944.735813 64.122426 
L 945.928706 63.149075 
L 947.121599 64.709566 
L 948.314491 65.686153 
L 949.507384 65.265054 
L 950.700277 66.1103 
L 951.89317 65.788651 
L 953.086062 63.808981 
L 954.278955 64.207106 
L 955.471848 64.226006 
L 956.66474 61.36021 
L 957.857633 61.993703 
L 960.243419 61.936414 
L 962.629204 63.95511 
L 963.822097 64.652018 
L 965.01499 64.71077 
L 966.207882 64.65324 
L 967.400775 63.596803 
L 968.593668 63.89696 
L 969.78656 62.423656 
L 970.979453 62.78928 
L 972.172346 62.570017 
L 973.365239 63.58849 
L 975.751024 64.53201 
L 976.943917 64.092867 
L 978.136809 63.833098 
L 978.136809 63.833098 
" clip-path="url(#p0bb0e02f35)" style="fill: none; stroke: #16a34a; stroke-opacity: 0.9; stroke-width: 1.8; stroke-linecap: square"/>
   </g>
   <g id="line2d_46">
    <path d="M 728.881875 177.341478 
L 990.006092 177.341478 
" clip-path="url(#p0bb0e02f35)" style="fill: none; stroke-dasharray: 2.96,1.28; stroke-dashoffset: 0; stroke: #d1d5db; stroke-width: 0.8"/>
   </g>
   <g id="patch_9">
    <path d="M 728.881875 223.744844 
L 728.881875 22.663594 
" style="fill: none; stroke: #000000; stroke-width: 0.8; stroke-linejoin: miter; stroke-linecap: square"/>
   </g>
   <g id="patch_10">
    <path d="M 728.881875 223.744844 
L 990.006092 223.744844 
" style="fill: none; stroke: #000000; stroke-width: 0.8; stroke-linejoin: miter; stroke-linecap: square"/>
   </g>
   <g id="text_51">
    <!-- 0.5（随机猜测水平） -->
    <g style="fill: #9ca3af" transform="translate(746.715621 198.996382) scale(0.09 -0.09)">
     <defs>
      <path id="PingFangHK-Regular-731c" d="M 3968 5229 
L 3968 4826 
L 2528 4826 
L 2528 4442 
L 3968 4442 
L 3968 4019 
L 2688 4019 
L 2688 3648 
L 3968 3648 
L 3968 3213 
L 2310 3213 
L 2310 2829 
L 6106 2829 
L 6106 3213 
L 4410 3213 
L 4410 3648 
L 5728 3648 
L 5728 4019 
L 4410 4019 
L 4410 4442 
L 5939 4442 
L 5939 4826 
L 4410 4826 
L 4410 5229 
L 3968 5229 
z
M 3194 1203 
L 5216 1203 
L 5216 749 
L 3194 749 
L 3194 1203 
z
M 5216 1562 
L 3194 1562 
L 3194 2042 
L 5216 2042 
L 5216 1562 
z
M 3194 397 
L 5216 397 
L 5216 26 
C 5216 -128 5146 -211 5005 -211 
L 4480 -192 
L 4595 -602 
L 5133 -602 
C 5478 -602 5658 -422 5658 -70 
L 5658 2426 
L 2758 2426 
L 2758 -640 
L 3194 -640 
L 3194 397 
z
M 698 -563 
C 806 -563 947 -570 1126 -570 
C 1402 -570 1613 -512 1760 -403 
C 2016 -186 2144 442 2144 1478 
C 2131 2413 2029 3130 1843 3629 
C 1798 3744 1747 3853 1690 3962 
C 1907 4230 2131 4563 2362 4960 
L 1978 5197 
C 1811 4896 1638 4621 1446 4365 
C 1280 4602 1082 4838 851 5069 
L 486 4787 
C 742 4557 966 4307 1146 4026 
C 890 3770 614 3552 307 3379 
L 550 2982 
C 858 3200 1126 3411 1363 3629 
C 1389 3565 1421 3501 1446 3437 
C 1510 3258 1568 3040 1606 2784 
C 1299 2246 864 1786 301 1402 
L 563 1011 
C 986 1325 1357 1715 1677 2182 
C 1690 1978 1702 1747 1702 1504 
C 1702 640 1619 122 1459 -45 
C 1389 -122 1242 -160 1024 -160 
C 877 -160 723 -147 570 -134 
L 698 -563 
z
" transform="scale(0.015625)"/>
      <path id="PingFangHK-Regular-6d4b" d="M 691 5094 
L 378 4794 
C 768 4493 1075 4205 1293 3936 
L 1594 4243 
C 1350 4525 1050 4813 691 5094 
z
M 589 3520 
L 275 3226 
C 653 2899 947 2592 1165 2304 
L 1466 2605 
C 1229 2912 934 3213 589 3520 
z
M 1152 1798 
C 909 1056 627 326 307 -384 
L 730 -563 
C 1024 128 1299 864 1542 1645 
L 1152 1798 
z
M 3994 4915 
L 1850 4915 
L 1850 973 
L 2259 973 
L 2259 4518 
L 3584 4518 
L 3584 1011 
L 3994 1011 
L 3994 4915 
z
M 3309 710 
L 3027 442 
C 3437 58 3750 -301 3981 -640 
L 4288 -333 
C 4026 13 3699 365 3309 710 
z
M 2733 4077 
L 2733 2048 
C 2720 1453 2624 973 2458 602 
C 2278 243 1958 -45 1498 -262 
L 1741 -646 
C 2214 -416 2560 -96 2771 301 
C 2989 736 3104 1318 3117 2048 
L 3117 4077 
L 2733 4077 
z
M 5376 -589 
C 5709 -589 5882 -403 5882 -45 
L 5882 5190 
L 5446 5190 
L 5446 64 
C 5446 -102 5370 -192 5222 -192 
C 5018 -192 4800 -179 4576 -160 
L 4672 -589 
L 5376 -589 
z
M 4499 4666 
L 4499 672 
L 4902 672 
L 4902 4666 
L 4499 4666 
z
" transform="scale(0.015625)"/>
     </defs>
     <use xlink:href="#PingFangHK-Regular-30"/>
     <use xlink:href="#PingFangHK-Regular-2e" transform="translate(59.999985 0)"/>
     <use xlink:href="#PingFangHK-Regular-35" transform="translate(86.399979 0)"/>
     <use xlink:href="#PingFangHK-Regular-ff08" transform="translate(146.399963 0)"/>
     <use xlink:href="#PingFangHK-Regular-968f" transform="translate(246.399948 0)"/>
     <use xlink:href="#PingFangHK-Regular-673a" transform="translate(346.399933 0)"/>
     <use xlink:href="#PingFangHK-Regular-731c" transform="translate(446.399918 0)"/>
     <use xlink:href="#PingFangHK-Regular-6d4b" transform="translate(546.399902 0)"/>
     <use xlink:href="#PingFangHK-Regular-6c34" transform="translate(646.399887 0)"/>
     <use xlink:href="#PingFangHK-Regular-5e73" transform="translate(746.399872 0)"/>
     <use xlink:href="#PingFangHK-Regular-ff09" transform="translate(846.399857 0)"/>
    </g>
   </g>
   <g id="text_52">
    <!-- Reward Accuracy -->
    <g transform="translate(806.74828 16.663594) scale(0.13 -0.13)">
     <use xlink:href="#PingFangHK-Regular-52"/>
     <use xlink:href="#PingFangHK-Regular-65" transform="translate(67.599991 0)"/>
     <use xlink:href="#PingFangHK-Regular-77" transform="translate(123.099976 0)"/>
     <use xlink:href="#PingFangHK-Regular-61" transform="translate(198.59996 0)"/>
     <use xlink:href="#PingFangHK-Regular-72" transform="translate(254.499954 0)"/>
     <use xlink:href="#PingFangHK-Regular-64" transform="translate(290.999939 0)"/>
     <use xlink:href="#PingFangHK-Regular-20" transform="translate(349.59993 0)"/>
     <use xlink:href="#PingFangHK-Regular-41" transform="translate(382.899918 0)"/>
     <use xlink:href="#PingFangHK-Regular-63" transform="translate(448.599915 0)"/>
     <use xlink:href="#PingFangHK-Regular-63" transform="translate(503.299911 0)"/>
     <use xlink:href="#PingFangHK-Regular-75" transform="translate(557.999908 0)"/>
     <use xlink:href="#PingFangHK-Regular-72" transform="translate(613.999893 0)"/>
     <use xlink:href="#PingFangHK-Regular-61" transform="translate(650.499878 0)"/>
     <use xlink:href="#PingFangHK-Regular-63" transform="translate(706.399872 0)"/>
     <use xlink:href="#PingFangHK-Regular-79" transform="translate(761.099869 0)"/>
    </g>
   </g>
  </g>
 </g>
 <defs>
  <clipPath id="p12de761a7b">
   <rect x="46.341875" y="22.663594" width="261.124217" height="201.08125"/>
  </clipPath>
  <clipPath id="pd8490b8992">
   <rect x="387.611875" y="22.663594" width="261.124217" height="201.08125"/>
  </clipPath>
  <clipPath id="p0bb0e02f35">
   <rect x="728.881875" y="22.663594" width="261.124217" height="201.08125"/>
  </clipPath>
 </defs>
</svg>
