<?xml version="1.0" encoding="utf-8" standalone="no"?>
<!DOCTYPE svg PUBLIC "-//W3C//DTD SVG 1.1//EN"
  "http://www.w3.org/Graphics/SVG/1.1/DTD/svg11.dtd">
<svg xmlns:xlink="http://www.w3.org/1999/xlink" width="349.659219pt" height="241.641406pt" viewBox="0 0 349.659219 241.641406" xmlns="http://www.w3.org/2000/svg" version="1.1">
 <metadata>
  <rdf:RDF xmlns:dc="http://purl.org/dc/elements/1.1/" xmlns:cc="http://creativecommons.org/ns#" xmlns:rdf="http://www.w3.org/1999/02/22-rdf-syntax-ns#">
   <cc:Work>
    <dc:type rdf:resource="http://purl.org/dc/dcmitype/StillImage"/>
    <dc:date>2026-04-17T10:58:44.229398</dc:date>
    <dc:format>image/svg+xml</dc:format>
    <dc:creator>
     <cc:Agent>
      <dc:title>Matplotlib v3.10.8, https://matplotlib.org/</dc:title>
     </cc:Agent>
    </dc:creator>
   </cc:Work>
  </rdf:RDF>
 </metadata>
 <defs>
  <style type="text/css">*{stroke-linejoin: round; stroke-linecap: butt}</style>
 </defs>
 <g id="figure_1">
  <g id="patch_1">
   <path d="M 0 241.641406 
L 349.659219 241.641406 
L 349.659219 0 
L 0 0 
z
" style="fill: #ffffff"/>
  </g>
  <g id="axes_1">
   <g id="patch_2">
    <path d="M 36.839219 202.144844 
L 342.459219 202.144844 
L 342.459219 22.663594 
L 36.839219 22.663594 
z
" style="fill: #ffffff"/>
   </g>
   <g id="matplotlib.axis_1">
    <g id="xtick_1">
     <g id="line2d_1">
      <defs>
       <path id="mca61e1ab29" d="M 0 0 
L 0 3.5 
" style="stroke: #000000; stroke-width: 0.8"/>
      </defs>
      <g>
       <use xlink:href="#mca61e1ab29" x="50.731037" y="202.144844" style="stroke: #000000; stroke-width: 0.8"/>
      </g>
     </g>
     <g id="text_1">
      <!-- 0 -->
      <g transform="translate(47.431037 217.1525) scale(0.11 -0.11)">
       <defs>
        <path id="PingFangHK-Regular-30" d="M 1920 4659 
C 1370 4659 960 4422 685 3936 
C 442 3526 320 2976 320 2285 
C 320 1594 442 1043 685 634 
C 960 154 1370 -90 1920 -90 
C 2464 -90 2874 154 3155 634 
C 3398 1043 3520 1594 3520 2285 
C 3520 2976 3398 3526 3155 3936 
C 2874 4422 2464 4659 1920 4659 
z
M 1920 4211 
C 2330 4211 2624 3994 2803 3552 
C 2931 3245 3002 2822 3002 2285 
C 3002 1754 2931 1331 2803 1018 
C 2624 582 2330 358 1920 358 
C 1510 358 1216 582 1037 1018 
C 909 1331 845 1754 845 2285 
C 845 2822 909 3245 1037 3552 
C 1216 3994 1510 4211 1920 4211 
z
" transform="scale(0.015625)"/>
       </defs>
       <use xlink:href="#PingFangHK-Regular-30"/>
      </g>
     </g>
    </g>
    <g id="xtick_2">
     <g id="line2d_2">
      <g>
       <use xlink:href="#mca61e1ab29" x="85.635103" y="202.144844" style="stroke: #000000; stroke-width: 0.8"/>
      </g>
     </g>
     <g id="text_2">
      <!-- 25 -->
      <g transform="translate(79.035103 217.1525) scale(0.11 -0.11)">
       <defs>
        <path id="PingFangHK-Regular-32" d="M 1984 4659 
C 1523 4659 1146 4506 864 4198 
C 582 3898 435 3488 435 2976 
L 960 2976 
C 966 3379 1062 3686 1242 3891 
C 1408 4109 1651 4211 1965 4211 
C 2259 4211 2496 4134 2662 3981 
C 2829 3827 2912 3616 2912 3334 
C 2912 3040 2790 2765 2560 2515 
C 2438 2387 2202 2202 1843 1946 
C 1357 1613 1030 1338 851 1133 
C 544 794 397 416 397 0 
L 3443 0 
L 3443 467 
L 1043 467 
C 1126 774 1459 1126 2042 1517 
C 2515 1837 2829 2086 2989 2253 
C 3283 2573 3437 2931 3437 3328 
C 3437 3725 3296 4051 3027 4294 
C 2752 4538 2406 4659 1984 4659 
z
" transform="scale(0.015625)"/>
        <path id="PingFangHK-Regular-35" d="M 672 4570 
L 429 2048 
L 928 2048 
C 1018 2227 1158 2368 1338 2458 
C 1510 2554 1702 2598 1920 2598 
C 2253 2598 2515 2502 2701 2298 
C 2893 2099 2995 1818 2995 1453 
C 2995 1133 2886 870 2682 666 
C 2470 461 2208 358 1888 358 
C 1606 358 1370 429 1190 563 
C 986 717 870 941 845 1229 
L 326 1229 
C 358 813 531 480 851 237 
C 1133 19 1478 -90 1882 -90 
C 2330 -90 2714 51 3021 326 
C 3347 621 3514 998 3514 1459 
C 3514 1952 3373 2336 3104 2618 
C 2835 2893 2483 3027 2048 3027 
C 1837 3027 1645 2995 1466 2918 
C 1267 2842 1101 2726 973 2573 
L 947 2573 
L 1101 4102 
L 3328 4102 
L 3328 4570 
L 672 4570 
z
" transform="scale(0.015625)"/>
       </defs>
       <use xlink:href="#PingFangHK-Regular-32"/>
       <use xlink:href="#PingFangHK-Regular-35" transform="translate(59.999985 0)"/>
      </g>
     </g>
    </g>
    <g id="xtick_3">
     <g id="line2d_3">
      <g>
       <use xlink:href="#mca61e1ab29" x="120.539168" y="202.144844" style="stroke: #000000; stroke-width: 0.8"/>
      </g>
     </g>
     <g id="text_3">
      <!-- 50 -->
      <g transform="translate(113.939168 217.1525) scale(0.11 -0.11)">
       <use xlink:href="#PingFangHK-Regular-35"/>
       <use xlink:href="#PingFangHK-Regular-30" transform="translate(59.999985 0)"/>
      </g>
     </g>
    </g>
    <g id="xtick_4">
     <g id="line2d_4">
      <g>
       <use xlink:href="#mca61e1ab29" x="155.443234" y="202.144844" style="stroke: #000000; stroke-width: 0.8"/>
      </g>
     </g>
     <g id="text_4">
      <!-- 75 -->
      <g transform="translate(149.134562 217.1525) scale(0.11 -0.11)">
       <defs>
        <path id="PingFangHK-Regular-37" d="M 218 4570 
L 218 4090 
L 2682 4090 
L 979 0 
L 1536 0 
L 3219 4141 
L 3219 4570 
L 218 4570 
z
" transform="scale(0.015625)"/>
       </defs>
       <use xlink:href="#PingFangHK-Regular-37"/>
       <use xlink:href="#PingFangHK-Regular-35" transform="translate(54.699997 0)"/>
      </g>
     </g>
    </g>
    <g id="xtick_5">
     <g id="line2d_5">
      <g>
       <use xlink:href="#mca61e1ab29" x="190.3473" y="202.144844" style="stroke: #000000; stroke-width: 0.8"/>
      </g>
     </g>
     <g id="text_5">
      <!-- 100 -->
      <g transform="translate(181.542144 217.1525) scale(0.11 -0.11)">
       <defs>
        <path id="PingFangHK-Regular-31" d="M 1472 4570 
C 1318 4397 1139 4243 922 4102 
C 704 3974 486 3885 282 3827 
L 282 3302 
C 710 3430 1069 3635 1357 3930 
L 1357 0 
L 1882 0 
L 1882 4570 
L 1472 4570 
z
" transform="scale(0.015625)"/>
       </defs>
       <use xlink:href="#PingFangHK-Regular-31"/>
       <use xlink:href="#PingFangHK-Regular-30" transform="translate(40.099991 0)"/>
       <use xlink:href="#PingFangHK-Regular-30" transform="translate(100.099976 0)"/>
      </g>
     </g>
    </g>
    <g id="xtick_6">
     <g id="line2d_6">
      <g>
       <use xlink:href="#mca61e1ab29" x="225.251366" y="202.144844" style="stroke: #000000; stroke-width: 0.8"/>
      </g>
     </g>
     <g id="text_6">
      <!-- 125 -->
      <g transform="translate(216.44621 217.1525) scale(0.11 -0.11)">
       <use xlink:href="#PingFangHK-Regular-31"/>
       <use xlink:href="#PingFangHK-Regular-32" transform="translate(40.099991 0)"/>
       <use xlink:href="#PingFangHK-Regular-35" transform="translate(100.099976 0)"/>
      </g>
     </g>
    </g>
    <g id="xtick_7">
     <g id="line2d_7">
      <g>
       <use xlink:href="#mca61e1ab29" x="260.155432" y="202.144844" style="stroke: #000000; stroke-width: 0.8"/>
      </g>
     </g>
     <g id="text_7">
      <!-- 150 -->
      <g transform="translate(251.350275 217.1525) scale(0.11 -0.11)">
       <use xlink:href="#PingFangHK-Regular-31"/>
       <use xlink:href="#PingFangHK-Regular-35" transform="translate(40.099991 0)"/>
       <use xlink:href="#PingFangHK-Regular-30" transform="translate(100.099976 0)"/>
      </g>
     </g>
    </g>
    <g id="xtick_8">
     <g id="line2d_8">
      <g>
       <use xlink:href="#mca61e1ab29" x="295.059497" y="202.144844" style="stroke: #000000; stroke-width: 0.8"/>
      </g>
     </g>
     <g id="text_8">
      <!-- 175 -->
      <g transform="translate(286.545669 217.1525) scale(0.11 -0.11)">
       <use xlink:href="#PingFangHK-Regular-31"/>
       <use xlink:href="#PingFangHK-Regular-37" transform="translate(40.099991 0)"/>
       <use xlink:href="#PingFangHK-Regular-35" transform="translate(94.799988 0)"/>
      </g>
     </g>
    </g>
    <g id="xtick_9">
     <g id="line2d_9">
      <g>
       <use xlink:href="#mca61e1ab29" x="329.963563" y="202.144844" style="stroke: #000000; stroke-width: 0.8"/>
      </g>
     </g>
     <g id="text_9">
      <!-- 200 -->
      <g transform="translate(320.063563 217.1525) scale(0.11 -0.11)">
       <use xlink:href="#PingFangHK-Regular-32"/>
       <use xlink:href="#PingFangHK-Regular-30" transform="translate(59.999985 0)"/>
       <use xlink:href="#PingFangHK-Regular-30" transform="translate(119.999969 0)"/>
      </g>
     </g>
    </g>
    <g id="text_10">
     <!-- 训练步数 -->
     <g transform="translate(165.649219 232.065781) scale(0.12 -0.12)">
      <defs>
       <path id="PingFangHK-Regular-8bad" d="M 4083 4787 
L 4083 -218 
L 4525 -218 
L 4525 4787 
L 4083 4787 
z
M 5421 5101 
L 5421 -653 
L 5875 -653 
L 5875 5101 
L 5421 5101 
z
M 2810 5082 
L 2810 2266 
C 2797 1056 2541 179 2029 -371 
L 2374 -678 
C 2944 -58 3238 922 3251 2266 
L 3251 5082 
L 2810 5082 
z
M 1037 5165 
L 717 4851 
C 1178 4506 1549 4173 1818 3859 
L 2131 4179 
C 1837 4512 1472 4838 1037 5165 
z
M 288 3270 
L 288 2829 
L 1229 2829 
L 1229 339 
C 1229 230 1178 134 1088 51 
L 1267 -358 
C 1651 -77 2010 243 2349 602 
L 2227 1082 
C 2035 877 1850 691 1670 525 
L 1670 3270 
L 288 3270 
z
" transform="scale(0.015625)"/>
       <path id="PingFangHK-Regular-7ec3" d="M 2310 659 
C 1734 416 1050 218 269 77 
L 326 -384 
C 1069 -230 1734 -38 2310 205 
L 2310 659 
z
M 1344 5216 
C 1114 4461 845 3795 525 3213 
C 467 3130 403 3072 326 3034 
L 442 2611 
C 774 2669 1101 2733 1427 2797 
C 1107 2195 832 1773 608 1517 
C 550 1466 480 1421 403 1382 
L 525 954 
C 1114 1043 1722 1203 2362 1446 
L 2362 1862 
C 1933 1702 1504 1574 1075 1485 
C 1421 1939 1869 2701 2406 3770 
L 1984 3930 
C 1869 3680 1754 3443 1638 3213 
C 1382 3162 1126 3117 870 3078 
C 1178 3571 1478 4224 1786 5043 
L 1344 5216 
z
M 3085 1363 
C 2899 838 2630 326 2278 -179 
L 2675 -403 
C 2982 38 3251 570 3488 1197 
L 3085 1363 
z
M 5485 1370 
L 5075 1235 
C 5331 762 5568 218 5779 -397 
L 6170 -224 
C 5978 339 5747 870 5485 1370 
z
M 4058 -582 
C 4422 -582 4608 -410 4608 -70 
L 4608 1734 
L 5971 1734 
L 5971 2144 
L 4608 2144 
L 4608 3386 
L 3750 3386 
C 3827 3603 3904 3840 3981 4083 
L 5971 4083 
L 5971 4512 
L 4109 4512 
C 4166 4717 4224 4928 4282 5152 
L 3834 5235 
C 3770 4986 3712 4742 3648 4512 
L 2227 4512 
L 2227 4083 
L 3520 4083 
C 3443 3840 3366 3610 3290 3386 
L 2458 3386 
L 2458 2970 
L 3123 2970 
C 2989 2662 2848 2381 2707 2131 
L 2810 1734 
L 4166 1734 
L 4166 70 
C 4166 -96 4083 -179 3923 -179 
L 3309 -160 
L 3424 -582 
L 4058 -582 
z
M 3590 2970 
L 4166 2970 
L 4166 2144 
L 3219 2144 
C 3347 2400 3469 2675 3590 2970 
z
" transform="scale(0.015625)"/>
       <path id="PingFangHK-Regular-6b65" d="M 3002 5242 
L 3002 3142 
L 1805 3142 
L 1805 4742 
L 1338 4742 
L 1338 3142 
L 358 3142 
L 358 2694 
L 3040 2694 
L 3040 762 
L 3501 762 
L 3501 2694 
L 6042 2694 
L 6042 3142 
L 3469 3142 
L 3469 4026 
L 5408 4026 
L 5408 4467 
L 3469 4467 
L 3469 5242 
L 3002 5242 
z
M 5088 2227 
C 4384 595 2925 -224 710 -224 
L 877 -666 
C 3155 -659 4704 230 5510 2003 
L 5088 2227 
z
M 1894 2406 
C 1523 1843 1062 1350 518 928 
L 806 557 
C 1370 998 1837 1517 2221 2112 
L 1894 2406 
z
" transform="scale(0.015625)"/>
       <path id="PingFangHK-Regular-6570" d="M 4166 3808 
L 5190 3808 
C 5165 2906 5018 2125 4742 1466 
C 4499 1901 4307 2381 4154 2893 
L 3795 2688 
C 3974 2074 4211 1510 4512 998 
C 4218 486 3827 64 3341 -269 
L 3584 -659 
C 4058 -314 4448 102 4762 602 
C 5069 141 5440 -275 5869 -653 
L 6163 -307 
C 5715 83 5325 531 4998 1037 
C 5370 1805 5574 2726 5606 3808 
L 6074 3808 
L 6074 4250 
L 4275 4250 
C 4339 4531 4397 4838 4448 5165 
L 4006 5242 
C 3859 4102 3578 3194 3155 2528 
L 3437 2176 
C 3738 2611 3981 3155 4166 3808 
z
M 1504 2278 
C 1453 2144 1402 2003 1338 1850 
L 403 1850 
L 403 1446 
L 1152 1446 
C 1024 1203 883 947 717 678 
C 1043 550 1350 429 1638 301 
C 1261 83 800 -96 256 -237 
L 474 -621 
C 1126 -442 1664 -198 2093 96 
C 2470 -83 2803 -256 3085 -429 
L 3328 -70 
C 3040 90 2746 237 2445 378 
C 2778 685 3014 1050 3155 1472 
L 3155 1850 
L 1792 1850 
C 1843 1978 1888 2099 1933 2227 
L 1504 2278 
z
M 2022 563 
C 1779 672 1530 768 1274 858 
C 1395 1043 1510 1242 1613 1446 
L 2733 1446 
C 2579 1114 2342 819 2022 563 
z
M 941 5146 
L 570 5024 
C 723 4787 870 4518 1005 4211 
L 1338 4358 
C 1222 4640 1094 4902 941 5146 
z
M 2886 5171 
C 2765 4909 2605 4640 2413 4371 
L 2739 4205 
C 2938 4467 3104 4736 3232 5011 
L 2886 5171 
z
M 429 4000 
L 429 3597 
L 1421 3597 
C 1203 3238 819 2918 269 2637 
L 506 2259 
C 1056 2592 1446 2982 1690 3430 
L 1690 2362 
L 2112 2362 
L 2112 3142 
C 2330 2982 2592 2765 2893 2490 
L 3130 2848 
C 2790 3085 2451 3296 2112 3482 
L 2112 3597 
L 3270 3597 
L 3270 4000 
L 2112 4000 
L 2112 5222 
L 1690 5222 
L 1690 4000 
L 429 4000 
z
" transform="scale(0.015625)"/>
      </defs>
      <use xlink:href="#PingFangHK-Regular-8bad"/>
      <use xlink:href="#PingFangHK-Regular-7ec3" transform="translate(99.999985 0)"/>
      <use xlink:href="#PingFangHK-Regular-6b65" transform="translate(199.999969 0)"/>
      <use xlink:href="#PingFangHK-Regular-6570" transform="translate(299.999954 0)"/>
     </g>
    </g>
   </g>
   <g id="matplotlib.axis_2">
    <g id="ytick_1">
     <g id="line2d_10">
      <defs>
       <path id="mc9798b587b" d="M 0 0 
L -3.5 0 
" style="stroke: #000000; stroke-width: 0.8"/>
      </defs>
      <g>
       <use xlink:href="#mc9798b587b" x="36.839219" y="175.879295" style="stroke: #000000; stroke-width: 0.8"/>
      </g>
     </g>
     <g id="text_11">
      <!-- 0 -->
      <g transform="translate(23.239219 179.883123) scale(0.11 -0.11)">
       <use xlink:href="#PingFangHK-Regular-30"/>
      </g>
     </g>
    </g>
    <g id="ytick_2">
     <g id="line2d_11">
      <g>
       <use xlink:href="#mc9798b587b" x="36.839219" y="132.10338" style="stroke: #000000; stroke-width: 0.8"/>
      </g>
     </g>
     <g id="text_12">
      <!-- 1 -->
      <g transform="translate(25.428906 136.107208) scale(0.11 -0.11)">
       <use xlink:href="#PingFangHK-Regular-31"/>
      </g>
     </g>
    </g>
    <g id="ytick_3">
     <g id="line2d_12">
      <g>
       <use xlink:href="#mc9798b587b" x="36.839219" y="88.327466" style="stroke: #000000; stroke-width: 0.8"/>
      </g>
     </g>
     <g id="text_13">
      <!-- 2 -->
      <g transform="translate(23.239219 92.331294) scale(0.11 -0.11)">
       <use xlink:href="#PingFangHK-Regular-32"/>
      </g>
     </g>
    </g>
    <g id="ytick_4">
     <g id="line2d_13">
      <g>
       <use xlink:href="#mc9798b587b" x="36.839219" y="44.551551" style="stroke: #000000; stroke-width: 0.8"/>
      </g>
     </g>
     <g id="text_14">
      <!-- 3 -->
      <g transform="translate(23.239219 48.555379) scale(0.11 -0.11)">
       <defs>
        <path id="PingFangHK-Regular-33" d="M 1965 4659 
C 1530 4659 1178 4538 909 4288 
C 627 4038 461 3693 422 3251 
L 941 3251 
C 973 3558 1075 3795 1254 3962 
C 1427 4128 1664 4205 1971 4205 
C 2266 4205 2502 4134 2669 3981 
C 2822 3840 2906 3642 2906 3386 
C 2906 3130 2822 2931 2662 2790 
C 2502 2656 2272 2586 1965 2586 
L 1613 2586 
L 1613 2176 
L 1984 2176 
C 2304 2176 2547 2106 2726 1952 
C 2906 1798 2995 1587 2995 1312 
C 2995 1043 2899 819 2720 640 
C 2522 454 2259 358 1933 358 
C 1645 358 1408 442 1216 595 
C 992 781 870 1056 858 1414 
L 326 1414 
C 365 902 544 512 870 243 
C 1146 26 1498 -90 1933 -90 
C 2406 -90 2790 45 3085 314 
C 3373 576 3520 915 3520 1331 
C 3520 1600 3443 1824 3290 2003 
C 3149 2182 2944 2310 2675 2394 
C 3174 2560 3424 2906 3424 3418 
C 3424 3802 3290 4102 3027 4326 
C 2758 4550 2400 4659 1965 4659 
z
" transform="scale(0.015625)"/>
       </defs>
       <use xlink:href="#PingFangHK-Regular-33"/>
      </g>
     </g>
    </g>
    <g id="text_15">
     <!-- Margin -->
     <g style="fill: #4c5cf0" transform="translate(16.482813 133.282422) rotate(-90) scale(0.13 -0.13)">
      <defs>
       <path id="PingFangHK-Regular-4d" d="M 461 4570 
L 461 0 
L 986 0 
L 986 3635 
L 1005 3635 
L 2586 0 
L 3059 0 
L 4640 3635 
L 4659 3635 
L 4659 0 
L 5184 0 
L 5184 4570 
L 4531 4570 
L 2835 672 
L 2816 672 
L 1114 4570 
L 461 4570 
z
" transform="scale(0.015625)"/>
       <path id="PingFangHK-Regular-61" d="M 1837 3398 
C 1440 3398 1126 3322 883 3168 
C 614 3002 442 2739 371 2394 
L 877 2355 
C 928 2566 1037 2726 1210 2829 
C 1363 2931 1562 2976 1805 2976 
C 2381 2976 2669 2701 2669 2144 
L 2669 1971 
L 1875 1958 
C 1376 1952 992 1856 723 1677 
C 416 1485 269 1203 269 826 
C 269 557 371 333 576 160 
C 774 -6 1037 -90 1370 -90 
C 1677 -90 1952 -19 2195 115 
C 2400 230 2573 378 2701 557 
L 2701 0 
L 3181 0 
L 3181 2125 
C 3181 2509 3078 2810 2886 3027 
C 2656 3277 2310 3398 1837 3398 
z
M 2669 1587 
L 2669 1306 
C 2669 1050 2547 819 2310 621 
C 2067 416 1792 314 1478 314 
C 1274 314 1107 365 979 461 
C 851 563 794 685 794 838 
C 794 1318 1165 1562 1907 1574 
L 2669 1587 
z
" transform="scale(0.015625)"/>
       <path id="PingFangHK-Regular-72" d="M 1850 3398 
C 1619 3398 1421 3328 1248 3187 
C 1107 3078 992 2925 902 2733 
L 902 3309 
L 397 3309 
L 397 0 
L 902 0 
L 902 1754 
C 902 2061 986 2323 1165 2541 
C 1338 2771 1555 2880 1811 2880 
C 1971 2880 2138 2861 2304 2810 
L 2304 3322 
C 2182 3373 2029 3398 1850 3398 
z
" transform="scale(0.015625)"/>
       <path id="PingFangHK-Regular-67" d="M 1760 3398 
C 1299 3398 934 3238 666 2912 
C 397 2605 269 2214 269 1728 
C 269 1248 397 858 666 550 
C 934 237 1299 77 1760 77 
C 2259 77 2630 301 2874 742 
L 2874 160 
C 2874 -570 2541 -941 1875 -941 
C 1574 -941 1350 -883 1203 -774 
C 1056 -672 960 -506 922 -282 
L 410 -282 
C 467 -640 614 -909 851 -1088 
C 1082 -1267 1427 -1357 1875 -1357 
C 2880 -1357 3386 -826 3386 230 
L 3386 3309 
L 2874 3309 
L 2874 2739 
C 2630 3181 2259 3398 1760 3398 
z
M 1837 2976 
C 2163 2976 2419 2861 2611 2618 
C 2790 2400 2880 2099 2880 1728 
C 2880 1370 2790 1075 2611 851 
C 2419 621 2163 506 1830 506 
C 1472 506 1210 634 1030 877 
C 870 1094 794 1382 794 1728 
C 794 2099 883 2400 1062 2618 
C 1248 2861 1504 2976 1837 2976 
z
" transform="scale(0.015625)"/>
       <path id="PingFangHK-Regular-69" d="M 819 4557 
C 710 4557 621 4525 544 4448 
C 467 4384 435 4294 435 4179 
C 435 4070 467 3981 544 3904 
C 621 3834 710 3795 819 3795 
C 928 3795 1018 3834 1094 3904 
C 1171 3981 1210 4070 1210 4179 
C 1210 4294 1171 4384 1094 4448 
C 1018 4525 928 4557 819 4557 
z
M 563 3309 
L 563 0 
L 1075 0 
L 1075 3309 
L 563 3309 
z
" transform="scale(0.015625)"/>
       <path id="PingFangHK-Regular-6e" d="M 1946 3398 
C 1728 3398 1530 3347 1350 3245 
C 1171 3149 1024 3008 909 2822 
L 909 3309 
L 397 3309 
L 397 0 
L 909 0 
L 909 1997 
C 928 2298 1024 2534 1203 2714 
C 1370 2880 1568 2963 1798 2963 
C 2374 2963 2669 2643 2669 1997 
L 2669 0 
L 3181 0 
L 3181 2035 
C 3181 2944 2765 3398 1946 3398 
z
" transform="scale(0.015625)"/>
      </defs>
      <use xlink:href="#PingFangHK-Regular-4d"/>
      <use xlink:href="#PingFangHK-Regular-61" transform="translate(88.199982 0)"/>
      <use xlink:href="#PingFangHK-Regular-72" transform="translate(144.099976 0)"/>
      <use xlink:href="#PingFangHK-Regular-67" transform="translate(180.59996 0)"/>
      <use xlink:href="#PingFangHK-Regular-69" transform="translate(239.699951 0)"/>
      <use xlink:href="#PingFangHK-Regular-6e" transform="translate(265.299942 0)"/>
     </g>
    </g>
   </g>
   <g id="line2d_14">
    <path d="M 50.731037 170.099737 
L 52.1272 166.93454 
L 54.919525 164.095974 
L 56.315687 161.842262 
L 59.108013 158.18171 
L 60.504175 152.365616 
L 61.900338 149.198871 
L 64.692663 144.360388 
L 66.088826 142.27775 
L 67.484989 143.249286 
L 68.881151 141.208329 
L 70.277314 140.673575 
L 73.069639 138.671441 
L 74.465802 136.63084 
L 75.861964 133.813675 
L 77.258127 132.886907 
L 78.65429 130.58057 
L 80.050452 129.74325 
L 81.446615 128.536426 
L 82.842777 127.83179 
L 84.23894 124.946719 
L 85.635103 124.680405 
L 88.427428 120.330226 
L 89.823591 120.190114 
L 91.219753 118.697145 
L 92.615916 116.551429 
L 94.012079 115.17479 
L 96.804404 110.608139 
L 98.200566 110.923739 
L 100.992892 108.397326 
L 102.389054 108.120523 
L 103.785217 107.96162 
L 105.18138 105.48847 
L 106.577542 104.152768 
L 107.973705 101.99229 
L 109.369867 102.36108 
L 110.76603 100.992472 
L 112.162193 100.217712 
L 113.558355 100.022294 
L 114.954518 98.405347 
L 116.350681 96.313741 
L 117.746843 96.014501 
L 119.143006 94.109639 
L 120.539168 91.254731 
L 121.935331 90.875247 
L 123.331494 91.347892 
L 124.727656 89.946045 
L 126.123819 88.860683 
L 127.519982 90.018502 
L 128.916144 89.622887 
L 130.312307 87.22422 
L 131.70847 86.758059 
L 133.104632 86.926252 
L 134.500795 87.955025 
L 135.896957 88.25235 
L 137.29312 88.255265 
L 138.689283 87.777631 
L 141.481608 83.960754 
L 142.877771 82.890009 
L 144.273933 81.97317 
L 145.670096 79.454191 
L 147.066258 80.980313 
L 148.462421 78.553318 
L 149.858584 77.639422 
L 152.650909 77.942571 
L 154.047072 76.233787 
L 155.443234 76.916386 
L 156.839397 76.333104 
L 158.23556 75.384684 
L 159.631722 75.108515 
L 161.027885 74.274152 
L 162.424047 72.24296 
L 163.82021 72.668812 
L 165.216373 70.424605 
L 166.612535 71.400576 
L 168.008698 71.509168 
L 169.404861 71.755624 
L 170.801023 70.248438 
L 172.197186 71.743982 
L 173.593348 70.096478 
L 174.989511 69.9179 
L 176.385674 70.333464 
L 177.781836 69.534005 
L 179.177999 68.454545 
L 180.574162 68.408632 
L 181.970324 67.055401 
L 183.366487 66.057013 
L 184.76265 65.719728 
L 186.158812 65.172956 
L 187.554975 64.919488 
L 188.951137 65.600063 
L 190.3473 64.956777 
L 191.743463 64.770133 
L 193.139625 64.903806 
L 194.535788 63.925395 
L 195.931951 62.328798 
L 197.328113 62.96334 
L 200.120438 62.546094 
L 202.912764 62.340569 
L 204.308926 61.073727 
L 205.705089 60.618198 
L 207.101252 59.298598 
L 208.497414 58.873034 
L 209.893577 58.911714 
L 211.28974 59.458909 
L 212.685902 59.558314 
L 214.082065 60.325325 
L 215.478227 60.038302 
L 216.87439 59.869928 
L 218.270553 60.001077 
L 219.666715 58.542408 
L 221.062878 58.940062 
L 222.459041 59.646886 
L 223.855203 59.045226 
L 225.251366 57.714387 
L 226.647528 58.543555 
L 228.043691 57.20354 
L 229.439854 56.170265 
L 230.836016 57.422247 
L 232.232179 57.739733 
L 233.628342 58.470901 
L 235.024504 58.051315 
L 236.420667 57.972538 
L 237.81683 57.752507 
L 239.212992 57.864295 
L 240.609155 56.937663 
L 242.005317 57.855608 
L 243.40148 58.171783 
L 244.797643 57.269295 
L 246.193805 56.72204 
L 247.589968 57.218742 
L 248.986131 57.009154 
L 250.382293 56.128922 
L 253.174618 58.196009 
L 254.570781 58.2106 
L 255.966944 57.899277 
L 257.363106 57.715734 
L 258.759269 55.542344 
L 260.155432 53.832539 
L 261.551594 53.320515 
L 262.947757 53.065887 
L 264.34392 53.869738 
L 265.740082 54.802265 
L 267.136245 55.493615 
L 268.532407 55.046216 
L 269.92857 55.505128 
L 272.720895 53.144641 
L 275.513221 52.763443 
L 276.909383 51.603676 
L 278.305546 52.1534 
L 279.701708 52.976823 
L 281.097871 52.800498 
L 282.494034 52.92393 
L 283.890196 53.860998 
L 286.682522 53.200647 
L 288.078684 52.110428 
L 289.474847 51.425955 
L 290.87101 49.297011 
L 292.267172 49.773815 
L 293.663335 49.435351 
L 295.059497 50.248565 
L 296.45566 49.31339 
L 297.851823 51.315814 
L 299.247985 51.296088 
L 300.644148 52.257874 
L 302.040311 53.80624 
L 303.436473 55.641939 
L 304.832636 55.542498 
L 307.624961 54.06364 
L 309.021124 51.200716 
L 310.417286 50.106772 
L 311.813449 49.920318 
L 313.209612 50.597266 
L 314.605774 50.435577 
L 316.001937 52.618992 
L 317.3981 51.947607 
L 318.794262 50.664217 
L 320.190425 50.311404 
L 321.586587 51.804722 
L 322.98275 49.881618 
L 324.378913 51.195495 
L 325.775075 51.106451 
L 327.171238 50.73063 
L 328.567401 49.484458 
L 328.567401 49.484458 
" clip-path="url(#pc8e8f70d52)" style="fill: none; stroke: #4c5cf0; stroke-opacity: 0.9; stroke-width: 1.8; stroke-linecap: square"/>
   </g>
   <g id="line2d_15">
    <path d="M 36.839219 175.879295 
L 342.459219 175.879295 
" clip-path="url(#pc8e8f70d52)" style="fill: none; stroke-dasharray: 2.96,1.28; stroke-dashoffset: 0; stroke: #d1d5db; stroke-width: 0.8"/>
   </g>
   <g id="patch_3">
    <path d="M 36.839219 202.144844 
L 36.839219 22.663594 
" style="fill: none; stroke: #000000; stroke-width: 0.8; stroke-linejoin: miter; stroke-linecap: square"/>
   </g>
   <g id="patch_4">
    <path d="M 36.839219 202.144844 
L 342.459219 202.144844 
" style="fill: none; stroke: #000000; stroke-width: 0.8; stroke-linejoin: miter; stroke-linecap: square"/>
   </g>
   <g id="text_16">
    <!-- margin = 0（无法区分好坏） -->
    <g style="fill: #9ca3af" transform="translate(57.71185 189.012069) scale(0.09 -0.09)">
     <defs>
      <path id="PingFangHK-Regular-6d" d="M 1843 3398 
C 1472 3398 1158 3226 909 2867 
L 909 3309 
L 397 3309 
L 397 0 
L 909 0 
L 909 2016 
C 909 2278 986 2502 1139 2682 
C 1293 2874 1485 2963 1722 2963 
C 2227 2963 2483 2675 2483 2086 
L 2483 0 
L 2995 0 
L 2995 2074 
C 2995 2342 3066 2554 3219 2720 
C 3360 2886 3546 2963 3763 2963 
C 4045 2963 4250 2893 4378 2739 
C 4499 2598 4563 2381 4563 2086 
L 4563 0 
L 5075 0 
L 5075 2170 
C 5075 2547 4966 2848 4762 3072 
C 4544 3290 4269 3398 3923 3398 
C 3693 3398 3501 3347 3341 3245 
C 3162 3149 3008 2989 2880 2771 
C 2694 3194 2349 3398 1843 3398 
z
" transform="scale(0.015625)"/>
      <path id="PingFangHK-Regular-20" transform="scale(0.015625)"/>
      <path id="PingFangHK-Regular-3d" d="M 320 2528 
L 320 2099 
L 3552 2099 
L 3552 2528 
L 320 2528 
z
M 320 1216 
L 320 781 
L 3552 781 
L 3552 1216 
L 320 1216 
z
" transform="scale(0.015625)"/>
      <path id="PingFangHK-Regular-ff08" d="M 5440 5293 
C 5158 4883 4941 4442 4781 3974 
C 4589 3424 4499 2867 4499 2298 
C 4499 1741 4589 1184 4781 634 
C 4941 173 5158 -269 5440 -685 
L 5888 -685 
C 5632 -256 5427 186 5280 640 
C 5088 1203 4998 1760 4998 2304 
C 4998 2854 5088 3405 5280 3968 
C 5427 4429 5632 4870 5888 5293 
L 5440 5293 
z
" transform="scale(0.015625)"/>
      <path id="PingFangHK-Regular-65e0" d="M 5248 -538 
C 5491 -538 5670 -480 5786 -365 
C 5914 -224 6003 154 6054 781 
L 5619 922 
C 5594 422 5542 128 5466 26 
C 5402 -58 5306 -102 5165 -102 
L 4211 -102 
C 4058 -102 3981 -26 3981 115 
L 3981 2048 
L 3520 2048 
L 3520 19 
C 3520 -352 3699 -538 4070 -538 
L 5248 -538 
z
M 851 4883 
L 851 4435 
L 2688 4435 
L 2688 3994 
C 2682 3610 2656 3238 2605 2886 
L 422 2886 
L 422 2445 
L 2528 2445 
C 2445 2035 2323 1670 2170 1344 
C 1824 698 1216 179 333 -218 
L 589 -627 
C 1478 -243 2118 294 2515 992 
C 2733 1402 2899 1888 3008 2445 
L 5965 2445 
L 5965 2886 
L 3078 2886 
C 3123 3232 3149 3603 3155 3994 
L 3155 4435 
L 5446 4435 
L 5446 4883 
L 851 4883 
z
" transform="scale(0.015625)"/>
      <path id="PingFangHK-Regular-6cd5" d="M 3725 5229 
L 3725 4198 
L 2208 4198 
L 2208 3750 
L 3725 3750 
L 3725 2554 
L 1901 2554 
L 1901 2106 
L 3418 2106 
C 2931 960 2534 256 2234 -6 
C 2208 -19 2176 -38 2138 -51 
L 2246 -454 
C 3379 -346 4429 -198 5395 -19 
C 5485 -224 5568 -435 5658 -659 
L 6093 -467 
C 5805 262 5466 954 5082 1594 
L 4640 1446 
C 4832 1126 5024 774 5210 390 
C 4416 237 3629 115 2842 32 
C 3149 435 3507 1126 3917 2106 
L 6016 2106 
L 6016 2554 
L 4198 2554 
L 4198 3750 
L 5843 3750 
L 5843 4198 
L 4198 4198 
L 4198 5229 
L 3725 5229 
z
M 819 5126 
L 493 4813 
C 941 4474 1286 4154 1542 3846 
L 1869 4179 
C 1587 4499 1235 4813 819 5126 
z
M 666 3629 
L 339 3315 
C 749 2970 1069 2650 1299 2349 
L 1632 2675 
C 1370 2995 1050 3315 666 3629 
z
M 1402 1856 
C 1133 1088 806 339 435 -390 
L 896 -589 
C 1235 122 1542 883 1818 1690 
L 1402 1856 
z
" transform="scale(0.015625)"/>
      <path id="PingFangHK-Regular-533a" d="M 448 4909 
L 448 4486 
L 819 4486 
L 819 186 
C 819 -192 1005 -384 1389 -384 
L 5811 -384 
L 5811 51 
L 1510 51 
C 1344 51 1267 134 1267 288 
L 1267 4486 
L 5709 4486 
L 5709 4909 
L 448 4909 
z
M 4723 4160 
C 4461 3558 4147 3021 3789 2560 
C 3270 3021 2707 3488 2106 3949 
L 1773 3629 
C 2400 3142 2970 2669 3488 2208 
C 2963 1638 2342 1203 1626 909 
L 1894 493 
C 2630 813 3277 1274 3840 1882 
C 4333 1414 4768 954 5146 506 
L 5498 858 
C 5094 1312 4640 1773 4141 2240 
C 4525 2726 4858 3290 5146 3942 
L 4723 4160 
z
" transform="scale(0.015625)"/>
      <path id="PingFangHK-Regular-5206" d="M 2310 5094 
C 2054 4608 1773 4192 1466 3834 
C 1114 3430 717 3104 282 2854 
L 531 2451 
C 1062 2810 1491 3174 1811 3546 
C 2112 3885 2413 4320 2714 4851 
L 2310 5094 
z
M 2522 2240 
C 2387 1638 2189 1152 1920 781 
C 1619 397 1171 45 582 -275 
L 877 -659 
C 1530 -294 2022 115 2349 576 
C 2624 986 2835 1542 2989 2240 
L 4582 2240 
C 4550 1242 4480 595 4365 288 
C 4256 -6 4032 -154 3686 -154 
C 3354 -154 3002 -147 2630 -134 
L 2758 -589 
L 3923 -589 
C 4243 -570 4474 -467 4614 -282 
C 4762 -90 4864 256 4928 742 
C 4992 1235 5030 1882 5050 2682 
L 1229 2682 
L 1229 2240 
L 2522 2240 
z
M 4115 5178 
L 3718 4954 
C 4109 3942 4800 3117 5792 2477 
L 6099 2842 
C 5146 3411 4486 4192 4115 5178 
z
" transform="scale(0.015625)"/>
      <path id="PingFangHK-Regular-597d" d="M 1363 5299 
C 1293 4858 1216 4429 1126 4006 
L 352 4006 
L 352 3565 
L 1030 3565 
C 877 2912 704 2304 506 1741 
C 864 1478 1197 1229 1491 992 
C 1190 493 800 70 314 -282 
L 627 -666 
C 1120 -288 1530 166 1850 698 
C 2170 429 2445 186 2662 -45 
L 2976 320 
C 2739 550 2438 813 2067 1101 
C 2426 1850 2637 2733 2694 3744 
L 2694 4006 
L 1587 4006 
C 1664 4390 1741 4813 1818 5261 
L 1363 5299 
z
M 1696 1382 
C 1485 1536 1254 1702 1011 1875 
C 1178 2323 1338 2886 1491 3565 
L 2240 3565 
C 2182 2746 2003 2016 1696 1382 
z
M 2912 2541 
L 2912 2093 
L 4358 2093 
L 4358 186 
C 4358 -32 4282 -141 4134 -141 
C 3827 -141 3539 -134 3277 -134 
L 3398 -570 
L 4320 -570 
C 4653 -570 4826 -365 4826 45 
L 4826 2093 
L 6131 2093 
L 6131 2541 
L 4826 2541 
L 4826 3206 
C 5210 3590 5562 4006 5869 4448 
L 5869 4896 
L 3098 4896 
L 3098 4448 
L 5344 4448 
C 5030 4013 4704 3648 4358 3347 
L 4358 2541 
L 2912 2541 
z
" transform="scale(0.015625)"/>
      <path id="PingFangHK-Regular-574f" d="M 314 3526 
L 314 3078 
L 1101 3078 
L 1101 659 
C 838 589 570 525 294 474 
L 410 -6 
C 1120 166 1786 384 2400 646 
L 2400 1120 
C 2125 1005 1843 896 1562 800 
L 1562 3078 
L 2317 3078 
L 2317 3526 
L 1562 3526 
L 1562 5158 
L 1101 5158 
L 1101 3526 
L 314 3526 
z
M 2355 4915 
L 2355 4467 
L 4198 4467 
C 3808 3341 3123 2381 2138 1587 
L 2419 1222 
C 3008 1709 3507 2259 3904 2874 
L 3904 -634 
L 4358 -634 
L 4358 2573 
C 4768 2246 5261 1786 5850 1197 
L 6125 1600 
C 5523 2163 4934 2662 4358 3085 
L 4358 3718 
C 4467 3962 4563 4211 4653 4467 
L 5965 4467 
L 5965 4915 
L 2355 4915 
z
" transform="scale(0.015625)"/>
      <path id="PingFangHK-Regular-ff09" d="M 512 5293 
C 768 4870 966 4429 1120 3968 
C 1306 3405 1402 2854 1402 2304 
C 1402 1760 1306 1203 1120 640 
C 966 186 768 -256 512 -685 
L 960 -685 
C 1235 -269 1453 173 1619 634 
C 1805 1184 1901 1741 1901 2298 
C 1901 2867 1805 3424 1619 3974 
C 1453 4442 1235 4883 960 5293 
L 512 5293 
z
" transform="scale(0.015625)"/>
     </defs>
     <use xlink:href="#PingFangHK-Regular-6d"/>
     <use xlink:href="#PingFangHK-Regular-61" transform="translate(85.499985 0)"/>
     <use xlink:href="#PingFangHK-Regular-72" transform="translate(141.399979 0)"/>
     <use xlink:href="#PingFangHK-Regular-67" transform="translate(177.899963 0)"/>
     <use xlink:href="#PingFangHK-Regular-69" transform="translate(236.999954 0)"/>
     <use xlink:href="#PingFangHK-Regular-6e" transform="translate(262.599945 0)"/>
     <use xlink:href="#PingFangHK-Regular-20" transform="translate(318.499939 0)"/>
     <use xlink:href="#PingFangHK-Regular-3d" transform="translate(351.799927 0)"/>
     <use xlink:href="#PingFangHK-Regular-20" transform="translate(412.299911 0)"/>
     <use xlink:href="#PingFangHK-Regular-30" transform="translate(445.599899 0)"/>
     <use xlink:href="#PingFangHK-Regular-ff08" transform="translate(505.599884 0)"/>
     <use xlink:href="#PingFangHK-Regular-65e0" transform="translate(605.599869 0)"/>
     <use xlink:href="#PingFangHK-Regular-6cd5" transform="translate(705.599854 0)"/>
     <use xlink:href="#PingFangHK-Regular-533a" transform="translate(805.599838 0)"/>
     <use xlink:href="#PingFangHK-Regular-5206" transform="translate(905.599823 0)"/>
     <use xlink:href="#PingFangHK-Regular-597d" transform="translate(1005.599808 0)"/>
     <use xlink:href="#PingFangHK-Regular-574f" transform="translate(1105.599792 0)"/>
     <use xlink:href="#PingFangHK-Regular-ff09" transform="translate(1205.599777 0)"/>
    </g>
   </g>
   <g id="text_17">
    <!-- Reward Margin -->
    <g transform="translate(143.883125 16.663594) scale(0.13 -0.13)">
     <defs>
      <path id="PingFangHK-Regular-52" d="M 461 4570 
L 461 0 
L 986 0 
L 986 1965 
L 2368 1965 
C 2656 1965 2874 1914 3027 1798 
C 3194 1683 3290 1485 3315 1216 
L 3373 608 
C 3392 352 3456 154 3558 0 
L 4128 0 
C 3994 166 3910 390 3885 672 
L 3814 1376 
C 3763 1837 3520 2112 3085 2208 
L 3085 2221 
C 3347 2285 3552 2413 3706 2618 
C 3846 2816 3917 3040 3917 3296 
C 3917 3718 3776 4038 3507 4256 
C 3245 4467 2886 4570 2432 4570 
L 461 4570 
z
M 986 4115 
L 2368 4115 
C 2720 4115 2982 4045 3149 3904 
C 3302 3770 3386 3558 3386 3277 
C 3386 3008 3302 2803 3142 2656 
C 2963 2502 2701 2419 2368 2419 
L 986 2419 
L 986 4115 
z
" transform="scale(0.015625)"/>
      <path id="PingFangHK-Regular-65" d="M 1760 3398 
C 1280 3398 902 3226 621 2880 
C 339 2554 205 2144 205 1658 
C 205 1120 346 698 640 378 
C 922 70 1306 -90 1779 -90 
C 2208 -90 2560 38 2835 282 
C 3059 486 3206 742 3283 1062 
L 2771 1062 
C 2688 832 2579 659 2438 544 
C 2272 410 2048 339 1779 339 
C 1466 339 1216 442 1037 646 
C 858 851 762 1139 736 1510 
L 3347 1510 
C 3334 2086 3206 2541 2963 2861 
C 2694 3219 2291 3398 1760 3398 
z
M 1773 2970 
C 2400 2970 2752 2618 2816 1907 
L 749 1907 
C 781 2234 883 2490 1062 2682 
C 1242 2874 1478 2970 1773 2970 
z
" transform="scale(0.015625)"/>
      <path id="PingFangHK-Regular-77" d="M 32 3309 
L 1158 0 
L 1638 0 
L 2419 2662 
L 3187 0 
L 3674 0 
L 4800 3309 
L 4237 3309 
L 3424 627 
L 2656 3309 
L 2176 3309 
L 1408 627 
L 595 3309 
L 32 3309 
z
" transform="scale(0.015625)"/>
      <path id="PingFangHK-Regular-64" d="M 2842 4659 
L 2842 2701 
C 2586 3168 2221 3398 1747 3398 
C 1274 3398 909 3226 640 2867 
C 390 2547 269 2150 269 1664 
C 269 1165 390 755 640 435 
C 909 90 1286 -90 1773 -90 
C 2272 -90 2643 122 2874 544 
L 2874 0 
L 3354 0 
L 3354 4659 
L 2842 4659 
z
M 1856 2976 
C 2150 2976 2394 2861 2579 2618 
C 2758 2381 2854 2067 2854 1683 
L 2854 1619 
C 2854 1248 2771 947 2611 717 
C 2426 461 2170 333 1837 333 
C 1478 333 1210 467 1030 723 
C 870 954 794 1267 794 1664 
C 794 2061 870 2368 1037 2592 
C 1216 2848 1491 2976 1856 2976 
z
" transform="scale(0.015625)"/>
     </defs>
     <use xlink:href="#PingFangHK-Regular-52"/>
     <use xlink:href="#PingFangHK-Regular-65" transform="translate(67.599991 0)"/>
     <use xlink:href="#PingFangHK-Regular-77" transform="translate(123.099976 0)"/>
     <use xlink:href="#PingFangHK-Regular-61" transform="translate(198.59996 0)"/>
     <use xlink:href="#PingFangHK-Regular-72" transform="translate(254.499954 0)"/>
     <use xlink:href="#PingFangHK-Regular-64" transform="translate(290.999939 0)"/>
     <use xlink:href="#PingFangHK-Regular-20" transform="translate(349.59993 0)"/>
     <use xlink:href="#PingFangHK-Regular-4d" transform="translate(382.899918 0)"/>
     <use xlink:href="#PingFangHK-Regular-61" transform="translate(471.099899 0)"/>
     <use xlink:href="#PingFangHK-Regular-72" transform="translate(526.999893 0)"/>
     <use xlink:href="#PingFangHK-Regular-67" transform="translate(563.499878 0)"/>
     <use xlink:href="#PingFangHK-Regular-69" transform="translate(622.599869 0)"/>
     <use xlink:href="#PingFangHK-Regular-6e" transform="translate(648.19986 0)"/>
    </g>
   </g>
  </g>
 </g>
 <defs>
  <clipPath id="pc8e8f70d52">
   <rect x="36.839219" y="22.663594" width="305.62" height="179.48125"/>
  </clipPath>
 </defs>
</svg>
